solid Centring Tool
facet normal -0.766549470958682 -0.317515187101007 0.558198902303808
outer loop
vertex -2.59807621135332 -1.5 15.0
vertex -12.0740728286134 -3.2352380637815 1.0
vertex -10.8253175473055 -6.25 1.0
endloop
endfacet
facet normal -0.766549470958682 -0.317515187101007 0.558198902303808
outer loop
vertex -12.0740728286134 -3.2352380637815 1.0
vertex -2.59807621135332 -1.5 15.0
vertex -2.89777747886721 -0.776457135307561 15.0
endloop
endfacet
facet normal -0.130526192220052 -0.99144486137381 -0.0
outer loop
vertex -2.29621274840129e-15 -12.5 1.0
vertex -3.23523806378152 -12.0740728286134 0.0
vertex -2.29621274840129e-15 -12.5 0.0
endloop
endfacet
facet normal -0.130526192220052 -0.99144486137381 -0.0
outer loop
vertex -3.23523806378152 -12.0740728286134 0.0
vertex -2.29621274840129e-15 -12.5 1.0
vertex -3.23523806378152 -12.0740728286134 1.0
endloop
endfacet
facet normal 0.60876142900872 -0.793353340291235 0.0
outer loop
vertex 8.83883476483184 -8.83883476483185 1.0
vertex 6.24999999999999 -10.8253175473055 0.0
vertex 8.83883476483184 -8.83883476483185 0.0
endloop
endfacet
facet normal 0.60876142900872 -0.793353340291235 0.0
outer loop
vertex 6.24999999999999 -10.8253175473055 0.0
vertex 8.83883476483184 -8.83883476483185 1.0
vertex 6.24999999999999 -10.8253175473055 1.0
endloop
endfacet
facet normal 0.130526192220051 -0.991444861373811 0.0
outer loop
vertex 3.2352380637815 -12.0740728286134 1.0
vertex -2.29621274840129e-15 -12.5 0.0
vertex 3.2352380637815 -12.0740728286134 0.0
endloop
endfacet
facet normal 0.130526192220051 -0.991444861373811 0.0
outer loop
vertex -2.29621274840129e-15 -12.5 0.0
vertex 3.2352380637815 -12.0740728286134 1.0
vertex -2.29621274840129e-15 -12.5 1.0
endloop
endfacet
facet normal -0.822608908658245 -0.108298517362499 0.558198902303808
outer loop
vertex -2.89777747886721 -0.776457135307561 15.0
vertex -12.5 1.53080849893419e-15 1.0
vertex -12.0740728286134 -3.2352380637815 1.0
endloop
endfacet
facet normal -0.822608908658245 -0.108298517362499 0.558198902303808
outer loop
vertex -12.5 1.53080849893419e-15 1.0
vertex -2.89777747886721 -0.776457135307561 15.0
vertex -3.0 3.67394039744206e-16 15.0
endloop
endfacet
facet normal -0.130526192220051 0.99144486137381 0.0
outer loop
vertex -3.23523806378151 12.0740728286134 1.0
vertex 7.65404249467096e-16 12.5 0.0
vertex -3.23523806378151 12.0740728286134 0.0
endloop
endfacet
facet normal -0.130526192220051 0.99144486137381 0.0
outer loop
vertex 7.65404249467096e-16 12.5 0.0
vertex -3.23523806378151 12.0740728286134 1.0
vertex 7.65404249467096e-16 12.5 1.0
endloop
endfacet
facet normal -0.505093721557238 -0.658250953596182 0.558198902303808
outer loop
vertex -1.5 -2.59807621135332 15.0
vertex -8.83883476483185 -8.83883476483184 1.0
vertex -6.25000000000001 -10.8253175473055 1.0
endloop
endfacet
facet normal -0.505093721557238 -0.658250953596182 0.558198902303808
outer loop
vertex -8.83883476483185 -8.83883476483184 1.0
vertex -1.5 -2.59807621135332 15.0
vertex -2.12132034355964 -2.12132034355964 15.0
endloop
endfacet
facet normal -0.317515187101007 0.766549470958682 0.558198902303809
outer loop
vertex -1.5 2.59807621135332 15.0
vertex -3.23523806378151 12.0740728286134 1.0
vertex -6.25 10.8253175473055 1.0
endloop
endfacet
facet normal -0.317515187101007 0.766549470958682 0.558198902303809
outer loop
vertex -3.23523806378151 12.0740728286134 1.0
vertex -1.5 2.59807621135332 15.0
vertex -0.776457135307562 2.89777747886721 15.0
endloop
endfacet
facet normal 0.317515187101008 0.766549470958682 0.558198902303809
outer loop
vertex 0.776457135307563 2.89777747886721 15.0
vertex 6.25 10.8253175473055 1.0
vertex 3.23523806378151 12.0740728286134 1.0
endloop
endfacet
facet normal 0.317515187101008 0.766549470958682 0.558198902303809
outer loop
vertex 6.25 10.8253175473055 1.0
vertex 0.776457135307563 2.89777747886721 15.0
vertex 1.5 2.59807621135332 15.0
endloop
endfacet
facet normal -0.1082985173625 -0.822608908658244 0.558198902303808
outer loop
vertex -5.51091059616309e-16 -3.0 15.0
vertex -3.23523806378152 -12.0740728286134 1.0
vertex -2.29621274840129e-15 -12.5 1.0
endloop
endfacet
facet normal -0.1082985173625 -0.822608908658244 0.558198902303808
outer loop
vertex -3.23523806378152 -12.0740728286134 1.0
vertex -5.51091059616309e-16 -3.0 15.0
vertex -0.776457135307565 -2.8977774788672 15.0
endloop
endfacet
facet normal -0.408914383728572 -0.708260488563602 -0.575461646957927
outer loop
vertex 0.866025403784438 0.5 15.0
vertex 0.0 7.5 7.0
vertex 6.49519052838329 3.75 7.0
endloop
endfacet
facet normal -0.408914383728572 -0.708260488563602 -0.575461646957927
outer loop
vertex 0.0 7.5 7.0
vertex 0.866025403784438 0.5 15.0
vertex -1.22464679914735e-16 1.0 15.0
endloop
endfacet
facet normal 0.658250953596182 -0.505093721557237 0.558198902303808
outer loop
vertex 10.8253175473055 -6.25000000000001 1.0
vertex 2.12132034355964 -2.12132034355964 15.0
vertex 8.83883476483184 -8.83883476483185 1.0
endloop
endfacet
facet normal 0.658250953596182 -0.505093721557237 0.558198902303808
outer loop
vertex 2.12132034355964 -2.12132034355964 15.0
vertex 10.8253175473055 -6.25000000000001 1.0
vertex 2.59807621135332 -1.5 15.0
endloop
endfacet
facet normal -0.1082985173625 0.822608908658244 0.558198902303809
outer loop
vertex -0.776457135307562 2.89777747886721 15.0
vertex 7.65404249467096e-16 12.5 1.0
vertex -3.23523806378151 12.0740728286134 1.0
endloop
endfacet
facet normal -0.1082985173625 0.822608908658244 0.558198902303809
outer loop
vertex 7.65404249467096e-16 12.5 1.0
vertex -0.776457135307562 2.89777747886721 15.0
vertex 1.83697019872103e-16 3.0 15.0
endloop
endfacet
facet normal 0.382683432365089 -0.923879532511287 0.0
outer loop
vertex 6.24999999999999 -10.8253175473055 1.0
vertex 3.2352380637815 -12.0740728286134 0.0
vertex 6.24999999999999 -10.8253175473055 0.0
endloop
endfacet
facet normal 0.382683432365089 -0.923879532511287 0.0
outer loop
vertex 3.2352380637815 -12.0740728286134 0.0
vertex 6.24999999999999 -10.8253175473055 1.0
vertex 3.2352380637815 -12.0740728286134 1.0
endloop
endfacet
facet normal -0.317515187101008 -0.766549470958682 0.558198902303808
outer loop
vertex -0.776457135307565 -2.8977774788672 15.0
vertex -6.25000000000001 -10.8253175473055 1.0
vertex -3.23523806378152 -12.0740728286134 1.0
endloop
endfacet
facet normal -0.317515187101008 -0.766549470958682 0.558198902303808
outer loop
vertex -6.25000000000001 -10.8253175473055 1.0
vertex -0.776457135307565 -2.8977774788672 15.0
vertex -1.5 -2.59807621135332 15.0
endloop
endfacet
facet normal 0.317515187101006 -0.766549470958683 0.558198902303808
outer loop
vertex 1.5 -2.59807621135332 15.0
vertex 3.2352380637815 -12.0740728286134 1.0
vertex 6.24999999999999 -10.8253175473055 1.0
endloop
endfacet
facet normal 0.317515187101006 -0.766549470958683 0.558198902303808
outer loop
vertex 3.2352380637815 -12.0740728286134 1.0
vertex 1.5 -2.59807621135332 15.0
vertex 0.776457135307561 -2.89777747886721 15.0
endloop
endfacet
facet normal 0.130526192220052 0.99144486137381 0.0
outer loop
vertex 7.65404249467096e-16 12.5 1.0
vertex 3.23523806378151 12.0740728286134 0.0
vertex 7.65404249467096e-16 12.5 0.0
endloop
endfacet
facet normal 0.130526192220052 0.99144486137381 0.0
outer loop
vertex 3.23523806378151 12.0740728286134 0.0
vertex 7.65404249467096e-16 12.5 1.0
vertex 3.23523806378151 12.0740728286134 1.0
endloop
endfacet
facet normal -0.0 -0.0 1.0
outer loop
vertex -0.776457135307565 -2.8977774788672 15.0
vertex -0.866025403784438 -0.5 15.0
vertex -1.5 -2.59807621135332 15.0
endloop
endfacet
facet normal -0.0 -0.0 1.0
outer loop
vertex -0.866025403784438 -0.5 15.0
vertex -0.776457135307565 -2.8977774788672 15.0
vertex 0.0 -1.0 15.0
endloop
endfacet
facet normal -0.0 -0.0 1.0
outer loop
vertex 0.0 -1.0 15.0
vertex -0.776457135307565 -2.8977774788672 15.0
vertex -5.51091059616309e-16 -3.0 15.0
endloop
endfacet
facet normal -0.0 -0.0 1.0
outer loop
vertex 0.0 -1.0 15.0
vertex -5.51091059616309e-16 -3.0 15.0
vertex 0.776457135307561 -2.89777747886721 15.0
endloop
endfacet
facet normal -0.0 -0.0 1.0
outer loop
vertex 0.0 -1.0 15.0
vertex 0.776457135307561 -2.89777747886721 15.0
vertex 0.866025403784439 -0.499999999999999 15.0
endloop
endfacet
facet normal -0.0 -0.0 1.0
outer loop
vertex 0.866025403784439 -0.499999999999999 15.0
vertex 0.776457135307561 -2.89777747886721 15.0
vertex 1.5 -2.59807621135332 15.0
endloop
endfacet
facet normal -0.0 -0.0 1.0
outer loop
vertex 0.866025403784439 -0.499999999999999 15.0
vertex 3.0 0.0 15.0
vertex 0.866025403784438 1.53458081547551e-16 15.0
endloop
endfacet
facet normal -0.0 -0.0 1.0
outer loop
vertex 3.0 0.0 15.0
vertex 0.866025403784439 -0.499999999999999 15.0
vertex 1.5 -2.59807621135332 15.0
endloop
endfacet
facet normal -0.0 -0.0 1.0
outer loop
vertex 3.0 0.0 15.0
vertex 1.5 -2.59807621135332 15.0
vertex 2.12132034355964 -2.12132034355964 15.0
endloop
endfacet
facet normal -0.0 -0.0 1.0
outer loop
vertex 3.0 0.0 15.0
vertex 2.12132034355964 -2.12132034355964 15.0
vertex 2.59807621135332 -1.5 15.0
endloop
endfacet
facet normal -0.0 -0.0 1.0
outer loop
vertex 3.0 0.0 15.0
vertex 2.59807621135332 -1.5 15.0
vertex 2.8977774788672 -0.776457135307565 15.0
endloop
endfacet
facet normal -0.0 -0.0 1.0
outer loop
vertex -2.89777747886721 -0.776457135307561 15.0
vertex -0.866025403784438 2.50548819773607e-16 15.0
vertex -3.0 3.67394039744206e-16 15.0
endloop
endfacet
facet normal -0.0 -0.0 1.0
outer loop
vertex -0.866025403784438 2.50548819773607e-16 15.0
vertex -2.89777747886721 -0.776457135307561 15.0
vertex -2.59807621135332 -1.5 15.0
endloop
endfacet
facet normal -0.0 -0.0 1.0
outer loop
vertex -0.866025403784438 2.50548819773607e-16 15.0
vertex -2.59807621135332 -1.5 15.0
vertex -2.12132034355964 -2.12132034355964 15.0
endloop
endfacet
facet normal -0.0 -0.0 1.0
outer loop
vertex -0.866025403784438 2.50548819773607e-16 15.0
vertex -2.12132034355964 -2.12132034355964 15.0
vertex -1.5 -2.59807621135332 15.0
endloop
endfacet
facet normal -0.0 -0.0 1.0
outer loop
vertex -0.866025403784438 2.50548819773607e-16 15.0
vertex -1.5 -2.59807621135332 15.0
vertex -0.866025403784438 -0.5 15.0
endloop
endfacet
facet normal 0.793353340291235 0.608761429008721 0.0
outer loop
vertex 8.83883476483184 8.83883476483184 0.0
vertex 10.8253175473055 6.25 1.0
vertex 10.8253175473055 6.25 0.0
endloop
endfacet
facet normal 0.793353340291235 0.608761429008721 0.0
outer loop
vertex 10.8253175473055 6.25 1.0
vertex 8.83883476483184 8.83883476483184 0.0
vertex 8.83883476483184 8.83883476483184 1.0
endloop
endfacet
facet normal -0.38268343236509 0.923879532511287 0.0
outer loop
vertex -6.25 10.8253175473055 1.0
vertex -3.23523806378151 12.0740728286134 0.0
vertex -6.25 10.8253175473055 0.0
endloop
endfacet
facet normal -0.38268343236509 0.923879532511287 0.0
outer loop
vertex -3.23523806378151 12.0740728286134 0.0
vertex -6.25 10.8253175473055 1.0
vertex -3.23523806378151 12.0740728286134 1.0
endloop
endfacet
facet normal 0.923879532511287 -0.382683432365091 0.0
outer loop
vertex 12.0740728286134 -3.23523806378152 0.0
vertex 10.8253175473055 -6.25000000000001 1.0
vertex 10.8253175473055 -6.25000000000001 0.0
endloop
endfacet
facet normal 0.923879532511287 -0.382683432365091 0.0
outer loop
vertex 10.8253175473055 -6.25000000000001 1.0
vertex 12.0740728286134 -3.23523806378152 0.0
vertex 12.0740728286134 -3.23523806378152 1.0
endloop
endfacet
facet normal -0.60876142900872 0.793353340291235 0.0
outer loop
vertex -8.83883476483184 8.83883476483184 1.0
vertex -6.25 10.8253175473055 0.0
vertex -8.83883476483184 8.83883476483184 0.0
endloop
endfacet
facet normal -0.60876142900872 0.793353340291235 0.0
outer loop
vertex -6.25 10.8253175473055 0.0
vertex -8.83883476483184 8.83883476483184 1.0
vertex -6.25 10.8253175473055 1.0
endloop
endfacet
facet normal 0.99144486137381 -0.130526192220052 0.0
outer loop
vertex 12.5 0.0 0.0
vertex 12.0740728286134 -3.23523806378152 1.0
vertex 12.0740728286134 -3.23523806378152 0.0
endloop
endfacet
facet normal 0.99144486137381 -0.130526192220052 0.0
outer loop
vertex 12.0740728286134 -3.23523806378152 1.0
vertex 12.5 0.0 0.0
vertex 12.5 0.0 1.0
endloop
endfacet
facet normal -0.766549470958682 0.317515187101007 0.558198902303808
outer loop
vertex -2.59807621135332 1.5 15.0
vertex -12.0740728286134 3.23523806378151 1.0
vertex -2.8977774788672 0.776457135307563 15.0
endloop
endfacet
facet normal -0.766549470958682 0.317515187101007 0.558198902303808
outer loop
vertex -12.0740728286134 3.23523806378151 1.0
vertex -2.59807621135332 1.5 15.0
vertex -10.8253175473055 6.25 1.0
endloop
endfacet
facet normal 0.408914383728572 -0.708260488563602 -0.575461646957927
outer loop
vertex -1.22464679914735e-16 1.0 15.0
vertex -6.49519052838329 3.75 7.0
vertex 0.0 7.5 7.0
endloop
endfacet
facet normal 0.408914383728572 -0.708260488563602 -0.575461646957927
outer loop
vertex -6.49519052838329 3.75 7.0
vertex -1.22464679914735e-16 1.0 15.0
vertex -0.866025403784439 0.5 15.0
endloop
endfacet
facet normal -0.608761429008721 -0.793353340291235 -0.0
outer loop
vertex -6.25000000000001 -10.8253175473055 1.0
vertex -8.83883476483185 -8.83883476483184 0.0
vertex -6.25000000000001 -10.8253175473055 0.0
endloop
endfacet
facet normal -0.608761429008721 -0.793353340291235 -0.0
outer loop
vertex -8.83883476483185 -8.83883476483184 0.0
vertex -6.25000000000001 -10.8253175473055 1.0
vertex -8.83883476483185 -8.83883476483184 1.0
endloop
endfacet
facet normal 0.408914383728572 0.708260488563602 -0.575461646957927
outer loop
vertex -0.866025403784438 -0.5 15.0
vertex -9.18485099360515e-16 -7.5 7.0
vertex -6.49519052838329 -3.75 7.0
endloop
endfacet
facet normal 0.408914383728572 0.708260488563602 -0.575461646957927
outer loop
vertex -9.18485099360515e-16 -7.5 7.0
vertex -0.866025403784438 -0.5 15.0
vertex 0.0 -1.0 15.0
endloop
endfacet
facet normal 0.608761429008721 0.793353340291235 0.0
outer loop
vertex 6.25 10.8253175473055 1.0
vertex 8.83883476483184 8.83883476483184 0.0
vertex 6.25 10.8253175473055 0.0
endloop
endfacet
facet normal 0.608761429008721 0.793353340291235 0.0
outer loop
vertex 8.83883476483184 8.83883476483184 0.0
vertex 6.25 10.8253175473055 1.0
vertex 8.83883476483184 8.83883476483184 1.0
endloop
endfacet
facet normal -0.822608908658244 0.1082985173625 0.558198902303808
outer loop
vertex -2.8977774788672 0.776457135307563 15.0
vertex -12.5 1.53080849893419e-15 1.0
vertex -3.0 3.67394039744206e-16 15.0
endloop
endfacet
facet normal -0.822608908658244 0.1082985173625 0.558198902303808
outer loop
vertex -12.5 1.53080849893419e-15 1.0
vertex -2.8977774788672 0.776457135307563 15.0
vertex -12.0740728286134 3.23523806378151 1.0
endloop
endfacet
facet normal -0.408914383728572 0.708260488563603 -0.575461646957927
outer loop
vertex 0.0 -1.0 15.0
vertex 6.49519052838329 -3.75 7.0
vertex -9.18485099360515e-16 -7.5 7.0
endloop
endfacet
facet normal -0.408914383728572 0.708260488563603 -0.575461646957927
outer loop
vertex 6.49519052838329 -3.75 7.0
vertex 0.0 -1.0 15.0
vertex 0.866025403784439 -0.499999999999999 15.0
endloop
endfacet
facet normal -0.817828767457144 5.80218149722628e-16 -0.575461646957927
outer loop
vertex 0.866025403784439 -0.499999999999999 15.0
vertex 6.49519052838329 3.75 7.0
vertex 6.49519052838329 -3.75 7.0
endloop
endfacet
facet normal -0.817828767457144 5.80218149722628e-16 -0.575461646957927
outer loop
vertex 6.49519052838329 3.75 7.0
vertex 0.866025403784439 -0.499999999999999 15.0
vertex 0.866025403784438 1.53458081547551e-16 15.0
endloop
endfacet
facet normal -0.817828767457144 5.80218149722628e-16 -0.575461646957927
outer loop
vertex 6.49519052838329 3.75 7.0
vertex 0.866025403784438 1.53458081547551e-16 15.0
vertex 0.866025403784438 0.5 15.0
endloop
endfacet
facet normal -0.793353340291236 -0.60876142900872 -0.0
outer loop
vertex -10.8253175473055 -6.25 1.0
vertex -8.83883476483185 -8.83883476483184 0.0
vertex -8.83883476483185 -8.83883476483184 1.0
endloop
endfacet
facet normal -0.793353340291236 -0.60876142900872 -0.0
outer loop
vertex -8.83883476483185 -8.83883476483184 0.0
vertex -10.8253175473055 -6.25 1.0
vertex -10.8253175473055 -6.25 0.0
endloop
endfacet
facet normal 0.38268343236509 0.923879532511287 0.0
outer loop
vertex 3.23523806378151 12.0740728286134 1.0
vertex 6.25 10.8253175473055 0.0
vertex 3.23523806378151 12.0740728286134 0.0
endloop
endfacet
facet normal 0.38268343236509 0.923879532511287 0.0
outer loop
vertex 6.25 10.8253175473055 0.0
vertex 3.23523806378151 12.0740728286134 1.0
vertex 6.25 10.8253175473055 1.0
endloop
endfacet
facet normal 0.817828767457144 -1.34995666810789e-16 -0.575461646957927
outer loop
vertex -6.49519052838329 3.75 7.0
vertex -0.866025403784438 -0.5 15.0
vertex -6.49519052838329 -3.75 7.0
endloop
endfacet
facet normal 0.817828767457144 -1.34995666810789e-16 -0.575461646957927
outer loop
vertex -0.866025403784438 -0.5 15.0
vertex -6.49519052838329 3.75 7.0
vertex -0.866025403784438 2.50548819773607e-16 15.0
endloop
endfacet
facet normal 0.817828767457144 -1.34995666810789e-16 -0.575461646957927
outer loop
vertex -0.866025403784438 2.50548819773607e-16 15.0
vertex -6.49519052838329 3.75 7.0
vertex -0.866025403784439 0.5 15.0
endloop
endfacet
facet normal -0.5 -0.866025403784439 -0.0
outer loop
vertex 6.49519052838329 3.75 7.0
vertex 0.0 7.5 0.0
vertex 6.49519052838329 3.75 0.0
endloop
endfacet
facet normal -0.5 -0.866025403784439 -0.0
outer loop
vertex 0.0 7.5 0.0
vertex 6.49519052838329 3.75 7.0
vertex 0.0 7.5 7.0
endloop
endfacet
facet normal 0.766549470958682 -0.317515187101008 0.558198902303808
outer loop
vertex 12.0740728286134 -3.23523806378152 1.0
vertex 2.59807621135332 -1.5 15.0
vertex 10.8253175473055 -6.25000000000001 1.0
endloop
endfacet
facet normal 0.766549470958682 -0.317515187101008 0.558198902303808
outer loop
vertex 2.59807621135332 -1.5 15.0
vertex 12.0740728286134 -3.23523806378152 1.0
vertex 2.8977774788672 -0.776457135307565 15.0
endloop
endfacet
facet normal 0.5 -0.866025403784439 -0.0
outer loop
vertex 0.0 7.5 7.0
vertex -6.49519052838329 3.75 0.0
vertex 0.0 7.5 0.0
endloop
endfacet
facet normal 0.5 -0.866025403784439 -0.0
outer loop
vertex -6.49519052838329 3.75 0.0
vertex 0.0 7.5 7.0
vertex -6.49519052838329 3.75 7.0
endloop
endfacet
facet normal -0.658250953596182 0.505093721557238 0.558198902303808
outer loop
vertex -2.12132034355964 2.12132034355964 15.0
vertex -10.8253175473055 6.25 1.0
vertex -2.59807621135332 1.5 15.0
endloop
endfacet
facet normal -0.658250953596182 0.505093721557238 0.558198902303808
outer loop
vertex -10.8253175473055 6.25 1.0
vertex -2.12132034355964 2.12132034355964 15.0
vertex -8.83883476483184 8.83883476483184 1.0
endloop
endfacet
facet normal -0.382683432365091 -0.923879532511287 -0.0
outer loop
vertex -3.23523806378152 -12.0740728286134 1.0
vertex -6.25000000000001 -10.8253175473055 0.0
vertex -3.23523806378152 -12.0740728286134 0.0
endloop
endfacet
facet normal -0.382683432365091 -0.923879532511287 -0.0
outer loop
vertex -6.25000000000001 -10.8253175473055 0.0
vertex -3.23523806378152 -12.0740728286134 1.0
vertex -6.25000000000001 -10.8253175473055 1.0
endloop
endfacet
facet normal 0.99144486137381 0.130526192220051 0.0
outer loop
vertex 12.0740728286134 3.23523806378151 0.0
vertex 12.5 0.0 1.0
vertex 12.5 0.0 0.0
endloop
endfacet
facet normal 0.99144486137381 0.130526192220051 0.0
outer loop
vertex 12.5 0.0 1.0
vertex 12.0740728286134 3.23523806378151 0.0
vertex 12.0740728286134 3.23523806378151 1.0
endloop
endfacet
facet normal 0.923879532511287 0.38268343236509 0.0
outer loop
vertex 10.8253175473055 6.25 0.0
vertex 12.0740728286134 3.23523806378151 1.0
vertex 12.0740728286134 3.23523806378151 0.0
endloop
endfacet
facet normal 0.923879532511287 0.38268343236509 0.0
outer loop
vertex 12.0740728286134 3.23523806378151 1.0
vertex 10.8253175473055 6.25 0.0
vertex 10.8253175473055 6.25 1.0
endloop
endfacet
facet normal 0.822608908658244 -0.1082985173625 0.558198902303808
outer loop
vertex 12.5 0.0 1.0
vertex 2.8977774788672 -0.776457135307565 15.0
vertex 12.0740728286134 -3.23523806378152 1.0
endloop
endfacet
facet normal 0.822608908658244 -0.1082985173625 0.558198902303808
outer loop
vertex 2.8977774788672 -0.776457135307565 15.0
vertex 12.5 0.0 1.0
vertex 3.0 0.0 15.0
endloop
endfacet
facet normal 0.658250953596182 0.505093721557237 0.558198902303809
outer loop
vertex 10.8253175473055 6.25 1.0
vertex 2.12132034355964 2.12132034355964 15.0
vertex 2.59807621135332 1.5 15.0
endloop
endfacet
facet normal 0.658250953596182 0.505093721557237 0.558198902303809
outer loop
vertex 2.12132034355964 2.12132034355964 15.0
vertex 10.8253175473055 6.25 1.0
vertex 8.83883476483184 8.83883476483184 1.0
endloop
endfacet
facet normal 0.766549470958682 0.317515187101008 0.558198902303809
outer loop
vertex 12.0740728286134 3.23523806378151 1.0
vertex 2.59807621135332 1.5 15.0
vertex 2.89777747886721 0.776457135307562 15.0
endloop
endfacet
facet normal 0.766549470958682 0.317515187101008 0.558198902303809
outer loop
vertex 2.59807621135332 1.5 15.0
vertex 12.0740728286134 3.23523806378151 1.0
vertex 10.8253175473055 6.25 1.0
endloop
endfacet
facet normal 0.5 0.866025403784439 0.0
outer loop
vertex -6.49519052838329 -3.75 7.0
vertex -9.18485099360515e-16 -7.5 0.0
vertex -6.49519052838329 -3.75 0.0
endloop
endfacet
facet normal 0.5 0.866025403784439 0.0
outer loop
vertex -9.18485099360515e-16 -7.5 0.0
vertex -6.49519052838329 -3.75 7.0
vertex -9.18485099360515e-16 -7.5 7.0
endloop
endfacet
facet normal -0.658250953596183 -0.505093721557237 0.558198902303808
outer loop
vertex -2.12132034355964 -2.12132034355964 15.0
vertex -10.8253175473055 -6.25 1.0
vertex -8.83883476483185 -8.83883476483184 1.0
endloop
endfacet
facet normal -0.658250953596183 -0.505093721557237 0.558198902303808
outer loop
vertex -10.8253175473055 -6.25 1.0
vertex -2.12132034355964 -2.12132034355964 15.0
vertex -2.59807621135332 -1.5 15.0
endloop
endfacet
facet normal 0.1082985173625 0.822608908658244 0.558198902303809
outer loop
vertex 1.83697019872103e-16 3.0 15.0
vertex 3.23523806378151 12.0740728286134 1.0
vertex 7.65404249467096e-16 12.5 1.0
endloop
endfacet
facet normal 0.1082985173625 0.822608908658244 0.558198902303809
outer loop
vertex 3.23523806378151 12.0740728286134 1.0
vertex 1.83697019872103e-16 3.0 15.0
vertex 0.776457135307563 2.89777747886721 15.0
endloop
endfacet
facet normal 0.793353340291235 -0.608761429008721 0.0
outer loop
vertex 10.8253175473055 -6.25000000000001 0.0
vertex 8.83883476483184 -8.83883476483185 1.0
vertex 8.83883476483184 -8.83883476483185 0.0
endloop
endfacet
facet normal 0.793353340291235 -0.608761429008721 0.0
outer loop
vertex 8.83883476483184 -8.83883476483185 1.0
vertex 10.8253175473055 -6.25000000000001 0.0
vertex 10.8253175473055 -6.25000000000001 1.0
endloop
endfacet
facet normal 0.505093721557237 -0.658250953596183 0.558198902303808
outer loop
vertex 2.12132034355964 -2.12132034355964 15.0
vertex 6.24999999999999 -10.8253175473055 1.0
vertex 8.83883476483184 -8.83883476483185 1.0
endloop
endfacet
facet normal 0.505093721557237 -0.658250953596183 0.558198902303808
outer loop
vertex 6.24999999999999 -10.8253175473055 1.0
vertex 2.12132034355964 -2.12132034355964 15.0
vertex 1.5 -2.59807621135332 15.0
endloop
endfacet
facet normal 1.0 -1.87997765503193e-16 -0.0
outer loop
vertex -6.49519052838329 3.75 0.0
vertex -6.49519052838329 -3.75 7.0
vertex -6.49519052838329 -3.75 0.0
endloop
endfacet
facet normal 1.0 -1.87997765503193e-16 -0.0
outer loop
vertex -6.49519052838329 -3.75 7.0
vertex -6.49519052838329 3.75 0.0
vertex -6.49519052838329 3.75 7.0
endloop
endfacet
facet normal -0.923879532511287 -0.38268343236509 -0.0
outer loop
vertex -12.0740728286134 -3.2352380637815 1.0
vertex -10.8253175473055 -6.25 0.0
vertex -10.8253175473055 -6.25 1.0
endloop
endfacet
facet normal -0.923879532511287 -0.38268343236509 -0.0
outer loop
vertex -10.8253175473055 -6.25 0.0
vertex -12.0740728286134 -3.2352380637815 1.0
vertex -12.0740728286134 -3.2352380637815 0.0
endloop
endfacet
facet normal 0.822608908658244 0.1082985173625 0.558198902303809
outer loop
vertex 12.0740728286134 3.23523806378151 1.0
vertex 3.0 0.0 15.0
vertex 12.5 0.0 1.0
endloop
endfacet
facet normal 0.822608908658244 0.1082985173625 0.558198902303809
outer loop
vertex 3.0 0.0 15.0
vertex 12.0740728286134 3.23523806378151 1.0
vertex 2.89777747886721 0.776457135307562 15.0
endloop
endfacet
facet normal -0.5 0.866025403784439 -0.0
outer loop
vertex -9.18485099360515e-16 -7.5 7.0
vertex 6.49519052838329 -3.75 0.0
vertex -9.18485099360515e-16 -7.5 0.0
endloop
endfacet
facet normal -0.5 0.866025403784439 -0.0
outer loop
vertex 6.49519052838329 -3.75 0.0
vertex -9.18485099360515e-16 -7.5 7.0
vertex 6.49519052838329 -3.75 7.0
endloop
endfacet
facet normal 0.108298517362499 -0.822608908658245 0.558198902303808
outer loop
vertex 0.776457135307561 -2.89777747886721 15.0
vertex -2.29621274840129e-15 -12.5 1.0
vertex 3.2352380637815 -12.0740728286134 1.0
endloop
endfacet
facet normal 0.108298517362499 -0.822608908658245 0.558198902303808
outer loop
vertex -2.29621274840129e-15 -12.5 1.0
vertex 0.776457135307561 -2.89777747886721 15.0
vertex -5.51091059616309e-16 -3.0 15.0
endloop
endfacet
facet normal 0.505093721557237 0.658250953596182 0.558198902303809
outer loop
vertex 1.5 2.59807621135332 15.0
vertex 8.83883476483184 8.83883476483184 1.0
vertex 6.25 10.8253175473055 1.0
endloop
endfacet
facet normal 0.505093721557237 0.658250953596182 0.558198902303809
outer loop
vertex 8.83883476483184 8.83883476483184 1.0
vertex 1.5 2.59807621135332 15.0
vertex 2.12132034355964 2.12132034355964 15.0
endloop
endfacet
facet normal -1.0 7.51991062012773e-16 -0.0
outer loop
vertex 6.49519052838329 3.75 7.0
vertex 6.49519052838329 -3.75 0.0
vertex 6.49519052838329 -3.75 7.0
endloop
endfacet
facet normal -1.0 7.51991062012773e-16 -0.0
outer loop
vertex 6.49519052838329 -3.75 0.0
vertex 6.49519052838329 3.75 7.0
vertex 6.49519052838329 3.75 0.0
endloop
endfacet
facet normal -0.505093721557237 0.658250953596183 0.558198902303808
outer loop
vertex -2.12132034355964 2.12132034355964 15.0
vertex -6.25 10.8253175473055 1.0
vertex -8.83883476483184 8.83883476483184 1.0
endloop
endfacet
facet normal -0.505093721557237 0.658250953596183 0.558198902303808
outer loop
vertex -6.25 10.8253175473055 1.0
vertex -2.12132034355964 2.12132034355964 15.0
vertex -1.5 2.59807621135332 15.0
endloop
endfacet
facet normal 0.0 0.0 -1.0
outer loop
vertex -8.83883476483184 8.83883476483184 0.0
vertex -6.49519052838329 3.75 0.0
vertex -6.49519052838329 -3.75 0.0
endloop
endfacet
facet normal 0.0 0.0 -1.0
outer loop
vertex -6.49519052838329 3.75 0.0
vertex -8.83883476483184 8.83883476483184 0.0
vertex -6.25 10.8253175473055 0.0
endloop
endfacet
facet normal 0.0 0.0 -1.0
outer loop
vertex -6.49519052838329 3.75 0.0
vertex -6.25 10.8253175473055 0.0
vertex 0.0 7.5 0.0
endloop
endfacet
facet normal 0.0 0.0 -1.0
outer loop
vertex 0.0 7.5 0.0
vertex -6.25 10.8253175473055 0.0
vertex -3.23523806378151 12.0740728286134 0.0
endloop
endfacet
facet normal 0.0 0.0 -1.0
outer loop
vertex 0.0 7.5 0.0
vertex -3.23523806378151 12.0740728286134 0.0
vertex 7.65404249467096e-16 12.5 0.0
endloop
endfacet
facet normal 0.0 0.0 -1.0
outer loop
vertex 0.0 7.5 0.0
vertex 7.65404249467096e-16 12.5 0.0
vertex 6.49519052838329 3.75 0.0
endloop
endfacet
facet normal 0.0 0.0 -1.0
outer loop
vertex 6.49519052838329 3.75 0.0
vertex 7.65404249467096e-16 12.5 0.0
vertex 3.23523806378151 12.0740728286134 0.0
endloop
endfacet
facet normal 0.0 0.0 -1.0
outer loop
vertex 6.49519052838329 3.75 0.0
vertex 3.23523806378151 12.0740728286134 0.0
vertex 6.25 10.8253175473055 0.0
endloop
endfacet
facet normal 0.0 0.0 -1.0
outer loop
vertex 6.49519052838329 3.75 0.0
vertex 6.25 10.8253175473055 0.0
vertex 8.83883476483184 8.83883476483184 0.0
endloop
endfacet
facet normal 0.0 0.0 -1.0
outer loop
vertex 6.49519052838329 3.75 0.0
vertex 8.83883476483184 8.83883476483184 0.0
vertex 8.83883476483184 -8.83883476483185 0.0
endloop
endfacet
facet normal 0.0 0.0 -1.0
outer loop
vertex 8.83883476483184 -8.83883476483185 0.0
vertex 8.83883476483184 8.83883476483184 0.0
vertex 10.8253175473055 -6.25000000000001 0.0
endloop
endfacet
facet normal 0.0 0.0 -1.0
outer loop
vertex 10.8253175473055 -6.25000000000001 0.0
vertex 8.83883476483184 8.83883476483184 0.0
vertex 10.8253175473055 6.25 0.0
endloop
endfacet
facet normal 0.0 0.0 -1.0
outer loop
vertex 10.8253175473055 -6.25000000000001 0.0
vertex 10.8253175473055 6.25 0.0
vertex 12.0740728286134 -3.23523806378152 0.0
endloop
endfacet
facet normal 0.0 0.0 -1.0
outer loop
vertex 12.0740728286134 -3.23523806378152 0.0
vertex 10.8253175473055 6.25 0.0
vertex 12.0740728286134 3.23523806378151 0.0
endloop
endfacet
facet normal 0.0 0.0 -1.0
outer loop
vertex 12.0740728286134 -3.23523806378152 0.0
vertex 12.0740728286134 3.23523806378151 0.0
vertex 12.5 0.0 0.0
endloop
endfacet
facet normal 0.0 0.0 -1.0
outer loop
vertex -12.0740728286134 3.23523806378151 0.0
vertex -12.0740728286134 -3.2352380637815 0.0
vertex -12.5 1.53080849893419e-15 0.0
endloop
endfacet
facet normal 0.0 0.0 -1.0
outer loop
vertex -12.0740728286134 -3.2352380637815 0.0
vertex -12.0740728286134 3.23523806378151 0.0
vertex -10.8253175473055 -6.25 0.0
endloop
endfacet
facet normal 0.0 0.0 -1.0
outer loop
vertex -10.8253175473055 -6.25 0.0
vertex -12.0740728286134 3.23523806378151 0.0
vertex -10.8253175473055 6.25 0.0
endloop
endfacet
facet normal 0.0 0.0 -1.0
outer loop
vertex -10.8253175473055 -6.25 0.0
vertex -10.8253175473055 6.25 0.0
vertex -8.83883476483185 -8.83883476483184 0.0
endloop
endfacet
facet normal 0.0 0.0 -1.0
outer loop
vertex -8.83883476483185 -8.83883476483184 0.0
vertex -10.8253175473055 6.25 0.0
vertex -8.83883476483184 8.83883476483184 0.0
endloop
endfacet
facet normal 0.0 0.0 -1.0
outer loop
vertex -8.83883476483185 -8.83883476483184 0.0
vertex -8.83883476483184 8.83883476483184 0.0
vertex -6.25000000000001 -10.8253175473055 0.0
endloop
endfacet
facet normal 0.0 0.0 -1.0
outer loop
vertex -6.25000000000001 -10.8253175473055 0.0
vertex -8.83883476483184 8.83883476483184 0.0
vertex -6.49519052838329 -3.75 0.0
endloop
endfacet
facet normal 0.0 0.0 -1.0
outer loop
vertex -6.25000000000001 -10.8253175473055 0.0
vertex -6.49519052838329 -3.75 0.0
vertex -9.18485099360515e-16 -7.5 0.0
endloop
endfacet
facet normal 0.0 0.0 -1.0
outer loop
vertex -6.25000000000001 -10.8253175473055 0.0
vertex -9.18485099360515e-16 -7.5 0.0
vertex -3.23523806378152 -12.0740728286134 0.0
endloop
endfacet
facet normal 0.0 0.0 -1.0
outer loop
vertex -3.23523806378152 -12.0740728286134 0.0
vertex -9.18485099360515e-16 -7.5 0.0
vertex -2.29621274840129e-15 -12.5 0.0
endloop
endfacet
facet normal 0.0 0.0 -1.0
outer loop
vertex -2.29621274840129e-15 -12.5 0.0
vertex -9.18485099360515e-16 -7.5 0.0
vertex 3.2352380637815 -12.0740728286134 0.0
endloop
endfacet
facet normal 0.0 0.0 -1.0
outer loop
vertex 3.2352380637815 -12.0740728286134 0.0
vertex -9.18485099360515e-16 -7.5 0.0
vertex 6.49519052838329 -3.75 0.0
endloop
endfacet
facet normal 0.0 0.0 -1.0
outer loop
vertex 3.2352380637815 -12.0740728286134 0.0
vertex 6.49519052838329 -3.75 0.0
vertex 6.24999999999999 -10.8253175473055 0.0
endloop
endfacet
facet normal 0.0 0.0 -1.0
outer loop
vertex 6.24999999999999 -10.8253175473055 0.0
vertex 6.49519052838329 -3.75 0.0
vertex 8.83883476483184 -8.83883476483185 0.0
endloop
endfacet
facet normal 0.0 0.0 -1.0
outer loop
vertex 8.83883476483184 -8.83883476483185 0.0
vertex 6.49519052838329 -3.75 0.0
vertex 6.49519052838329 3.75 0.0
endloop
endfacet
facet normal -0.793353340291235 0.608761429008721 0.0
outer loop
vertex -8.83883476483184 8.83883476483184 1.0
vertex -10.8253175473055 6.25 0.0
vertex -10.8253175473055 6.25 1.0
endloop
endfacet
facet normal -0.793353340291235 0.608761429008721 0.0
outer loop
vertex -10.8253175473055 6.25 0.0
vertex -8.83883476483184 8.83883476483184 1.0
vertex -8.83883476483184 8.83883476483184 0.0
endloop
endfacet
facet normal -0.99144486137381 0.130526192220052 0.0
outer loop
vertex -12.0740728286134 3.23523806378151 1.0
vertex -12.5 1.53080849893419e-15 0.0
vertex -12.5 1.53080849893419e-15 1.0
endloop
endfacet
facet normal -0.99144486137381 0.130526192220052 0.0
outer loop
vertex -12.5 1.53080849893419e-15 0.0
vertex -12.0740728286134 3.23523806378151 1.0
vertex -12.0740728286134 3.23523806378151 0.0
endloop
endfacet
facet normal -0.0 -0.0 1.0
outer loop
vertex -0.866025403784438 2.50548819773607e-16 15.0
vertex -2.8977774788672 0.776457135307563 15.0
vertex -3.0 3.67394039744206e-16 15.0
endloop
endfacet
facet normal -0.0 -0.0 1.0
outer loop
vertex -2.8977774788672 0.776457135307563 15.0
vertex -0.866025403784438 2.50548819773607e-16 15.0
vertex -2.59807621135332 1.5 15.0
endloop
endfacet
facet normal -0.0 -0.0 1.0
outer loop
vertex -2.59807621135332 1.5 15.0
vertex -0.866025403784438 2.50548819773607e-16 15.0
vertex -2.12132034355964 2.12132034355964 15.0
endloop
endfacet
facet normal -0.0 -0.0 1.0
outer loop
vertex -2.12132034355964 2.12132034355964 15.0
vertex -0.866025403784438 2.50548819773607e-16 15.0
vertex -1.5 2.59807621135332 15.0
endloop
endfacet
facet normal -0.0 -0.0 1.0
outer loop
vertex -1.5 2.59807621135332 15.0
vertex -0.866025403784438 2.50548819773607e-16 15.0
vertex -0.866025403784439 0.5 15.0
endloop
endfacet
facet normal -0.0 -0.0 1.0
outer loop
vertex -0.866025403784439 0.5 15.0
vertex -0.776457135307562 2.89777747886721 15.0
vertex -1.5 2.59807621135332 15.0
endloop
endfacet
facet normal -0.0 -0.0 1.0
outer loop
vertex -0.776457135307562 2.89777747886721 15.0
vertex -0.866025403784439 0.5 15.0
vertex -1.22464679914735e-16 1.0 15.0
endloop
endfacet
facet normal -0.0 -0.0 1.0
outer loop
vertex -0.776457135307562 2.89777747886721 15.0
vertex -1.22464679914735e-16 1.0 15.0
vertex 1.83697019872103e-16 3.0 15.0
endloop
endfacet
facet normal -0.0 -0.0 1.0
outer loop
vertex 1.83697019872103e-16 3.0 15.0
vertex -1.22464679914735e-16 1.0 15.0
vertex 0.866025403784438 0.5 15.0
endloop
endfacet
facet normal -0.0 -0.0 1.0
outer loop
vertex 1.83697019872103e-16 3.0 15.0
vertex 0.866025403784438 0.5 15.0
vertex 0.776457135307563 2.89777747886721 15.0
endloop
endfacet
facet normal -0.0 -0.0 1.0
outer loop
vertex 0.776457135307563 2.89777747886721 15.0
vertex 0.866025403784438 0.5 15.0
vertex 1.5 2.59807621135332 15.0
endloop
endfacet
facet normal -0.0 -0.0 1.0
outer loop
vertex 1.5 2.59807621135332 15.0
vertex 0.866025403784438 0.5 15.0
vertex 0.866025403784438 1.53458081547551e-16 15.0
endloop
endfacet
facet normal -0.0 -0.0 1.0
outer loop
vertex 1.5 2.59807621135332 15.0
vertex 0.866025403784438 1.53458081547551e-16 15.0
vertex 3.0 0.0 15.0
endloop
endfacet
facet normal -0.0 -0.0 1.0
outer loop
vertex 1.5 2.59807621135332 15.0
vertex 3.0 0.0 15.0
vertex 2.12132034355964 2.12132034355964 15.0
endloop
endfacet
facet normal -0.0 -0.0 1.0
outer loop
vertex 2.12132034355964 2.12132034355964 15.0
vertex 3.0 0.0 15.0
vertex 2.59807621135332 1.5 15.0
endloop
endfacet
facet normal -0.0 -0.0 1.0
outer loop
vertex 2.59807621135332 1.5 15.0
vertex 3.0 0.0 15.0
vertex 2.89777747886721 0.776457135307562 15.0
endloop
endfacet
facet normal -0.991444861373811 -0.130526192220051 -0.0
outer loop
vertex -12.5 1.53080849893419e-15 1.0
vertex -12.0740728286134 -3.2352380637815 0.0
vertex -12.0740728286134 -3.2352380637815 1.0
endloop
endfacet
facet normal -0.991444861373811 -0.130526192220051 -0.0
outer loop
vertex -12.0740728286134 -3.2352380637815 0.0
vertex -12.5 1.53080849893419e-15 1.0
vertex -12.5 1.53080849893419e-15 0.0
endloop
endfacet
facet normal -0.923879532511287 0.38268343236509 0.0
outer loop
vertex -10.8253175473055 6.25 1.0
vertex -12.0740728286134 3.23523806378151 0.0
vertex -12.0740728286134 3.23523806378151 1.0
endloop
endfacet
facet normal -0.923879532511287 0.38268343236509 0.0
outer loop
vertex -12.0740728286134 3.23523806378151 0.0
vertex -10.8253175473055 6.25 1.0
vertex -10.8253175473055 6.25 0.0
endloop
endfacet
endsolid Centring Tool
