solid Extruder-inlet
facet normal -0.669368471383628 0.742930581896818 -7.27569980274663e-33
outer loop
vertex 17.7200161506246 1.0450648374036 4.0
vertex 18.6509463900372 1.88381796791747 4.22994972382185e-15
vertex 17.7200161506246 1.0450648374036 4.22994972382185e-15
endloop
endfacet
facet normal -0.669368471383628 0.742930581896818 -7.27569980274663e-33
outer loop
vertex 18.6509463900372 1.88381796791747 4.22994972382185e-15
vertex 17.7200161506246 1.0450648374036 4.0
vertex 18.6509463900372 1.88381796791747 4.0
endloop
endfacet
facet normal -0.998646237637945 0.0520162671822704 -1.00509740554652e-32
outer loop
vertex 19.7850823964411 5.37813550384665 4.0
vertex 19.7199033376686 4.12678039241853 4.22994972382185e-15
vertex 19.7199033376686 4.12678039241853 4.0
endloop
endfacet
facet normal -0.998646237637945 0.0520162671822704 -1.00509740554652e-32
outer loop
vertex 19.7199033376686 4.12678039241853 4.22994972382185e-15
vertex 19.7850823964411 5.37813550384665 4.0
vertex 19.7850823964411 5.37813550384665 4.22994972382185e-15
endloop
endfacet
facet normal -1.0 0.0 0.0
outer loop
vertex 6.0 10.5 4.0
vertex 6.0 -0.5 0.0
vertex 6.0 -0.5 4.0
endloop
endfacet
facet normal -1.0 0.0 0.0
outer loop
vertex 6.0 -0.5 0.0
vertex 6.0 10.5 4.0
vertex 6.0 10.5 0.0
endloop
endfacet
facet normal 1.0 0.0 0.0
outer loop
vertex 24.0 10.5 0.0
vertex 24.0 -0.5 4.0
vertex 24.0 -0.5 0.0
endloop
endfacet
facet normal 1.0 0.0 0.0
outer loop
vertex 24.0 -0.5 4.0
vertex 24.0 10.5 0.0
vertex 24.0 10.5 4.0
endloop
endfacet
facet normal 0.208224809762171 -0.978080992862814 2.83167884871183e-33
outer loop
vertex 14.6218644961533 9.78508239644111 4.0
vertex 13.3962786944139 9.52416599761871 4.22994972382185e-15
vertex 14.6218644961533 9.78508239644111 4.22994972382185e-15
endloop
endfacet
facet normal 0.208224809762171 -0.978080992862814 2.83167884871183e-33
outer loop
vertex 13.3962786944139 9.52416599761871 4.22994972382185e-15
vertex 14.6218644961533 9.78508239644111 4.0
vertex 13.3962786944139 9.52416599761871 4.0
endloop
endfacet
facet normal -0.978080992862814 -0.208224809762169 -9.64678796880624e-33
outer loop
vertex 19.5241659976187 6.60372130558608 4.0
vertex 19.7850823964411 5.37813550384665 4.22994972382185e-15
vertex 19.7850823964411 5.37813550384665 4.0
endloop
endfacet
facet normal -0.978080992862814 -0.208224809762169 -9.64678796880624e-33
outer loop
vertex 19.7850823964411 5.37813550384665 4.22994972382185e-15
vertex 19.5241659976187 6.60372130558608 4.0
vertex 19.5241659976187 6.60372130558608 4.22994972382185e-15
endloop
endfacet
facet normal -0.890861144779348 -0.454275710029086 -8.58518922414401e-33
outer loop
vertex 18.9549351625964 7.72001615062458 4.0
vertex 19.5241659976187 6.60372130558608 4.22994972382185e-15
vertex 19.5241659976187 6.60372130558608 4.0
endloop
endfacet
facet normal -0.890861144779348 -0.454275710029086 -8.58518922414401e-33
outer loop
vertex 19.5241659976187 6.60372130558608 4.22994972382185e-15
vertex 18.9549351625964 7.72001615062458 4.0
vertex 18.9549351625964 7.72001615062458 4.22994972382185e-15
endloop
endfacet
facet normal -0.0520162671822703 -0.998646237637945 2.38419281334337e-34
outer loop
vertex 15.8732196075815 9.71990333766861 4.0
vertex 14.6218644961533 9.78508239644111 4.22994972382185e-15
vertex 15.8732196075815 9.71990333766861 4.22994972382185e-15
endloop
endfacet
facet normal -0.0520162671822703 -0.998646237637945 2.38419281334337e-34
outer loop
vertex 14.6218644961533 9.78508239644111 4.22994972382185e-15
vertex 15.8732196075815 9.71990333766861 4.0
vertex 14.6218644961533 9.78508239644111 4.0
endloop
endfacet
facet normal 0.0 0.0 -1.0
outer loop
vertex 6.0 10.5 0.0
vertex 10.666929333557 7.06506624581653 4.22994972382185e-15
vertex 6.0 -0.5 0.0
endloop
endfacet
facet normal 0.0 0.0 -1.0
outer loop
vertex 10.666929333557 7.06506624581653 4.22994972382185e-15
vertex 6.0 10.5 0.0
vertex 11.3490536099628 8.11618203208253 4.22994972382185e-15
endloop
endfacet
facet normal 0.0 0.0 -1.0
outer loop
vertex 11.3490536099628 8.11618203208253 4.22994972382185e-15
vertex 6.0 10.5 0.0
vertex 12.2799838493754 8.9549351625964 4.22994972382185e-15
endloop
endfacet
facet normal 0.0 0.0 -1.0
outer loop
vertex 12.2799838493754 8.9549351625964 4.22994972382185e-15
vertex 6.0 10.5 0.0
vertex 13.3962786944139 9.52416599761871 4.22994972382185e-15
endloop
endfacet
facet normal 0.0 0.0 -1.0
outer loop
vertex 13.3962786944139 9.52416599761871 4.22994972382185e-15
vertex 6.0 10.5 0.0
vertex 14.6218644961533 9.78508239644111 4.22994972382185e-15
endloop
endfacet
facet normal 0.0 0.0 -1.0
outer loop
vertex 14.6218644961533 9.78508239644111 4.22994972382185e-15
vertex 6.0 10.5 0.0
vertex 24.0 10.5 0.0
endloop
endfacet
facet normal 0.0 0.0 -1.0
outer loop
vertex 6.0 -0.5 0.0
vertex 10.666929333557 7.06506624581653 4.22994972382185e-15
vertex 10.2800966623314 5.87321960758146 4.22994972382185e-15
endloop
endfacet
facet normal 0.0 0.0 -1.0
outer loop
vertex 6.0 -0.5 0.0
vertex 10.2800966623314 5.87321960758146 4.22994972382185e-15
vertex 10.2149176035589 4.62186449615335 4.22994972382185e-15
endloop
endfacet
facet normal 0.0 0.0 -1.0
outer loop
vertex 14.6218644961533 9.78508239644111 4.22994972382185e-15
vertex 24.0 10.5 0.0
vertex 15.8732196075815 9.71990333766861 4.22994972382185e-15
endloop
endfacet
facet normal 0.0 0.0 -1.0
outer loop
vertex 15.8732196075815 9.71990333766861 4.22994972382185e-15
vertex 24.0 10.5 0.0
vertex 17.0650662458165 9.33307066644305 4.22994972382185e-15
endloop
endfacet
facet normal 0.0 0.0 -1.0
outer loop
vertex 17.0650662458165 9.33307066644305 4.22994972382185e-15
vertex 24.0 10.5 0.0
vertex 18.1161820320825 8.65094639003724 4.22994972382185e-15
endloop
endfacet
facet normal 0.0 0.0 -1.0
outer loop
vertex 18.1161820320825 8.65094639003724 4.22994972382185e-15
vertex 24.0 10.5 0.0
vertex 18.369637134246 8.36963713424602 4.22994972382185e-15
endloop
endfacet
facet normal 0.0 0.0 -1.0
outer loop
vertex 18.369637134246 8.36963713424602 4.22994972382185e-15
vertex 24.0 10.5 0.0
vertex 18.9549351625964 7.72001615062458 4.22994972382185e-15
endloop
endfacet
facet normal 0.0 0.0 -1.0
outer loop
vertex 18.9549351625964 7.72001615062458 4.22994972382185e-15
vertex 24.0 10.5 0.0
vertex 19.5241659976187 6.60372130558608 4.22994972382185e-15
endloop
endfacet
facet normal 0.0 0.0 -1.0
outer loop
vertex 19.5241659976187 6.60372130558608 4.22994972382185e-15
vertex 24.0 10.5 0.0
vertex 19.7850823964411 5.37813550384665 4.22994972382185e-15
endloop
endfacet
facet normal 0.0 0.0 -1.0
outer loop
vertex 6.0 -0.5 0.0
vertex 14.1267803924185 0.280096662331392 4.22994972382185e-15
vertex 24.0 -0.5 0.0
endloop
endfacet
facet normal 0.0 0.0 -1.0
outer loop
vertex 14.1267803924185 0.280096662331392 4.22994972382185e-15
vertex 6.0 -0.5 0.0
vertex 12.9349337541835 0.66692933355695 4.22994972382185e-15
endloop
endfacet
facet normal 0.0 0.0 -1.0
outer loop
vertex 12.9349337541835 0.66692933355695 4.22994972382185e-15
vertex 6.0 -0.5 0.0
vertex 11.8838179679175 1.34905360996276 4.22994972382185e-15
endloop
endfacet
facet normal 0.0 0.0 -1.0
outer loop
vertex 11.8838179679175 1.34905360996276 4.22994972382185e-15
vertex 6.0 -0.5 0.0
vertex 11.0450648374036 2.27998384937542 4.22994972382185e-15
endloop
endfacet
facet normal 0.0 0.0 -1.0
outer loop
vertex 11.0450648374036 2.27998384937542 4.22994972382185e-15
vertex 6.0 -0.5 0.0
vertex 10.4758340023813 3.39627869441392 4.22994972382185e-15
endloop
endfacet
facet normal 0.0 0.0 -1.0
outer loop
vertex 10.4758340023813 3.39627869441392 4.22994972382185e-15
vertex 6.0 -0.5 0.0
vertex 10.2149176035589 4.62186449615335 4.22994972382185e-15
endloop
endfacet
facet normal 0.0 0.0 -1.0
outer loop
vertex 11.8838179679175 1.34905360996276 4.22994972382185e-15
vertex 11.0450648374036 2.27998384937542 4.22994972382185e-15
vertex 11.630362865754 1.63036286575398 4.22994972382185e-15
endloop
endfacet
facet normal 0.0 0.0 -1.0
outer loop
vertex 24.0 -0.5 0.0
vertex 14.1267803924185 0.280096662331392 4.22994972382185e-15
vertex 15.3781355038466 0.214917603558885 4.22994972382185e-15
endloop
endfacet
facet normal 0.0 0.0 -1.0
outer loop
vertex 24.0 -0.5 0.0
vertex 15.3781355038466 0.214917603558885 4.22994972382185e-15
vertex 16.6037213055861 0.475834002381291 4.22994972382185e-15
endloop
endfacet
facet normal 0.0 0.0 -1.0
outer loop
vertex 24.0 -0.5 0.0
vertex 16.6037213055861 0.475834002381291 4.22994972382185e-15
vertex 17.7200161506246 1.0450648374036 4.22994972382185e-15
endloop
endfacet
facet normal 0.0 0.0 -1.0
outer loop
vertex 24.0 -0.5 0.0
vertex 17.7200161506246 1.0450648374036 4.22994972382185e-15
vertex 18.6509463900372 1.88381796791747 4.22994972382185e-15
endloop
endfacet
facet normal 0.0 0.0 -1.0
outer loop
vertex 24.0 -0.5 0.0
vertex 18.6509463900372 1.88381796791747 4.22994972382185e-15
vertex 19.333070666443 2.93493375418347 4.22994972382185e-15
endloop
endfacet
facet normal 0.0 0.0 -1.0
outer loop
vertex 24.0 -0.5 0.0
vertex 19.333070666443 2.93493375418347 4.22994972382185e-15
vertex 19.7199033376686 4.12678039241853 4.22994972382185e-15
endloop
endfacet
facet normal 0.0 0.0 -1.0
outer loop
vertex 24.0 -0.5 0.0
vertex 19.7199033376686 4.12678039241853 4.22994972382185e-15
vertex 19.7850823964411 5.37813550384665 4.22994972382185e-15
endloop
endfacet
facet normal 0.0 0.0 -1.0
outer loop
vertex 24.0 -0.5 0.0
vertex 19.7850823964411 5.37813550384665 4.22994972382185e-15
vertex 24.0 10.5 0.0
endloop
endfacet
facet normal -0.454275710029086 0.890861144779348 -5.23196418212015e-33
outer loop
vertex 16.6037213055861 0.475834002381291 4.0
vertex 17.7200161506246 1.0450648374036 4.22994972382185e-15
vertex 16.6037213055861 0.475834002381291 4.22994972382185e-15
endloop
endfacet
facet normal -0.454275710029086 0.890861144779348 -5.23196418212015e-33
outer loop
vertex 17.7200161506246 1.0450648374036 4.22994972382185e-15
vertex 16.6037213055861 0.475834002381291 4.0
vertex 17.7200161506246 1.0450648374036 4.0
endloop
endfacet
facet normal -0.20822480976217 0.978080992862814 -2.83167884871182e-33
outer loop
vertex 15.3781355038466 0.214917603558885 4.0
vertex 16.6037213055861 0.475834002381291 4.22994972382185e-15
vertex 15.3781355038466 0.214917603558885 4.22994972382185e-15
endloop
endfacet
facet normal -0.20822480976217 0.978080992862814 -2.83167884871182e-33
outer loop
vertex 16.6037213055861 0.475834002381291 4.22994972382185e-15
vertex 15.3781355038466 0.214917603558885 4.0
vertex 16.6037213055861 0.475834002381291 4.0
endloop
endfacet
facet normal -0.742930581896818 -0.669368471383628 -6.93852402155237e-33
outer loop
vertex 18.1161820320825 8.65094639003724 4.0
vertex 18.369637134246 8.36963713424602 4.22994972382185e-15
vertex 18.369637134246 8.36963713424602 4.0
endloop
endfacet
facet normal -0.742930581896818 -0.669368471383628 -6.93852402155237e-33
outer loop
vertex 18.369637134246 8.36963713424602 4.22994972382185e-15
vertex 18.1161820320825 8.65094639003724 4.0
vertex 18.1161820320825 8.65094639003724 4.22994972382185e-15
endloop
endfacet
facet normal 0.742930581896819 0.669368471383628 6.93852402155238e-33
outer loop
vertex 11.0450648374036 2.27998384937542 4.22994972382185e-15
vertex 11.630362865754 1.63036286575398 4.0
vertex 11.630362865754 1.63036286575398 4.22994972382185e-15
endloop
endfacet
facet normal 0.742930581896819 0.669368471383628 6.93852402155238e-33
outer loop
vertex 11.630362865754 1.63036286575398 4.0
vertex 11.0450648374036 2.27998384937542 4.22994972382185e-15
vertex 11.0450648374036 2.27998384937542 4.0
endloop
endfacet
facet normal -0.0 -0.0 1.0
outer loop
vertex 10.0 -0.5 4.0
vertex 6.0 10.5 4.0
vertex 6.0 -0.5 4.0
endloop
endfacet
facet normal -0.0 -0.0 1.0
outer loop
vertex 6.0 10.5 4.0
vertex 10.0 -0.5 4.0
vertex 10.0 0.0 4.0
endloop
endfacet
facet normal -0.0 -0.0 1.0
outer loop
vertex 6.0 10.5 4.0
vertex 10.0 0.0 4.0
vertex 10.0 10.5 4.0
endloop
endfacet
facet normal 0.454275710029087 -0.890861144779347 5.23196418212016e-33
outer loop
vertex 13.3962786944139 9.52416599761871 4.0
vertex 12.2799838493754 8.9549351625964 4.22994972382185e-15
vertex 13.3962786944139 9.52416599761871 4.22994972382185e-15
endloop
endfacet
facet normal 0.454275710029087 -0.890861144779347 5.23196418212016e-33
outer loop
vertex 12.2799838493754 8.9549351625964 4.22994972382185e-15
vertex 13.3962786944139 9.52416599761871 4.0
vertex 12.2799838493754 8.9549351625964 4.0
endloop
endfacet
facet normal -0.0 -0.0 1.0
outer loop
vertex 20.0 -0.5 4.0
vertex 10.0 0.0 4.0
vertex 10.0 -0.5 4.0
endloop
endfacet
facet normal -0.0 -0.0 1.0
outer loop
vertex 10.0 0.0 4.0
vertex 20.0 -0.5 4.0
vertex 14.1267803924185 0.280096662331392 4.0
endloop
endfacet
facet normal -0.0 -0.0 1.0
outer loop
vertex 10.0 0.0 4.0
vertex 14.1267803924185 0.280096662331392 4.0
vertex 12.9349337541835 0.66692933355695 4.0
endloop
endfacet
facet normal -0.0 -0.0 1.0
outer loop
vertex 10.0 0.0 4.0
vertex 12.9349337541835 0.66692933355695 4.0
vertex 11.8838179679175 1.34905360996276 4.0
endloop
endfacet
facet normal -0.0 -0.0 1.0
outer loop
vertex 10.0 0.0 4.0
vertex 11.8838179679175 1.34905360996276 4.0
vertex 11.630362865754 1.63036286575398 4.0
endloop
endfacet
facet normal -0.0 -0.0 1.0
outer loop
vertex 14.1267803924185 0.280096662331392 4.0
vertex 20.0 -0.5 4.0
vertex 15.3781355038466 0.214917603558885 4.0
endloop
endfacet
facet normal -0.0 -0.0 1.0
outer loop
vertex 15.3781355038466 0.214917603558885 4.0
vertex 20.0 -0.5 4.0
vertex 16.6037213055861 0.475834002381291 4.0
endloop
endfacet
facet normal -0.0 -0.0 1.0
outer loop
vertex 16.6037213055861 0.475834002381291 4.0
vertex 20.0 -0.5 4.0
vertex 17.7200161506246 1.0450648374036 4.0
endloop
endfacet
facet normal -0.0 -0.0 1.0
outer loop
vertex 17.7200161506246 1.0450648374036 4.0
vertex 20.0 -0.5 4.0
vertex 18.6509463900372 1.88381796791747 4.0
endloop
endfacet
facet normal -0.0 -0.0 1.0
outer loop
vertex 18.6509463900372 1.88381796791747 4.0
vertex 20.0 -0.5 4.0
vertex 19.333070666443 2.93493375418347 4.0
endloop
endfacet
facet normal -0.0 -0.0 1.0
outer loop
vertex 19.333070666443 2.93493375418347 4.0
vertex 20.0 -0.5 4.0
vertex 19.7199033376686 4.12678039241853 4.0
endloop
endfacet
facet normal -0.0 -0.0 1.0
outer loop
vertex 19.7199033376686 4.12678039241853 4.0
vertex 20.0 -0.5 4.0
vertex 19.7850823964411 5.37813550384665 4.0
endloop
endfacet
facet normal -0.0 -0.0 1.0
outer loop
vertex 18.9549351625964 7.72001615062458 4.0
vertex 20.0 10.0 4.0
vertex 18.369637134246 8.36963713424602 4.0
endloop
endfacet
facet normal -0.0 -0.0 1.0
outer loop
vertex 20.0 10.0 4.0
vertex 18.9549351625964 7.72001615062458 4.0
vertex 19.5241659976187 6.60372130558608 4.0
endloop
endfacet
facet normal -0.0 -0.0 1.0
outer loop
vertex 20.0 10.0 4.0
vertex 19.5241659976187 6.60372130558608 4.0
vertex 19.7850823964411 5.37813550384665 4.0
endloop
endfacet
facet normal -0.0 -0.0 1.0
outer loop
vertex 20.0 10.0 4.0
vertex 19.7850823964411 5.37813550384665 4.0
vertex 20.0 -0.5 4.0
endloop
endfacet
facet normal 0.0 1.0 0.0
outer loop
vertex 6.0 10.5 4.0
vertex 24.0 10.5 0.0
vertex 6.0 10.5 0.0
endloop
endfacet
facet normal 0.0 1.0 0.0
outer loop
vertex 24.0 10.5 0.0
vertex 6.0 10.5 4.0
vertex 24.0 10.5 4.0
endloop
endfacet
facet normal 0.0 1.0 0.0
outer loop
vertex 24.0 10.5 4.0
vertex 6.0 10.5 4.0
vertex 10.0 10.5 4.0
endloop
endfacet
facet normal 0.0 1.0 0.0
outer loop
vertex 24.0 10.5 4.0
vertex 10.0 10.5 4.0
vertex 20.0 10.5 4.0
endloop
endfacet
facet normal -0.742930581896818 -0.669368471383628 -6.93852402155237e-33
outer loop
vertex 18.369637134246 8.36963713424602 4.0
vertex 18.9549351625964 7.72001615062458 4.22994972382185e-15
vertex 18.9549351625964 7.72001615062458 4.0
endloop
endfacet
facet normal -0.742930581896818 -0.669368471383628 -6.93852402155237e-33
outer loop
vertex 18.9549351625964 7.72001615062458 4.22994972382185e-15
vertex 18.369637134246 8.36963713424602 4.0
vertex 18.369637134246 8.36963713424602 4.22994972382185e-15
endloop
endfacet
facet normal -0.544370527608858 -0.838844877597076 -4.81900987334504e-33
outer loop
vertex 18.1161820320825 8.65094639003724 4.0
vertex 17.0650662458165 9.33307066644305 4.22994972382185e-15
vertex 18.1161820320825 8.65094639003724 4.22994972382185e-15
endloop
endfacet
facet normal -0.544370527608858 -0.838844877597076 -4.81900987334504e-33
outer loop
vertex 17.0650662458165 9.33307066644305 4.22994972382185e-15
vertex 18.1161820320825 8.65094639003724 4.0
vertex 17.0650662458165 9.33307066644305 4.0
endloop
endfacet
facet normal 0.742930581896819 0.669368471383628 6.93852402155238e-33
outer loop
vertex 11.630362865754 1.63036286575398 4.22994972382185e-15
vertex 11.8838179679175 1.34905360996276 4.0
vertex 11.8838179679175 1.34905360996276 4.22994972382185e-15
endloop
endfacet
facet normal 0.742930581896819 0.669368471383628 6.93852402155238e-33
outer loop
vertex 11.8838179679175 1.34905360996276 4.0
vertex 11.630362865754 1.63036286575398 4.22994972382185e-15
vertex 11.630362865754 1.63036286575398 4.0
endloop
endfacet
facet normal -0.0 -0.0 1.0
outer loop
vertex 24.0 -0.5 4.0
vertex 20.0 10.0 4.0
vertex 20.0 -0.5 4.0
endloop
endfacet
facet normal -0.0 -0.0 1.0
outer loop
vertex 20.0 10.0 4.0
vertex 24.0 -0.5 4.0
vertex 20.0 10.5 4.0
endloop
endfacet
facet normal -0.0 -0.0 1.0
outer loop
vertex 20.0 10.5 4.0
vertex 24.0 -0.5 4.0
vertex 24.0 10.5 4.0
endloop
endfacet
facet normal 0.0520162671822721 0.998646237637945 -2.38419281334319e-34
outer loop
vertex 14.1267803924185 0.280096662331392 4.0
vertex 15.3781355038466 0.214917603558885 4.22994972382185e-15
vertex 14.1267803924185 0.280096662331392 4.22994972382185e-15
endloop
endfacet
facet normal 0.0520162671822721 0.998646237637945 -2.38419281334319e-34
outer loop
vertex 15.3781355038466 0.214917603558885 4.22994972382185e-15
vertex 14.1267803924185 0.280096662331392 4.0
vertex 15.3781355038466 0.214917603558885 4.0
endloop
endfacet
facet normal 0.669368471383628 -0.742930581896819 7.27569980274662e-33
outer loop
vertex 12.2799838493754 8.9549351625964 4.0
vertex 11.3490536099628 8.11618203208253 4.22994972382185e-15
vertex 12.2799838493754 8.9549351625964 4.22994972382185e-15
endloop
endfacet
facet normal 0.669368471383628 -0.742930581896819 7.27569980274662e-33
outer loop
vertex 11.3490536099628 8.11618203208253 4.22994972382185e-15
vertex 12.2799838493754 8.9549351625964 4.0
vertex 11.3490536099628 8.11618203208253 4.0
endloop
endfacet
facet normal 0.838844877597076 -0.544370527608858 8.82360850547834e-33
outer loop
vertex 11.3490536099628 8.11618203208253 4.22994972382185e-15
vertex 10.666929333557 7.06506624581653 4.0
vertex 10.666929333557 7.06506624581653 4.22994972382185e-15
endloop
endfacet
facet normal 0.838844877597076 -0.544370527608858 8.82360850547834e-33
outer loop
vertex 10.666929333557 7.06506624581653 4.0
vertex 11.3490536099628 8.11618203208253 4.22994972382185e-15
vertex 11.3490536099628 8.11618203208253 4.0
endloop
endfacet
facet normal 0.951155391658988 -0.308712521479186 9.77020287026419e-33
outer loop
vertex 10.666929333557 7.06506624581653 4.22994972382185e-15
vertex 10.2800966623314 5.87321960758146 4.0
vertex 10.2800966623314 5.87321960758146 4.22994972382185e-15
endloop
endfacet
facet normal 0.951155391658988 -0.308712521479186 9.77020287026419e-33
outer loop
vertex 10.2800966623314 5.87321960758146 4.0
vertex 10.666929333557 7.06506624581653 4.22994972382185e-15
vertex 10.666929333557 7.06506624581653 4.0
endloop
endfacet
facet normal 0.998646237637945 -0.0520162671822717 1.00509740554652e-32
outer loop
vertex 10.2800966623314 5.87321960758146 4.22994972382185e-15
vertex 10.2149176035589 4.62186449615335 4.0
vertex 10.2149176035589 4.62186449615335 4.22994972382185e-15
endloop
endfacet
facet normal 0.998646237637945 -0.0520162671822717 1.00509740554652e-32
outer loop
vertex 10.2149176035589 4.62186449615335 4.0
vertex 10.2800966623314 5.87321960758146 4.22994972382185e-15
vertex 10.2800966623314 5.87321960758146 4.0
endloop
endfacet
facet normal 0.978080992862814 0.20822480976217 9.64678796880623e-33
outer loop
vertex 10.2149176035589 4.62186449615335 4.22994972382185e-15
vertex 10.4758340023813 3.39627869441392 4.0
vertex 10.4758340023813 3.39627869441392 4.22994972382185e-15
endloop
endfacet
facet normal 0.978080992862814 0.20822480976217 9.64678796880623e-33
outer loop
vertex 10.4758340023813 3.39627869441392 4.0
vertex 10.2149176035589 4.62186449615335 4.22994972382185e-15
vertex 10.2149176035589 4.62186449615335 4.0
endloop
endfacet
facet normal 0.890861144779347 0.454275710029087 8.58518922414401e-33
outer loop
vertex 10.4758340023813 3.39627869441392 4.22994972382185e-15
vertex 11.0450648374036 2.27998384937542 4.0
vertex 11.0450648374036 2.27998384937542 4.22994972382185e-15
endloop
endfacet
facet normal 0.890861144779347 0.454275710029087 8.58518922414401e-33
outer loop
vertex 11.0450648374036 2.27998384937542 4.0
vertex 10.4758340023813 3.39627869441392 4.22994972382185e-15
vertex 10.4758340023813 3.39627869441392 4.0
endloop
endfacet
facet normal -0.838844877597076 0.544370527608859 -8.82360850547833e-33
outer loop
vertex 19.333070666443 2.93493375418347 4.0
vertex 18.6509463900372 1.88381796791747 4.22994972382185e-15
vertex 18.6509463900372 1.88381796791747 4.0
endloop
endfacet
facet normal -0.838844877597076 0.544370527608859 -8.82360850547833e-33
outer loop
vertex 18.6509463900372 1.88381796791747 4.22994972382185e-15
vertex 19.333070666443 2.93493375418347 4.0
vertex 19.333070666443 2.93493375418347 4.22994972382185e-15
endloop
endfacet
facet normal -0.0 -0.0 1.0
outer loop
vertex 10.0 0.0 4.0
vertex 10.2149176035589 4.62186449615335 4.0
vertex 10.0 10.5 4.0
endloop
endfacet
facet normal -0.0 -0.0 1.0
outer loop
vertex 10.2149176035589 4.62186449615335 4.0
vertex 10.0 0.0 4.0
vertex 10.4758340023813 3.39627869441392 4.0
endloop
endfacet
facet normal -0.0 -0.0 1.0
outer loop
vertex 10.4758340023813 3.39627869441392 4.0
vertex 10.0 0.0 4.0
vertex 11.0450648374036 2.27998384937542 4.0
endloop
endfacet
facet normal -0.0 -0.0 1.0
outer loop
vertex 11.0450648374036 2.27998384937542 4.0
vertex 10.0 0.0 4.0
vertex 11.630362865754 1.63036286575398 4.0
endloop
endfacet
facet normal -0.0 -0.0 1.0
outer loop
vertex 10.0 10.5 4.0
vertex 14.6218644961533 9.78508239644111 4.0
vertex 20.0 10.5 4.0
endloop
endfacet
facet normal -0.0 -0.0 1.0
outer loop
vertex 14.6218644961533 9.78508239644111 4.0
vertex 10.0 10.5 4.0
vertex 13.3962786944139 9.52416599761871 4.0
endloop
endfacet
facet normal -0.0 -0.0 1.0
outer loop
vertex 13.3962786944139 9.52416599761871 4.0
vertex 10.0 10.5 4.0
vertex 12.2799838493754 8.9549351625964 4.0
endloop
endfacet
facet normal -0.0 -0.0 1.0
outer loop
vertex 12.2799838493754 8.9549351625964 4.0
vertex 10.0 10.5 4.0
vertex 11.3490536099628 8.11618203208253 4.0
endloop
endfacet
facet normal -0.0 -0.0 1.0
outer loop
vertex 11.3490536099628 8.11618203208253 4.0
vertex 10.0 10.5 4.0
vertex 10.666929333557 7.06506624581653 4.0
endloop
endfacet
facet normal -0.0 -0.0 1.0
outer loop
vertex 10.666929333557 7.06506624581653 4.0
vertex 10.0 10.5 4.0
vertex 10.2800966623314 5.87321960758146 4.0
endloop
endfacet
facet normal -0.0 -0.0 1.0
outer loop
vertex 10.2800966623314 5.87321960758146 4.0
vertex 10.0 10.5 4.0
vertex 10.2149176035589 4.62186449615335 4.0
endloop
endfacet
facet normal -0.0 -0.0 1.0
outer loop
vertex 20.0 10.5 4.0
vertex 14.6218644961533 9.78508239644111 4.0
vertex 15.8732196075815 9.71990333766861 4.0
endloop
endfacet
facet normal -0.0 -0.0 1.0
outer loop
vertex 20.0 10.5 4.0
vertex 15.8732196075815 9.71990333766861 4.0
vertex 17.0650662458165 9.33307066644305 4.0
endloop
endfacet
facet normal -0.0 -0.0 1.0
outer loop
vertex 20.0 10.5 4.0
vertex 17.0650662458165 9.33307066644305 4.0
vertex 18.1161820320825 8.65094639003724 4.0
endloop
endfacet
facet normal -0.0 -0.0 1.0
outer loop
vertex 20.0 10.5 4.0
vertex 18.1161820320825 8.65094639003724 4.0
vertex 18.369637134246 8.36963713424602 4.0
endloop
endfacet
facet normal -0.0 -0.0 1.0
outer loop
vertex 20.0 10.5 4.0
vertex 18.369637134246 8.36963713424602 4.0
vertex 20.0 10.0 4.0
endloop
endfacet
facet normal -0.308712521479188 -0.951155391658988 -2.37108816605963e-33
outer loop
vertex 17.0650662458165 9.33307066644305 4.0
vertex 15.8732196075815 9.71990333766861 4.22994972382185e-15
vertex 17.0650662458165 9.33307066644305 4.22994972382185e-15
endloop
endfacet
facet normal -0.308712521479188 -0.951155391658988 -2.37108816605963e-33
outer loop
vertex 15.8732196075815 9.71990333766861 4.22994972382185e-15
vertex 17.0650662458165 9.33307066644305 4.0
vertex 15.8732196075815 9.71990333766861 4.0
endloop
endfacet
facet normal -0.0 -1.0 -0.0
outer loop
vertex 24.0 -0.5 4.0
vertex 6.0 -0.5 0.0
vertex 24.0 -0.5 0.0
endloop
endfacet
facet normal -0.0 -1.0 -0.0
outer loop
vertex 6.0 -0.5 0.0
vertex 24.0 -0.5 4.0
vertex 6.0 -0.5 4.0
endloop
endfacet
facet normal -0.0 -1.0 -0.0
outer loop
vertex 6.0 -0.5 4.0
vertex 24.0 -0.5 4.0
vertex 20.0 -0.5 4.0
endloop
endfacet
facet normal -0.0 -1.0 -0.0
outer loop
vertex 6.0 -0.5 4.0
vertex 20.0 -0.5 4.0
vertex 10.0 -0.5 4.0
endloop
endfacet
facet normal 0.308712521479186 0.951155391658988 2.3710881660596e-33
outer loop
vertex 12.9349337541835 0.66692933355695 4.0
vertex 14.1267803924185 0.280096662331392 4.22994972382185e-15
vertex 12.9349337541835 0.66692933355695 4.22994972382185e-15
endloop
endfacet
facet normal 0.308712521479186 0.951155391658988 2.3710881660596e-33
outer loop
vertex 14.1267803924185 0.280096662331392 4.22994972382185e-15
vertex 12.9349337541835 0.66692933355695 4.0
vertex 14.1267803924185 0.280096662331392 4.0
endloop
endfacet
facet normal 0.544370527608858 0.838844877597076 4.81900987334504e-33
outer loop
vertex 11.8838179679175 1.34905360996276 4.0
vertex 12.9349337541835 0.66692933355695 4.22994972382185e-15
vertex 11.8838179679175 1.34905360996276 4.22994972382185e-15
endloop
endfacet
facet normal 0.544370527608858 0.838844877597076 4.81900987334504e-33
outer loop
vertex 12.9349337541835 0.66692933355695 4.22994972382185e-15
vertex 11.8838179679175 1.34905360996276 4.0
vertex 12.9349337541835 0.66692933355695 4.0
endloop
endfacet
facet normal -0.951155391658988 0.308712521479185 -9.7702028702642e-33
outer loop
vertex 19.7199033376686 4.12678039241853 4.0
vertex 19.333070666443 2.93493375418347 4.22994972382185e-15
vertex 19.333070666443 2.93493375418347 4.0
endloop
endfacet
facet normal -0.951155391658988 0.308712521479185 -9.7702028702642e-33
outer loop
vertex 19.333070666443 2.93493375418347 4.22994972382185e-15
vertex 19.7199033376686 4.12678039241853 4.0
vertex 19.7199033376686 4.12678039241853 4.22994972382185e-15
endloop
endfacet
endsolid Extruder-inlet
