solid LCD box
facet normal -0.608761429008744 0.793353340291218 -0.0
outer loop
vertex 140.494633048182 176.185664077267 4.15945056175815e-14
vertex 140.82600389808 176.439933873424 -1.99999999999995
vertex 140.494633048182 176.185664077267 -1.99999999999995
endloop
endfacet
facet normal -0.608761429008744 0.793353340291218 -0.0
outer loop
vertex 140.82600389808 176.439933873424 -1.99999999999995
vertex 140.494633048182 176.185664077267 4.15945056175815e-14
vertex 140.82600389808 176.439933873424 4.15945056175815e-14
endloop
endfacet
facet normal 0.608761429008744 0.793353340291218 0.0
outer loop
vertex 138.563262198283 176.439933873424 4.15945056175815e-14
vertex 138.894633048182 176.185664077267 -1.99999999999995
vertex 138.563262198283 176.439933873424 -1.99999999999995
endloop
endfacet
facet normal 0.608761429008744 0.793353340291218 0.0
outer loop
vertex 138.894633048182 176.185664077267 -1.99999999999995
vertex 138.563262198283 176.439933873424 4.15945056175815e-14
vertex 138.894633048182 176.185664077267 4.15945056175815e-14
endloop
endfacet
facet normal -0.923879532511287 0.38268343236509 -0.0
outer loop
vertex 5.34011437024437 112.257194251158 4.51194637207664e-14
vertex 5.18027369423696 111.871304723322 -1.99999999999995
vertex 5.18027369423696 111.871304723322 4.51194637207664e-14
endloop
endfacet
facet normal -0.923879532511287 0.38268343236509 -0.0
outer loop
vertex 5.18027369423696 111.871304723322 -1.99999999999995
vertex 5.34011437024437 112.257194251158 4.51194637207664e-14
vertex 5.34011437024437 112.257194251158 -1.99999999999995
endloop
endfacet
facet normal 0.793353340291218 -0.608761429008744 -0.0
outer loop
vertex 138.563262198283 178.702675573221 -1.99999999999995
vertex 138.308992402127 178.371304723323 4.15945056175815e-14
vertex 138.308992402127 178.371304723323 -1.99999999999995
endloop
endfacet
facet normal 0.793353340291218 -0.608761429008744 -0.0
outer loop
vertex 138.308992402127 178.371304723323 4.15945056175815e-14
vertex 138.563262198283 178.702675573221 -1.99999999999995
vertex 138.563262198283 178.702675573221 4.15945056175815e-14
endloop
endfacet
facet normal -0.608761429008744 -0.793353340291218 -0.0
outer loop
vertex 140.82600389808 178.702675573221 4.15945056175815e-14
vertex 140.494633048182 178.956945369378 -1.99999999999995
vertex 140.82600389808 178.702675573221 -1.99999999999995
endloop
endfacet
facet normal -0.608761429008744 -0.793353340291218 -0.0
outer loop
vertex 140.494633048182 178.956945369378 -1.99999999999995
vertex 140.82600389808 178.702675573221 4.15945056175815e-14
vertex 140.494633048182 178.956945369378 4.15945056175815e-14
endloop
endfacet
