solid Ramps box
facet normal 0.0 -1.0 0.0
outer loop
vertex 5.71074960519049 -138.455726728943 2.0
vertex -15.4025781179081 -138.455726728943 0.0
vertex 5.71074960519049 -138.455726728943 0.0
endloop
endfacet
facet normal 0.0 -1.0 0.0
outer loop
vertex -15.4025781179081 -138.455726728943 0.0
vertex 5.71074960519049 -138.455726728943 2.0
vertex 1.59742188209192 -138.455726728943 2.0
endloop
endfacet
facet normal 0.0 -1.0 0.0
outer loop
vertex -15.4025781179081 -138.455726728943 0.0
vertex 1.59742188209192 -138.455726728943 2.0
vertex -15.4025781179081 -138.455726728943 37.0
endloop
endfacet
facet normal 0.0 -1.0 0.0
outer loop
vertex -15.4025781179081 -138.455726728943 37.0
vertex 1.59742188209192 -138.455726728943 2.0
vertex 1.59742188209192 -138.455726728943 51.5
endloop
endfacet
facet normal 0.0 -1.0 0.0
outer loop
vertex -15.4025781179081 -138.455726728943 37.0
vertex 1.59742188209192 -138.455726728943 51.5
vertex -15.4025781179081 -138.455726728943 48.0
endloop
endfacet
facet normal 0.0 -1.0 0.0
outer loop
vertex -15.4025781179081 -138.455726728943 48.0
vertex 1.59742188209192 -138.455726728943 51.5
vertex -13.4025781179081 -138.455726728943 51.5
endloop
endfacet
facet normal 0.0 -1.0 0.0
outer loop
vertex -15.4025781179081 -138.455726728943 48.0
vertex -13.4025781179081 -138.455726728943 51.5
vertex -15.4025781179081 -138.455726728943 53.5
endloop
endfacet
facet normal 0.0 -1.0 0.0
outer loop
vertex -15.4025781179081 -138.455726728943 53.5
vertex -13.4025781179081 -138.455726728943 51.5
vertex -13.4025781179081 -138.455726728943 53.5
endloop
endfacet
facet normal 0.0 -1.0 0.0
outer loop
vertex 9.22058700473836 -135.455726728943 2.0
vertex 5.71074960519049 -135.455726728943 0.0
vertex 9.22058700473836 -135.455726728943 0.0
endloop
endfacet
facet normal 0.0 -1.0 0.0
outer loop
vertex 5.71074960519049 -135.455726728943 0.0
vertex 9.22058700473836 -135.455726728943 2.0
vertex 5.71074960519049 -135.455726728943 2.0
endloop
endfacet
facet normal 0.907227481903874 -0.000172891291065879 0.420640304995798
outer loop
vertex 23.6216607351273 -116.020744876395 2.0
vertex 21.0696411040311 -128.455541624072 7.49920597889931
vertex 23.6196410201029 -128.455709156376 1.99942385102898
endloop
endfacet
facet normal 0.907227481903874 -0.000172891291065879 0.420640304995798
outer loop
vertex 21.0696411040311 -128.455541624072 7.49920597889931
vertex 23.6216607351273 -116.020744876395 2.0
vertex 21.0716608190555 -116.020577344092 7.49978212787032
endloop
endfacet
facet normal 1.0 0.0 2.46747067222941e-15
outer loop
vertex 5.71074960519049 -135.455726728943 0.0
vertex 5.71074960519049 -138.455726728943 2.0
vertex 5.71074960519049 -138.455726728943 0.0
endloop
endfacet
facet normal 1.0 0.0 2.46747067222941e-15
outer loop
vertex 5.71074960519049 -138.455726728943 2.0
vertex 5.71074960519049 -135.455726728943 0.0
vertex 5.71074960519049 -135.455726728943 2.0
endloop
endfacet
facet normal -0.987820628647785 0.155596933189233 -5.46967137028807e-17
outer loop
vertex 13.7607428459396 -106.028857978367 2.0
vertex 12.8581694176093 -111.758923687887 -1.05748743095546e-15
vertex 12.8581694176093 -111.758923687887 2.0
endloop
endfacet
facet normal -0.987820628647785 0.155596933189233 -5.46967137028807e-17
outer loop
vertex 12.8581694176093 -111.758923687887 -1.05748743095546e-15
vertex 13.7607428459396 -106.028857978367 2.0
vertex 13.7607428459396 -106.028857978367 -1.05748743095546e-15
endloop
endfacet
facet normal -0.99560971327043 0.0936018100336278 -5.46480537489481e-17
outer loop
vertex 14.3037002477878 -100.253610010642 2.0
vertex 13.7607428459396 -106.028857978367 -1.05748743095546e-15
vertex 13.7607428459396 -106.028857978367 2.0
endloop
endfacet
facet normal -0.99560971327043 0.0936018100336278 -5.46480537489481e-17
outer loop
vertex 13.7607428459396 -106.028857978367 -1.05748743095546e-15
vertex 14.3037002477878 -100.253610010642 2.0
vertex 14.3037002477878 -100.253610010642 -1.05748743095546e-15
endloop
endfacet
facet normal 0.0 0.608525866272628 -0.793534038385971
outer loop
vertex -13.4025781179081 -135.255315315665 50.3858780941999
vertex -15.4025781179081 -135.586761640234 50.1317066887856
vertex -15.4025781179081 -135.255315315665 50.3858780941999
endloop
endfacet
facet normal 0.0 0.608525866272628 -0.793534038385971
outer loop
vertex -15.4025781179081 -135.586761640234 50.1317066887856
vertex -13.4025781179081 -135.255315315665 50.3858780941999
vertex -13.4025781179081 -135.586761640234 50.1317066887856
endloop
endfacet
facet normal 0.98081752249957 0.194928159991844 -2.47441112605503e-18
outer loop
vertex 41.7131396340751 -111.698946708225 2.46747067222941e-15
vertex 42.8386863807099 -117.362345837104 2.0
vertex 42.8386863807099 -117.362345837104 2.46747067222941e-15
endloop
endfacet
facet normal 0.98081752249957 0.194928159991844 -2.47441112605503e-18
outer loop
vertex 42.8386863807099 -117.362345837104 2.0
vertex 41.7131396340751 -111.698946708225 2.46747067222941e-15
vertex 41.7131396340751 -111.698946708225 2.0
endloop
endfacet
facet normal -8.73805274098685e-17 -0.608761429008721 0.793353340291235
outer loop
vertex -13.4025781179081 -118.14293459806 4.35743741577958
vertex -15.4025781179081 -116.817451198466 5.37451660040608
vertex -15.4025781179081 -118.14293459806 4.35743741577958
endloop
endfacet
facet normal -8.73805274098685e-17 -0.608761429008721 0.793353340291235
outer loop
vertex -15.4025781179081 -116.817451198466 5.37451660040608
vertex -13.4025781179081 -118.14293459806 4.35743741577958
vertex -13.4025781179081 -116.817451198466 5.37451660040608
endloop
endfacet
facet normal 0.130526192220063 0.991444861373809 -0.0
outer loop
vertex 125.683311409928 -137.501208051006 2.0
vertex 126.097421882092 -137.555726728943 7.04991620636974e-16
vertex 125.683311409928 -137.501208051006 7.04991620636974e-16
endloop
endfacet
facet normal 0.130526192220063 0.991444861373809 -0.0
outer loop
vertex 126.097421882092 -137.555726728943 7.04991620636974e-16
vertex 125.683311409928 -137.501208051006 2.0
vertex 126.097421882092 -137.555726728943 2.0
endloop
endfacet
facet normal 0.0 0.0 1.0
outer loop
vertex -13.4025781179081 -138.455726728943 53.5
vertex -15.4025781179081 -134.455726728943 53.5
vertex -15.4025781179081 -138.455726728943 53.5
endloop
endfacet
facet normal 0.0 0.0 1.0
outer loop
vertex -15.4025781179081 -134.455726728943 53.5
vertex -13.4025781179081 -138.455726728943 53.5
vertex -15.4025781179081 -50.455726728943 53.5
endloop
endfacet
facet normal 0.0 0.0 1.0
outer loop
vertex -15.4025781179081 -50.455726728943 53.5
vertex -13.4025781179081 -138.455726728943 53.5
vertex -13.4025781179081 -52.455726728943 53.5
endloop
endfacet
facet normal 0.0 0.0 1.0
outer loop
vertex -13.4025781179081 -52.455726728943 53.5
vertex -13.4025781179081 -138.455726728943 53.5
vertex -13.4025781179081 -136.455726728943 53.5
endloop
endfacet
facet normal 0.0 0.0 1.0
outer loop
vertex -13.4025781179081 -50.455726728943 53.5
vertex -15.4025781179081 -50.455726728943 53.5
vertex -13.4025781179081 -52.455726728943 53.5
endloop
endfacet
facet normal 0.923879532511298 0.382683432365064 -0.0
outer loop
vertex 124.551940560029 -136.369837201107 7.04991620636974e-16
vertex 124.711781236037 -136.755726728943 2.0
vertex 124.711781236037 -136.755726728943 7.04991620636974e-16
endloop
endfacet
facet normal 0.923879532511298 0.382683432365064 -0.0
outer loop
vertex 124.711781236037 -136.755726728943 2.0
vertex 124.551940560029 -136.369837201107 7.04991620636974e-16
vertex 124.551940560029 -136.369837201107 2.0
endloop
endfacet
facet normal 0.382683432365064 -0.923879532511298 0.0
outer loop
vertex 125.683311409928 -134.410245406881 2.0
vertex 125.297421882092 -134.570086082888 7.04991620636974e-16
vertex 125.683311409928 -134.410245406881 7.04991620636974e-16
endloop
endfacet
facet normal 0.382683432365064 -0.923879532511298 0.0
outer loop
vertex 125.297421882092 -134.570086082888 7.04991620636974e-16
vertex 125.683311409928 -134.410245406881 2.0
vertex 125.297421882092 -134.570086082888 2.0
endloop
endfacet
facet normal 0.130526192220063 -0.991444861373809 0.0
outer loop
vertex 126.097421882092 -134.355726728943 2.0
vertex 125.683311409928 -134.410245406881 7.04991620636974e-16
vertex 126.097421882092 -134.355726728943 7.04991620636974e-16
endloop
endfacet
facet normal 0.130526192220063 -0.991444861373809 0.0
outer loop
vertex 125.683311409928 -134.410245406881 7.04991620636974e-16
vertex 126.097421882092 -134.355726728943 2.0
vertex 125.683311409928 -134.410245406881 2.0
endloop
endfacet
facet normal -0.0 0.923765878245003 -0.382957702873618
outer loop
vertex -15.4025781179081 -135.841129804721 49.8004113427643
vertex -13.4025781179081 -136.00108503908 49.4145692864759
vertex -15.4025781179081 -136.00108503908 49.4145692864759
endloop
endfacet
facet normal -0.0 0.923765878245003 -0.382957702873618
outer loop
vertex -13.4025781179081 -136.00108503908 49.4145692864759
vertex -15.4025781179081 -135.841129804721 49.8004113427643
vertex -13.4025781179081 -135.841129804721 49.8004113427643
endloop
endfacet
facet normal 4.43141231796377e-17 -0.923879532511283 -0.382683432365098
outer loop
vertex -13.4025781179081 -115.800372013839 13.1
vertex -15.4025781179081 -115.16100930981 11.5564418886561
vertex -13.4025781179081 -115.16100930981 11.5564418886561
endloop
endfacet
facet normal 4.43141231796377e-17 -0.923879532511283 -0.382683432365098
outer loop
vertex -15.4025781179081 -115.16100930981 11.5564418886561
vertex -13.4025781179081 -115.800372013839 13.1
vertex -15.4025781179081 -115.800372013839 13.1
endloop
endfacet
facet normal 4.60835677837432e-17 1.14692233559059e-17 1.0
outer loop
vertex 99.3224218820919 -128.455726728943 2.0
vertex 94.8315459249576 -122.993897020916 2.0
vertex 92.8786718820919 -128.455726728943 2.0
endloop
endfacet
facet normal 4.60835677837432e-17 1.14692233559059e-17 1.0
outer loop
vertex 94.8315459249576 -122.993897020916 2.0
vertex 99.3224218820919 -128.455726728943 2.0
vertex 96.4398352365208 -117.420863172364 2.0
endloop
endfacet
facet normal 4.60835677837432e-17 1.14692233559059e-17 1.0
outer loop
vertex 96.4398352365208 -117.420863172364 2.0
vertex 99.3224218820919 -128.455726728943 2.0
vertex 97.6972728266845 -111.758341517339 2.0
endloop
endfacet
facet normal 4.60835677837432e-17 1.14692233559059e-17 1.0
outer loop
vertex 97.6972728266845 -111.758341517339 2.0
vertex 99.3224218820919 -128.455726728943 2.0
vertex 98.5989588625217 -106.028397095308 2.0
endloop
endfacet
facet normal 4.60835677837432e-17 1.14692233559059e-17 1.0
outer loop
vertex 98.5989588625217 -106.028397095308 2.0
vertex 99.3224218820919 -128.455726728943 2.0
vertex 99.1413797613599 -100.253357670742 2.0
endloop
endfacet
facet normal 4.60835677837432e-17 1.14692233559059e-17 1.0
outer loop
vertex 99.1413797613599 -100.253357670742 2.0
vertex 99.3224218820919 -128.455726728943 2.0
vertex 99.3224218820919 -94.4557267289431 2.0
endloop
endfacet
facet normal 1.58981038681323e-29 -0.991444861373811 0.130526192220049
outer loop
vertex -13.4025781179081 -114.94293459806 9.89999999999999
vertex -15.4025781179081 -115.16100930981 8.24355811134386
vertex -13.4025781179081 -115.16100930981 8.24355811134386
endloop
endfacet
facet normal 1.58981038681323e-29 -0.991444861373811 0.130526192220049
outer loop
vertex -15.4025781179081 -115.16100930981 8.24355811134386
vertex -13.4025781179081 -114.94293459806 9.89999999999999
vertex -15.4025781179081 -114.94293459806 9.89999999999999
endloop
endfacet
facet normal 0.923879532511298 0.382683432365064 -0.0
outer loop
vertex 124.551940560029 -53.3698372011071 7.04991620636974e-16
vertex 124.711781236037 -53.755726728943 2.0
vertex 124.711781236037 -53.755726728943 7.04991620636974e-16
endloop
endfacet
facet normal 0.923879532511298 0.382683432365064 -0.0
outer loop
vertex 124.711781236037 -53.755726728943 2.0
vertex 124.551940560029 -53.3698372011071 7.04991620636974e-16
vertex 124.551940560029 -53.3698372011071 2.0
endloop
endfacet
facet normal 0.991444861373809 0.130526192220063 -0.0
outer loop
vertex 124.497421882092 -52.955726728943 7.04991620636974e-16
vertex 124.551940560029 -53.3698372011071 2.0
vertex 124.551940560029 -53.3698372011071 7.04991620636974e-16
endloop
endfacet
facet normal 0.991444861373809 0.130526192220063 -0.0
outer loop
vertex 124.551940560029 -53.3698372011071 2.0
vertex 124.497421882092 -52.955726728943 7.04991620636974e-16
vertex 124.497421882092 -52.955726728943 2.0
endloop
endfacet
facet normal 1.0748045642894e-17 0.793353340291235 -0.608761429008721
outer loop
vertex -15.4025781179081 -125.868417997654 14.4254833995939
vertex -13.4025781179081 -126.88549718228 13.1
vertex -15.4025781179081 -126.88549718228 13.1
endloop
endfacet
facet normal 1.0748045642894e-17 0.793353340291235 -0.608761429008721
outer loop
vertex -13.4025781179081 -126.88549718228 13.1
vertex -15.4025781179081 -125.868417997654 14.4254833995939
vertex -13.4025781179081 -125.868417997654 14.4254833995939
endloop
endfacet
facet normal -1.0 0.0 0.0
outer loop
vertex -15.4025781179081 -134.455726728943 53.5
vertex -15.4025781179081 -138.455726728943 48.0
vertex -15.4025781179081 -138.455726728943 53.5
endloop
endfacet
facet normal -1.0 0.0 0.0
outer loop
vertex -15.4025781179081 -138.455726728943 48.0
vertex -15.4025781179081 -134.455726728943 53.5
vertex -15.4025781179081 -136.00108503908 49.4145692864759
endloop
endfacet
facet normal -1.0 0.0 0.0
outer loop
vertex -15.4025781179081 -138.455726728943 48.0
vertex -15.4025781179081 -136.00108503908 49.4145692864759
vertex -15.4025781179081 -136.05572665843 49.0004750184223
endloop
endfacet
facet normal -1.0 0.0 0.0
outer loop
vertex -15.4025781179081 -136.00108503908 49.4145692864759
vertex -15.4025781179081 -134.455726728943 53.5
vertex -15.4025781179081 -135.841129804721 49.8004113427643
endloop
endfacet
facet normal -1.0 0.0 0.0
outer loop
vertex -15.4025781179081 -135.841129804721 49.8004113427643
vertex -15.4025781179081 -134.455726728943 53.5
vertex -15.4025781179081 -135.586761640234 50.1317066887856
endloop
endfacet
facet normal -1.0 0.0 0.0
outer loop
vertex -15.4025781179081 -135.586761640234 50.1317066887856
vertex -15.4025781179081 -134.455726728943 53.5
vertex -15.4025781179081 -135.255315315665 50.3858780941999
endloop
endfacet
facet normal -1.0 0.0 0.0
outer loop
vertex -15.4025781179081 -135.255315315665 50.3858780941999
vertex -15.4025781179081 -134.455726728943 53.5
vertex -15.4025781179081 -134.869378350295 50.5456041977664
endloop
endfacet
facet normal -1.0 0.0 0.0
outer loop
vertex -15.4025781179081 -134.869378350295 50.5456041977664
vertex -15.4025781179081 -134.455726728943 53.5
vertex -15.4025781179081 -134.455251710521 50.5999999294867
endloop
endfacet
facet normal -5.3495189100561e-18 -4.56336930134269e-17 -1.0
outer loop
vertex -15.4025781179081 -50.455726728943 0.0
vertex 6.08018425325544 -65.9171635940318 -1.05748743095546e-15
vertex -15.4025781179081 -138.455726728943 0.0
endloop
endfacet
facet normal -5.3495189100561e-18 -4.56336930134269e-17 -1.0
outer loop
vertex 6.08018425325544 -65.9171635940318 -1.05748743095546e-15
vertex -15.4025781179081 -50.455726728943 0.0
vertex 8.03492188209189 -60.4557267289431 -1.05748743095546e-15
endloop
endfacet
facet normal -5.3495189100561e-18 -4.56336930134269e-17 -1.0
outer loop
vertex 8.03492188209189 -60.4557267289431 -1.05748743095546e-15
vertex -15.4025781179081 -50.455726728943 0.0
vertex 53.1474218820919 -50.455726728943 1.12798659301916e-15
endloop
endfacet
facet normal -5.3495189100561e-18 -4.56336930134269e-17 -1.0
outer loop
vertex -15.4025781179081 -138.455726728943 0.0
vertex 6.08018425325544 -65.9171635940318 -1.05748743095546e-15
vertex 4.4703400959342 -71.4900168684397 -1.05748743095546e-15
endloop
endfacet
facet normal -5.3495189100561e-18 -4.56336930134269e-17 -1.0
outer loop
vertex -15.4025781179081 -138.455726728943 0.0
vertex 4.4703400959342 -71.4900168684397 -1.05748743095546e-15
vertex 3.21167434657449 -77.1525297699993 -1.05748743095546e-15
endloop
endfacet
facet normal -5.3495189100561e-18 -4.56336930134269e-17 -1.0
outer loop
vertex -15.4025781179081 -138.455726728943 0.0
vertex 3.21167434657449 -77.1525297699993 -1.05748743095546e-15
vertex 2.30910091824418 -82.8825954795189 -1.05748743095546e-15
endloop
endfacet
facet normal -5.3495189100561e-18 -4.56336930134269e-17 -1.0
outer loop
vertex -15.4025781179081 -138.455726728943 0.0
vertex 2.30910091824418 -82.8825954795189 -1.05748743095546e-15
vertex 1.766143516396 -88.6578434472444 -1.05748743095546e-15
endloop
endfacet
facet normal -5.3495189100561e-18 -4.56336930134269e-17 -1.0
outer loop
vertex -15.4025781179081 -138.455726728943 0.0
vertex 1.766143516396 -88.6578434472444 -1.05748743095546e-15
vertex 1.58492188209189 -94.455726728943 -1.05748743095546e-15
endloop
endfacet
facet normal -5.3495189100561e-18 -4.56336930134269e-17 -1.0
outer loop
vertex 8.03492188209189 -60.4557267289431 -1.05748743095546e-15
vertex 53.1474218820919 -50.455726728943 1.12798659301916e-15
vertex 9.98965951092838 -65.9171635940319 -1.05748743095546e-15
endloop
endfacet
facet normal -5.3495189100561e-18 -4.56336930134269e-17 -1.0
outer loop
vertex 9.98965951092838 -65.9171635940319 -1.05748743095546e-15
vertex 53.1474218820919 -50.455726728943 1.12798659301916e-15
vertex 11.5995036682496 -71.4900168684398 -1.05748743095546e-15
endloop
endfacet
facet normal -5.3495189100561e-18 -4.56336930134269e-17 -1.0
outer loop
vertex 11.5995036682496 -71.4900168684398 -1.05748743095546e-15
vertex 53.1474218820919 -50.455726728943 1.12798659301916e-15
vertex 12.8581694176093 -77.1525297699993 -1.05748743095546e-15
endloop
endfacet
facet normal -5.3495189100561e-18 -4.56336930134269e-17 -1.0
outer loop
vertex 12.8581694176093 -77.1525297699993 -1.05748743095546e-15
vertex 53.1474218820919 -50.455726728943 1.12798659301916e-15
vertex 13.7607428459396 -82.8825954795189 -1.05748743095546e-15
endloop
endfacet
facet normal -5.3495189100561e-18 -4.56336930134269e-17 -1.0
outer loop
vertex 13.7607428459396 -82.8825954795189 -1.05748743095546e-15
vertex 53.1474218820919 -50.455726728943 1.12798659301916e-15
vertex 14.3037002477878 -88.6578434472444 -1.05748743095546e-15
endloop
endfacet
facet normal -5.3495189100561e-18 -4.56336930134269e-17 -1.0
outer loop
vertex 14.3037002477878 -88.6578434472444 -1.05748743095546e-15
vertex 53.1474218820919 -50.455726728943 1.12798659301916e-15
vertex 14.4849218820919 -94.455726728943 -1.05748743095546e-15
endloop
endfacet
facet normal -5.3495189100561e-18 -4.56336930134269e-17 -1.0
outer loop
vertex 14.4849218820919 -94.455726728943 -1.05748743095546e-15
vertex 53.1474218820919 -50.455726728943 1.12798659301916e-15
vertex 46.0317968820919 -60.455726728943 2.46747067222941e-15
endloop
endfacet
facet normal -5.3495189100561e-18 -4.56336930134269e-17 -1.0
outer loop
vertex 14.4849218820919 -94.455726728943 -1.05748743095546e-15
vertex 46.0317968820919 -60.455726728943 2.46747067222941e-15
vertex 44.2797476237562 -65.9576598954046 2.46747067222941e-15
endloop
endfacet
facet normal -5.3495189100561e-18 -4.56336930134269e-17 -1.0
outer loop
vertex 14.4849218820919 -94.455726728943 -1.05748743095546e-15
vertex 44.2797476237562 -65.9576598954046 2.46747067222941e-15
vertex 42.8386863807099 -71.5491076207825 2.46747067222941e-15
endloop
endfacet
facet normal -5.3495189100561e-18 -4.56336930134269e-17 -1.0
outer loop
vertex 14.4849218820919 -94.455726728943 -1.05748743095546e-15
vertex 42.8386863807099 -71.5491076207825 2.46747067222941e-15
vertex 41.7131396340751 -77.2125067496611 2.46747067222941e-15
endloop
endfacet
facet normal -5.3495189100561e-18 -4.56336930134269e-17 -1.0
outer loop
vertex 14.4849218820919 -94.455726728943 -1.05748743095546e-15
vertex 41.7131396340751 -77.2125067496611 2.46747067222941e-15
vertex 40.9066428103478 -82.9300681218864 2.46747067222941e-15
endloop
endfacet
facet normal -5.3495189100561e-18 -4.56336930134269e-17 -1.0
outer loop
vertex 14.4849218820919 -94.455726728943 -1.05748743095546e-15
vertex 40.9066428103478 -82.9300681218864 2.46747067222941e-15
vertex 40.4217291763586 -88.6838324496474 2.46747067222941e-15
endloop
endfacet
facet normal -5.3495189100561e-18 -4.56336930134269e-17 -1.0
outer loop
vertex 14.4849218820919 -94.455726728943 -1.05748743095546e-15
vertex 40.4217291763586 -88.6838324496474 2.46747067222941e-15
vertex 40.2599218820919 -94.455726728943 2.46747067222941e-15
endloop
endfacet
facet normal -5.3495189100561e-18 -4.56336930134269e-17 -1.0
outer loop
vertex 46.0317968820919 -60.455726728943 2.46747067222941e-15
vertex 53.1474218820919 -50.455726728943 1.12798659301916e-15
vertex 47.7838461404276 -65.9576598954046 2.46747067222941e-15
endloop
endfacet
facet normal -5.3495189100561e-18 -4.56336930134269e-17 -1.0
outer loop
vertex 47.7838461404276 -65.9576598954046 2.46747067222941e-15
vertex 53.1474218820919 -50.455726728943 1.12798659301916e-15
vertex 49.2249073834739 -71.5491076207824 2.46747067222941e-15
endloop
endfacet
facet normal -5.3495189100561e-18 -4.56336930134269e-17 -1.0
outer loop
vertex 49.2249073834739 -71.5491076207824 2.46747067222941e-15
vertex 53.1474218820919 -50.455726728943 1.12798659301916e-15
vertex 50.3504541301087 -77.2125067496611 2.46747067222941e-15
endloop
endfacet
facet normal -5.3495189100561e-18 -4.56336930134269e-17 -1.0
outer loop
vertex 50.3504541301087 -77.2125067496611 2.46747067222941e-15
vertex 53.1474218820919 -50.455726728943 1.12798659301916e-15
vertex 51.1569509538359 -82.9300681218863 2.46747067222941e-15
endloop
endfacet
facet normal -5.3495189100561e-18 -4.56336930134269e-17 -1.0
outer loop
vertex 51.1569509538359 -82.9300681218863 2.46747067222941e-15
vertex 53.1474218820919 -50.455726728943 1.12798659301916e-15
vertex 51.6418645878252 -88.6838324496474 2.46747067222941e-15
endloop
endfacet
facet normal -5.3495189100561e-18 -4.56336930134269e-17 -1.0
outer loop
vertex 51.6418645878252 -88.6838324496474 2.46747067222941e-15
vertex 53.1474218820919 -50.455726728943 1.12798659301916e-15
vertex 51.8036718820919 -94.455726728943 2.46747067222941e-15
endloop
endfacet
facet normal -5.3495189100561e-18 -4.56336930134269e-17 -1.0
outer loop
vertex 128.897421882092 -50.455726728943 0.0
vertex 73.5474218820919 -51.455726728943 -3.94795307556706e-15
vertex 73.5474218820919 -50.455726728943 -1.12798659301916e-15
endloop
endfacet
facet normal -5.3495189100561e-18 -4.56336930134269e-17 -1.0
outer loop
vertex 73.5474218820919 -51.455726728943 -3.94795307556706e-15
vertex 128.897421882092 -50.455726728943 0.0
vertex 92.8786718820919 -60.4557267289431 0.0
endloop
endfacet
facet normal -5.3495189100561e-18 -4.56336930134269e-17 -1.0
outer loop
vertex 73.5474218820919 -51.455726728943 -3.94795307556706e-15
vertex 92.8786718820919 -60.4557267289431 0.0
vertex 74.244450953836 -82.9300681218864 2.11497486191092e-15
endloop
endfacet
facet normal -5.3495189100561e-18 -4.56336930134269e-17 -1.0
outer loop
vertex 74.244450953836 -82.9300681218864 2.11497486191092e-15
vertex 92.8786718820919 -60.4557267289431 0.0
vertex 74.7293645878252 -88.6838324496474 2.11497486191092e-15
endloop
endfacet
facet normal -5.3495189100561e-18 -4.56336930134269e-17 -1.0
outer loop
vertex 74.7293645878252 -88.6838324496474 2.11497486191092e-15
vertex 92.8786718820919 -60.4557267289431 0.0
vertex 74.8911718820919 -94.455726728943 2.11497486191092e-15
endloop
endfacet
facet normal -5.3495189100561e-18 -4.56336930134269e-17 -1.0
outer loop
vertex 74.8911718820919 -94.455726728943 2.11497486191092e-15
vertex 92.8786718820919 -60.4557267289431 0.0
vertex 90.9257978392262 -65.9175564369703 0.0
endloop
endfacet
facet normal -5.3495189100561e-18 -4.56336930134269e-17 -1.0
outer loop
vertex 74.8911718820919 -94.455726728943 2.11497486191092e-15
vertex 90.9257978392262 -65.9175564369703 0.0
vertex 89.317508527663 -71.4905902855216 0.0
endloop
endfacet
facet normal -5.3495189100561e-18 -4.56336930134269e-17 -1.0
outer loop
vertex 74.8911718820919 -94.455726728943 2.11497486191092e-15
vertex 89.317508527663 -71.4905902855216 0.0
vertex 88.0600709374992 -77.1531119405469 0.0
endloop
endfacet
facet normal -5.3495189100561e-18 -4.56336930134269e-17 -1.0
outer loop
vertex 74.8911718820919 -94.455726728943 2.11497486191092e-15
vertex 88.0600709374992 -77.1531119405469 0.0
vertex 87.1583849016621 -82.8830563625779 0.0
endloop
endfacet
facet normal -5.3495189100561e-18 -4.56336930134269e-17 -1.0
outer loop
vertex 74.8911718820919 -94.455726728943 2.11497486191092e-15
vertex 87.1583849016621 -82.8830563625779 0.0
vertex 86.6159640028238 -88.6580957871438 0.0
endloop
endfacet
facet normal -5.3495189100561e-18 -4.56336930134269e-17 -1.0
outer loop
vertex 74.8911718820919 -94.455726728943 2.11497486191092e-15
vertex 86.6159640028238 -88.6580957871438 0.0
vertex 86.4349218820919 -94.455726728943 0.0
endloop
endfacet
facet normal -5.3495189100561e-18 -4.56336930134269e-17 -1.0
outer loop
vertex 92.8786718820919 -60.4557267289431 0.0
vertex 128.897421882092 -50.455726728943 0.0
vertex 125.683311409928 -51.4102454068805 7.04991620636974e-16
endloop
endfacet
facet normal -5.3495189100561e-18 -4.56336930134269e-17 -1.0
outer loop
vertex 92.8786718820919 -60.4557267289431 0.0
vertex 125.683311409928 -51.4102454068805 7.04991620636974e-16
vertex 125.297421882092 -51.5700860828879 7.04991620636974e-16
endloop
endfacet
facet normal -5.3495189100561e-18 -4.56336930134269e-17 -1.0
outer loop
vertex 92.8786718820919 -60.4557267289431 0.0
vertex 125.297421882092 -51.5700860828879 7.04991620636974e-16
vertex 94.8315459249576 -65.9175564369703 0.0
endloop
endfacet
facet normal -5.3495189100561e-18 -4.56336930134269e-17 -1.0
outer loop
vertex 94.8315459249576 -65.9175564369703 0.0
vertex 125.297421882092 -51.5700860828879 7.04991620636974e-16
vertex 96.4398352365208 -71.4905902855217 0.0
endloop
endfacet
facet normal -5.3495189100561e-18 -4.56336930134269e-17 -1.0
outer loop
vertex 96.4398352365208 -71.4905902855217 0.0
vertex 125.297421882092 -51.5700860828879 7.04991620636974e-16
vertex 124.966051032193 -51.8243558790446 7.04991620636974e-16
endloop
endfacet
facet normal -5.3495189100561e-18 -4.56336930134269e-17 -1.0
outer loop
vertex 96.4398352365208 -71.4905902855217 0.0
vertex 124.966051032193 -51.8243558790446 7.04991620636974e-16
vertex 97.6972728266845 -77.1531119405469 0.0
endloop
endfacet
facet normal -5.3495189100561e-18 -4.56336930134269e-17 -1.0
outer loop
vertex 97.6972728266845 -77.1531119405469 0.0
vertex 124.966051032193 -51.8243558790446 7.04991620636974e-16
vertex 98.5989588625217 -82.8830563625779 0.0
endloop
endfacet
facet normal -5.3495189100561e-18 -4.56336930134269e-17 -1.0
outer loop
vertex 98.5989588625217 -82.8830563625779 0.0
vertex 124.966051032193 -51.8243558790446 7.04991620636974e-16
vertex 124.711781236037 -52.155726728943 7.04991620636974e-16
endloop
endfacet
facet normal -5.3495189100561e-18 -4.56336930134269e-17 -1.0
outer loop
vertex 98.5989588625217 -82.8830563625779 0.0
vertex 124.711781236037 -52.155726728943 7.04991620636974e-16
vertex 99.1413797613599 -88.6580957871438 0.0
endloop
endfacet
facet normal -5.3495189100561e-18 -4.56336930134269e-17 -1.0
outer loop
vertex 99.1413797613599 -88.6580957871438 0.0
vertex 124.711781236037 -52.155726728943 7.04991620636974e-16
vertex 99.3224218820919 -94.4557267289431 0.0
endloop
endfacet
facet normal -5.3495189100561e-18 -4.56336930134269e-17 -1.0
outer loop
vertex 99.3224218820919 -94.4557267289431 0.0
vertex 124.711781236037 -52.155726728943 7.04991620636974e-16
vertex 124.551940560029 -52.541616256779 7.04991620636974e-16
endloop
endfacet
facet normal -5.3495189100561e-18 -4.56336930134269e-17 -1.0
outer loop
vertex 99.3224218820919 -94.4557267289431 0.0
vertex 124.551940560029 -52.541616256779 7.04991620636974e-16
vertex 124.497421882092 -52.955726728943 7.04991620636974e-16
endloop
endfacet
facet normal -5.3495189100561e-18 -4.56336930134269e-17 -1.0
outer loop
vertex 125.683311409928 -51.4102454068805 7.04991620636974e-16
vertex 128.897421882092 -50.455726728943 0.0
vertex 126.097421882092 -51.355726728943 7.04991620636974e-16
endloop
endfacet
facet normal -5.3495189100561e-18 -4.56336930134269e-17 -1.0
outer loop
vertex 126.097421882092 -51.355726728943 7.04991620636974e-16
vertex 128.897421882092 -50.455726728943 0.0
vertex 126.511532354256 -51.4102454068805 7.04991620636974e-16
endloop
endfacet
facet normal -5.3495189100561e-18 -4.56336930134269e-17 -1.0
outer loop
vertex 126.511532354256 -51.4102454068805 7.04991620636974e-16
vertex 128.897421882092 -50.455726728943 0.0
vertex 126.897421882092 -51.5700860828879 7.04991620636974e-16
endloop
endfacet
facet normal -5.3495189100561e-18 -4.56336930134269e-17 -1.0
outer loop
vertex 126.897421882092 -51.5700860828879 7.04991620636974e-16
vertex 128.897421882092 -50.455726728943 0.0
vertex 127.22879273199 -51.8243558790446 7.04991620636974e-16
endloop
endfacet
facet normal -5.3495189100561e-18 -4.56336930134269e-17 -1.0
outer loop
vertex 127.22879273199 -51.8243558790446 7.04991620636974e-16
vertex 128.897421882092 -50.455726728943 0.0
vertex 127.483062528147 -52.155726728943 7.04991620636974e-16
endloop
endfacet
facet normal -5.3495189100561e-18 -4.56336930134269e-17 -1.0
outer loop
vertex 127.483062528147 -52.155726728943 7.04991620636974e-16
vertex 128.897421882092 -50.455726728943 0.0
vertex 127.642903204154 -52.541616256779 7.04991620636974e-16
endloop
endfacet
facet normal -5.3495189100561e-18 -4.56336930134269e-17 -1.0
outer loop
vertex 127.642903204154 -52.541616256779 7.04991620636974e-16
vertex 128.897421882092 -50.455726728943 0.0
vertex 127.697421882092 -52.955726728943 7.04991620636974e-16
endloop
endfacet
facet normal -5.3495189100561e-18 -4.56336930134269e-17 -1.0
outer loop
vertex 127.697421882092 -52.955726728943 7.04991620636974e-16
vertex 128.897421882092 -50.455726728943 0.0
vertex 127.697421882092 -135.955726728943 7.04991620636974e-16
endloop
endfacet
facet normal -5.3495189100561e-18 -4.56336930134269e-17 -1.0
outer loop
vertex 6.08018425325543 -122.994289863854 -1.05748743095546e-15
vertex 5.71074960519049 -135.455726728943 0.0
vertex 4.4703400959342 -117.421436589446 -1.05748743095546e-15
endloop
endfacet
facet normal -5.3495189100561e-18 -4.56336930134269e-17 -1.0
outer loop
vertex 5.71074960519049 -135.455726728943 0.0
vertex 6.08018425325543 -122.994289863854 -1.05748743095546e-15
vertex 9.22058700473836 -135.455726728943 0.0
endloop
endfacet
facet normal -5.3495189100561e-18 -4.56336930134269e-17 -1.0
outer loop
vertex 9.22058700473836 -135.455726728943 0.0
vertex 6.08018425325543 -122.994289863854 -1.05748743095546e-15
vertex 8.03492188209189 -128.455726728943 -1.05748743095546e-15
endloop
endfacet
facet normal -5.3495189100561e-18 -4.56336930134269e-17 -1.0
outer loop
vertex 9.22058700473836 -135.455726728943 0.0
vertex 8.03492188209189 -128.455726728943 -1.05748743095546e-15
vertex 9.98965951092837 -122.994289863854 -1.05748743095546e-15
endloop
endfacet
facet normal -5.3495189100561e-18 -4.56336930134269e-17 -1.0
outer loop
vertex 9.22058700473836 -135.455726728943 0.0
vertex 9.98965951092837 -122.994289863854 -1.05748743095546e-15
vertex 9.22058700473836 -138.455726728943 0.0
endloop
endfacet
facet normal -5.3495189100561e-18 -4.56336930134269e-17 -1.0
outer loop
vertex 9.22058700473836 -138.455726728943 0.0
vertex 9.98965951092837 -122.994289863854 -1.05748743095546e-15
vertex 46.0317968820919 -128.455726728943 2.46747067222941e-15
endloop
endfacet
facet normal -5.3495189100561e-18 -4.56336930134269e-17 -1.0
outer loop
vertex 9.22058700473836 -138.455726728943 0.0
vertex 46.0317968820919 -128.455726728943 2.46747067222941e-15
vertex 128.897421882092 -138.455726728943 0.0
endloop
endfacet
facet normal -5.3495189100561e-18 -4.56336930134269e-17 -1.0
outer loop
vertex 46.0317968820919 -128.455726728943 2.46747067222941e-15
vertex 9.98965951092837 -122.994289863854 -1.05748743095546e-15
vertex 11.5995036682496 -117.421436589446 -1.05748743095546e-15
endloop
endfacet
facet normal -5.3495189100561e-18 -4.56336930134269e-17 -1.0
outer loop
vertex 46.0317968820919 -128.455726728943 2.46747067222941e-15
vertex 11.5995036682496 -117.421436589446 -1.05748743095546e-15
vertex 12.8581694176093 -111.758923687887 -1.05748743095546e-15
endloop
endfacet
facet normal -5.3495189100561e-18 -4.56336930134269e-17 -1.0
outer loop
vertex 46.0317968820919 -128.455726728943 2.46747067222941e-15
vertex 12.8581694176093 -111.758923687887 -1.05748743095546e-15
vertex 13.7607428459396 -106.028857978367 -1.05748743095546e-15
endloop
endfacet
facet normal -5.3495189100561e-18 -4.56336930134269e-17 -1.0
outer loop
vertex 46.0317968820919 -128.455726728943 2.46747067222941e-15
vertex 13.7607428459396 -106.028857978367 -1.05748743095546e-15
vertex 14.3037002477878 -100.253610010642 -1.05748743095546e-15
endloop
endfacet
facet normal -5.3495189100561e-18 -4.56336930134269e-17 -1.0
outer loop
vertex 46.0317968820919 -128.455726728943 2.46747067222941e-15
vertex 14.3037002477878 -100.253610010642 -1.05748743095546e-15
vertex 14.4849218820919 -94.455726728943 -1.05748743095546e-15
endloop
endfacet
facet normal -5.3495189100561e-18 -4.56336930134269e-17 -1.0
outer loop
vertex 46.0317968820919 -128.455726728943 2.46747067222941e-15
vertex 14.4849218820919 -94.455726728943 -1.05748743095546e-15
vertex 44.2797476237562 -122.953793562482 2.46747067222941e-15
endloop
endfacet
facet normal -5.3495189100561e-18 -4.56336930134269e-17 -1.0
outer loop
vertex 44.2797476237562 -122.953793562482 2.46747067222941e-15
vertex 14.4849218820919 -94.455726728943 -1.05748743095546e-15
vertex 42.8386863807099 -117.362345837104 2.46747067222941e-15
endloop
endfacet
facet normal -5.3495189100561e-18 -4.56336930134269e-17 -1.0
outer loop
vertex 42.8386863807099 -117.362345837104 2.46747067222941e-15
vertex 14.4849218820919 -94.455726728943 -1.05748743095546e-15
vertex 41.7131396340751 -111.698946708225 2.46747067222941e-15
endloop
endfacet
facet normal -5.3495189100561e-18 -4.56336930134269e-17 -1.0
outer loop
vertex 41.7131396340751 -111.698946708225 2.46747067222941e-15
vertex 14.4849218820919 -94.455726728943 -1.05748743095546e-15
vertex 40.9066428103478 -105.981385336 2.46747067222941e-15
endloop
endfacet
facet normal -5.3495189100561e-18 -4.56336930134269e-17 -1.0
outer loop
vertex 40.9066428103478 -105.981385336 2.46747067222941e-15
vertex 14.4849218820919 -94.455726728943 -1.05748743095546e-15
vertex 40.4217291763586 -100.227621008239 2.46747067222941e-15
endloop
endfacet
facet normal -5.3495189100561e-18 -4.56336930134269e-17 -1.0
outer loop
vertex 40.4217291763586 -100.227621008239 2.46747067222941e-15
vertex 14.4849218820919 -94.455726728943 -1.05748743095546e-15
vertex 40.2599218820919 -94.455726728943 2.46747067222941e-15
endloop
endfacet
facet normal -5.3495189100561e-18 -4.56336930134269e-17 -1.0
outer loop
vertex 128.897421882092 -138.455726728943 0.0
vertex 46.0317968820919 -128.455726728943 2.46747067222941e-15
vertex 69.1192968820919 -128.455726728943 4.93494134445882e-15
endloop
endfacet
facet normal -5.3495189100561e-18 -4.56336930134269e-17 -1.0
outer loop
vertex 69.1192968820919 -128.455726728943 4.93494134445882e-15
vertex 46.0317968820919 -128.455726728943 2.46747067222941e-15
vertex 47.7838461404276 -122.953793562481 2.46747067222941e-15
endloop
endfacet
facet normal -5.3495189100561e-18 -4.56336930134269e-17 -1.0
outer loop
vertex 69.1192968820919 -128.455726728943 4.93494134445882e-15
vertex 47.7838461404276 -122.953793562481 2.46747067222941e-15
vertex 49.2249073834739 -117.362345837104 2.46747067222941e-15
endloop
endfacet
facet normal -5.3495189100561e-18 -4.56336930134269e-17 -1.0
outer loop
vertex 69.1192968820919 -128.455726728943 4.93494134445882e-15
vertex 49.2249073834739 -117.362345837104 2.46747067222941e-15
vertex 50.3504541301087 -111.698946708225 2.46747067222941e-15
endloop
endfacet
facet normal -5.3495189100561e-18 -4.56336930134269e-17 -1.0
outer loop
vertex 69.1192968820919 -128.455726728943 4.93494134445882e-15
vertex 50.3504541301087 -111.698946708225 2.46747067222941e-15
vertex 51.1569509538359 -105.981385336 2.46747067222941e-15
endloop
endfacet
facet normal -5.3495189100561e-18 -4.56336930134269e-17 -1.0
outer loop
vertex 69.1192968820919 -128.455726728943 4.93494134445882e-15
vertex 51.1569509538359 -105.981385336 2.46747067222941e-15
vertex 51.6418645878252 -100.227621008239 2.46747067222941e-15
endloop
endfacet
facet normal -5.3495189100561e-18 -4.56336930134269e-17 -1.0
outer loop
vertex 69.1192968820919 -128.455726728943 4.93494134445882e-15
vertex 51.6418645878252 -100.227621008239 2.46747067222941e-15
vertex 51.8036718820919 -94.455726728943 2.46747067222941e-15
endloop
endfacet
facet normal -5.3495189100561e-18 -4.56336930134269e-17 -1.0
outer loop
vertex 69.1192968820919 -128.455726728943 4.93494134445882e-15
vertex 51.8036718820919 -94.455726728943 2.46747067222941e-15
vertex 67.3672476237562 -122.953793562482 4.93494134445882e-15
endloop
endfacet
facet normal -5.3495189100561e-18 -4.56336930134269e-17 -1.0
outer loop
vertex 67.3672476237562 -122.953793562482 4.93494134445882e-15
vertex 51.8036718820919 -94.455726728943 2.46747067222941e-15
vertex 65.9261863807099 -117.362345837104 4.93494134445882e-15
endloop
endfacet
facet normal -5.3495189100561e-18 -4.56336930134269e-17 -1.0
outer loop
vertex 65.9261863807099 -117.362345837104 4.93494134445882e-15
vertex 51.8036718820919 -94.455726728943 2.46747067222941e-15
vertex 64.8006396340751 -111.698946708225 4.93494134445882e-15
endloop
endfacet
facet normal -5.3495189100561e-18 -4.56336930134269e-17 -1.0
outer loop
vertex 64.8006396340751 -111.698946708225 4.93494134445882e-15
vertex 51.8036718820919 -94.455726728943 2.46747067222941e-15
vertex 53.1474218820919 -51.455726728943 -1.69197988952874e-15
endloop
endfacet
facet normal -5.3495189100561e-18 -4.56336930134269e-17 -1.0
outer loop
vertex 53.1474218820919 -51.455726728943 -1.69197988952874e-15
vertex 51.8036718820919 -94.455726728943 2.46747067222941e-15
vertex 53.1474218820919 -50.455726728943 1.12798659301916e-15
endloop
endfacet
facet normal -5.3495189100561e-18 -4.56336930134269e-17 -1.0
outer loop
vertex 64.8006396340751 -111.698946708225 4.93494134445882e-15
vertex 53.1474218820919 -51.455726728943 -1.69197988952874e-15
vertex 63.9941428103479 -105.981385336 4.93494134445882e-15
endloop
endfacet
facet normal -5.3495189100561e-18 -4.56336930134269e-17 -1.0
outer loop
vertex 63.9941428103479 -105.981385336 4.93494134445882e-15
vertex 53.1474218820919 -51.455726728943 -1.69197988952874e-15
vertex 63.5092291763586 -100.227621008239 2.11497486191092e-15
endloop
endfacet
facet normal -5.3495189100561e-18 -4.56336930134269e-17 -1.0
outer loop
vertex 63.5092291763586 -100.227621008239 2.11497486191092e-15
vertex 53.1474218820919 -51.455726728943 -1.69197988952874e-15
vertex 63.3474218820919 -94.455726728943 2.11497486191092e-15
endloop
endfacet
facet normal -5.3495189100561e-18 -4.56336930134269e-17 -1.0
outer loop
vertex 128.897421882092 -138.455726728943 0.0
vertex 69.1192968820919 -128.455726728943 4.93494134445882e-15
vertex 70.8713461404276 -122.953793562482 4.93494134445882e-15
endloop
endfacet
facet normal -5.3495189100561e-18 -4.56336930134269e-17 -1.0
outer loop
vertex 128.897421882092 -138.455726728943 0.0
vertex 70.8713461404276 -122.953793562482 4.93494134445882e-15
vertex 92.8786718820919 -128.455726728943 0.0
endloop
endfacet
facet normal -5.3495189100561e-18 -4.56336930134269e-17 -1.0
outer loop
vertex 92.8786718820919 -128.455726728943 0.0
vertex 70.8713461404276 -122.953793562482 4.93494134445882e-15
vertex 72.3124073834739 -117.362345837104 4.93494134445882e-15
endloop
endfacet
facet normal -5.3495189100561e-18 -4.56336930134269e-17 -1.0
outer loop
vertex 92.8786718820919 -128.455726728943 0.0
vertex 72.3124073834739 -117.362345837104 4.93494134445882e-15
vertex 73.4379541301087 -111.698946708225 4.93494134445882e-15
endloop
endfacet
facet normal -5.3495189100561e-18 -4.56336930134269e-17 -1.0
outer loop
vertex 92.8786718820919 -128.455726728943 0.0
vertex 73.4379541301087 -111.698946708225 4.93494134445882e-15
vertex 74.244450953836 -105.981385336 4.93494134445882e-15
endloop
endfacet
facet normal -5.3495189100561e-18 -4.56336930134269e-17 -1.0
outer loop
vertex 92.8786718820919 -128.455726728943 0.0
vertex 74.244450953836 -105.981385336 4.93494134445882e-15
vertex 74.7293645878252 -100.227621008239 2.11497486191092e-15
endloop
endfacet
facet normal -5.3495189100561e-18 -4.56336930134269e-17 -1.0
outer loop
vertex 92.8786718820919 -128.455726728943 0.0
vertex 74.7293645878252 -100.227621008239 2.11497486191092e-15
vertex 74.8911718820919 -94.455726728943 2.11497486191092e-15
endloop
endfacet
facet normal -5.3495189100561e-18 -4.56336930134269e-17 -1.0
outer loop
vertex 92.8786718820919 -128.455726728943 0.0
vertex 74.8911718820919 -94.455726728943 2.11497486191092e-15
vertex 90.9257978392262 -122.993897020916 0.0
endloop
endfacet
facet normal -5.3495189100561e-18 -4.56336930134269e-17 -1.0
outer loop
vertex 90.9257978392262 -122.993897020916 0.0
vertex 74.8911718820919 -94.455726728943 2.11497486191092e-15
vertex 89.317508527663 -117.420863172364 0.0
endloop
endfacet
facet normal -5.3495189100561e-18 -4.56336930134269e-17 -1.0
outer loop
vertex 89.317508527663 -117.420863172364 0.0
vertex 74.8911718820919 -94.455726728943 2.11497486191092e-15
vertex 88.0600709374992 -111.758341517339 0.0
endloop
endfacet
facet normal -5.3495189100561e-18 -4.56336930134269e-17 -1.0
outer loop
vertex 88.0600709374992 -111.758341517339 0.0
vertex 74.8911718820919 -94.455726728943 2.11497486191092e-15
vertex 87.1583849016621 -106.028397095308 0.0
endloop
endfacet
facet normal -5.3495189100561e-18 -4.56336930134269e-17 -1.0
outer loop
vertex 87.1583849016621 -106.028397095308 0.0
vertex 74.8911718820919 -94.455726728943 2.11497486191092e-15
vertex 86.6159640028238 -100.253357670742 0.0
endloop
endfacet
facet normal -5.3495189100561e-18 -4.56336930134269e-17 -1.0
outer loop
vertex 86.6159640028238 -100.253357670742 0.0
vertex 74.8911718820919 -94.455726728943 2.11497486191092e-15
vertex 86.4349218820919 -94.455726728943 0.0
endloop
endfacet
facet normal -5.3495189100561e-18 -4.56336930134269e-17 -1.0
outer loop
vertex 128.897421882092 -138.455726728943 0.0
vertex 92.8786718820919 -128.455726728943 0.0
vertex 125.683311409928 -137.501208051006 7.04991620636974e-16
endloop
endfacet
facet normal -5.3495189100561e-18 -4.56336930134269e-17 -1.0
outer loop
vertex 125.683311409928 -137.501208051006 7.04991620636974e-16
vertex 92.8786718820919 -128.455726728943 0.0
vertex 125.297421882092 -137.341367374998 7.04991620636974e-16
endloop
endfacet
facet normal -5.3495189100561e-18 -4.56336930134269e-17 -1.0
outer loop
vertex 125.297421882092 -137.341367374998 7.04991620636974e-16
vertex 92.8786718820919 -128.455726728943 0.0
vertex 94.8315459249576 -122.993897020916 0.0
endloop
endfacet
facet normal -5.3495189100561e-18 -4.56336930134269e-17 -1.0
outer loop
vertex 125.297421882092 -137.341367374998 7.04991620636974e-16
vertex 94.8315459249576 -122.993897020916 0.0
vertex 96.4398352365208 -117.420863172364 0.0
endloop
endfacet
facet normal -5.3495189100561e-18 -4.56336930134269e-17 -1.0
outer loop
vertex 125.297421882092 -137.341367374998 7.04991620636974e-16
vertex 96.4398352365208 -117.420863172364 0.0
vertex 124.966051032193 -137.087097578841 7.04991620636974e-16
endloop
endfacet
facet normal -5.3495189100561e-18 -4.56336930134269e-17 -1.0
outer loop
vertex 124.966051032193 -137.087097578841 7.04991620636974e-16
vertex 96.4398352365208 -117.420863172364 0.0
vertex 97.6972728266845 -111.758341517339 0.0
endloop
endfacet
facet normal -5.3495189100561e-18 -4.56336930134269e-17 -1.0
outer loop
vertex 124.966051032193 -137.087097578841 7.04991620636974e-16
vertex 97.6972728266845 -111.758341517339 0.0
vertex 98.5989588625217 -106.028397095308 0.0
endloop
endfacet
facet normal -5.3495189100561e-18 -4.56336930134269e-17 -1.0
outer loop
vertex 124.966051032193 -137.087097578841 7.04991620636974e-16
vertex 98.5989588625217 -106.028397095308 0.0
vertex 124.711781236037 -136.755726728943 7.04991620636974e-16
endloop
endfacet
facet normal -5.3495189100561e-18 -4.56336930134269e-17 -1.0
outer loop
vertex 124.711781236037 -136.755726728943 7.04991620636974e-16
vertex 98.5989588625217 -106.028397095308 0.0
vertex 99.1413797613599 -100.253357670742 0.0
endloop
endfacet
facet normal -5.3495189100561e-18 -4.56336930134269e-17 -1.0
outer loop
vertex 124.711781236037 -136.755726728943 7.04991620636974e-16
vertex 99.1413797613599 -100.253357670742 0.0
vertex 99.3224218820919 -94.4557267289431 0.0
endloop
endfacet
facet normal -5.3495189100561e-18 -4.56336930134269e-17 -1.0
outer loop
vertex 124.711781236037 -136.755726728943 7.04991620636974e-16
vertex 99.3224218820919 -94.4557267289431 0.0
vertex 124.551940560029 -136.369837201107 7.04991620636974e-16
endloop
endfacet
facet normal -5.3495189100561e-18 -4.56336930134269e-17 -1.0
outer loop
vertex 124.551940560029 -136.369837201107 7.04991620636974e-16
vertex 99.3224218820919 -94.4557267289431 0.0
vertex 124.497421882092 -135.955726728943 7.04991620636974e-16
endloop
endfacet
facet normal -5.3495189100561e-18 -4.56336930134269e-17 -1.0
outer loop
vertex 124.497421882092 -135.955726728943 7.04991620636974e-16
vertex 99.3224218820919 -94.4557267289431 0.0
vertex 124.497421882092 -52.955726728943 7.04991620636974e-16
endloop
endfacet
facet normal -5.3495189100561e-18 -4.56336930134269e-17 -1.0
outer loop
vertex 128.897421882092 -138.455726728943 0.0
vertex 125.683311409928 -137.501208051006 7.04991620636974e-16
vertex 126.097421882092 -137.555726728943 7.04991620636974e-16
endloop
endfacet
facet normal -5.3495189100561e-18 -4.56336930134269e-17 -1.0
outer loop
vertex 128.897421882092 -138.455726728943 0.0
vertex 126.097421882092 -137.555726728943 7.04991620636974e-16
vertex 126.511532354256 -137.501208051006 7.04991620636974e-16
endloop
endfacet
facet normal -5.3495189100561e-18 -4.56336930134269e-17 -1.0
outer loop
vertex 128.897421882092 -138.455726728943 0.0
vertex 126.511532354256 -137.501208051006 7.04991620636974e-16
vertex 126.897421882092 -137.341367374998 7.04991620636974e-16
endloop
endfacet
facet normal -5.3495189100561e-18 -4.56336930134269e-17 -1.0
outer loop
vertex 128.897421882092 -138.455726728943 0.0
vertex 126.897421882092 -137.341367374998 7.04991620636974e-16
vertex 127.22879273199 -137.087097578841 7.04991620636974e-16
endloop
endfacet
facet normal -5.3495189100561e-18 -4.56336930134269e-17 -1.0
outer loop
vertex 128.897421882092 -138.455726728943 0.0
vertex 127.22879273199 -137.087097578841 7.04991620636974e-16
vertex 127.483062528147 -136.755726728943 7.04991620636974e-16
endloop
endfacet
facet normal -5.3495189100561e-18 -4.56336930134269e-17 -1.0
outer loop
vertex 128.897421882092 -138.455726728943 0.0
vertex 127.483062528147 -136.755726728943 7.04991620636974e-16
vertex 127.642903204154 -136.369837201107 7.04991620636974e-16
endloop
endfacet
facet normal -5.3495189100561e-18 -4.56336930134269e-17 -1.0
outer loop
vertex 128.897421882092 -138.455726728943 0.0
vertex 127.642903204154 -136.369837201107 7.04991620636974e-16
vertex 127.697421882092 -135.955726728943 7.04991620636974e-16
endloop
endfacet
facet normal -5.3495189100561e-18 -4.56336930134269e-17 -1.0
outer loop
vertex 128.897421882092 -138.455726728943 0.0
vertex 127.697421882092 -135.955726728943 7.04991620636974e-16
vertex 128.897421882092 -50.455726728943 0.0
endloop
endfacet
facet normal -5.3495189100561e-18 -4.56336930134269e-17 -1.0
outer loop
vertex 124.551940560029 -53.3698372011071 7.04991620636974e-16
vertex 124.497421882092 -135.955726728943 7.04991620636974e-16
vertex 124.497421882092 -52.955726728943 7.04991620636974e-16
endloop
endfacet
facet normal -5.3495189100561e-18 -4.56336930134269e-17 -1.0
outer loop
vertex 124.497421882092 -135.955726728943 7.04991620636974e-16
vertex 124.551940560029 -53.3698372011071 7.04991620636974e-16
vertex 124.551940560029 -135.541616256779 7.04991620636974e-16
endloop
endfacet
facet normal -5.3495189100561e-18 -4.56336930134269e-17 -1.0
outer loop
vertex 124.551940560029 -135.541616256779 7.04991620636974e-16
vertex 124.551940560029 -53.3698372011071 7.04991620636974e-16
vertex 124.711781236037 -53.755726728943 7.04991620636974e-16
endloop
endfacet
facet normal -5.3495189100561e-18 -4.56336930134269e-17 -1.0
outer loop
vertex 124.551940560029 -135.541616256779 7.04991620636974e-16
vertex 124.711781236037 -53.755726728943 7.04991620636974e-16
vertex 124.711781236037 -135.155726728943 7.04991620636974e-16
endloop
endfacet
facet normal -5.3495189100561e-18 -4.56336930134269e-17 -1.0
outer loop
vertex 124.711781236037 -135.155726728943 7.04991620636974e-16
vertex 124.711781236037 -53.755726728943 7.04991620636974e-16
vertex 124.966051032193 -54.0870975788415 7.04991620636974e-16
endloop
endfacet
facet normal -5.3495189100561e-18 -4.56336930134269e-17 -1.0
outer loop
vertex 124.711781236037 -135.155726728943 7.04991620636974e-16
vertex 124.966051032193 -54.0870975788415 7.04991620636974e-16
vertex 124.966051032193 -134.824355879045 7.04991620636974e-16
endloop
endfacet
facet normal -5.3495189100561e-18 -4.56336930134269e-17 -1.0
outer loop
vertex 124.966051032193 -134.824355879045 7.04991620636974e-16
vertex 124.966051032193 -54.0870975788415 7.04991620636974e-16
vertex 125.297421882092 -54.3413673749981 7.04991620636974e-16
endloop
endfacet
facet normal -5.3495189100561e-18 -4.56336930134269e-17 -1.0
outer loop
vertex 124.966051032193 -134.824355879045 7.04991620636974e-16
vertex 125.297421882092 -54.3413673749981 7.04991620636974e-16
vertex 125.297421882092 -134.570086082888 7.04991620636974e-16
endloop
endfacet
facet normal -5.3495189100561e-18 -4.56336930134269e-17 -1.0
outer loop
vertex 125.297421882092 -134.570086082888 7.04991620636974e-16
vertex 125.297421882092 -54.3413673749981 7.04991620636974e-16
vertex 125.683311409928 -54.5012080510055 7.04991620636974e-16
endloop
endfacet
facet normal -5.3495189100561e-18 -4.56336930134269e-17 -1.0
outer loop
vertex 125.297421882092 -134.570086082888 7.04991620636974e-16
vertex 125.683311409928 -54.5012080510055 7.04991620636974e-16
vertex 125.683311409928 -134.410245406881 7.04991620636974e-16
endloop
endfacet
facet normal -5.3495189100561e-18 -4.56336930134269e-17 -1.0
outer loop
vertex 125.683311409928 -134.410245406881 7.04991620636974e-16
vertex 125.683311409928 -54.5012080510055 7.04991620636974e-16
vertex 126.097421882092 -54.555726728943 7.04991620636974e-16
endloop
endfacet
facet normal -5.3495189100561e-18 -4.56336930134269e-17 -1.0
outer loop
vertex 125.683311409928 -134.410245406881 7.04991620636974e-16
vertex 126.097421882092 -54.555726728943 7.04991620636974e-16
vertex 126.097421882092 -134.355726728943 7.04991620636974e-16
endloop
endfacet
facet normal -5.3495189100561e-18 -4.56336930134269e-17 -1.0
outer loop
vertex 126.097421882092 -134.355726728943 7.04991620636974e-16
vertex 126.097421882092 -54.555726728943 7.04991620636974e-16
vertex 126.511532354256 -54.5012080510055 7.04991620636974e-16
endloop
endfacet
facet normal -5.3495189100561e-18 -4.56336930134269e-17 -1.0
outer loop
vertex 126.097421882092 -134.355726728943 7.04991620636974e-16
vertex 126.511532354256 -54.5012080510055 7.04991620636974e-16
vertex 126.511532354256 -134.410245406881 7.04991620636974e-16
endloop
endfacet
facet normal -5.3495189100561e-18 -4.56336930134269e-17 -1.0
outer loop
vertex 126.511532354256 -134.410245406881 7.04991620636974e-16
vertex 126.511532354256 -54.5012080510055 7.04991620636974e-16
vertex 126.897421882092 -54.3413673749981 7.04991620636974e-16
endloop
endfacet
facet normal -5.3495189100561e-18 -4.56336930134269e-17 -1.0
outer loop
vertex 126.511532354256 -134.410245406881 7.04991620636974e-16
vertex 126.897421882092 -54.3413673749981 7.04991620636974e-16
vertex 126.897421882092 -134.570086082888 7.04991620636974e-16
endloop
endfacet
facet normal -5.3495189100561e-18 -4.56336930134269e-17 -1.0
outer loop
vertex 126.897421882092 -134.570086082888 7.04991620636974e-16
vertex 126.897421882092 -54.3413673749981 7.04991620636974e-16
vertex 127.22879273199 -54.0870975788415 7.04991620636974e-16
endloop
endfacet
facet normal -5.3495189100561e-18 -4.56336930134269e-17 -1.0
outer loop
vertex 126.897421882092 -134.570086082888 7.04991620636974e-16
vertex 127.22879273199 -54.0870975788415 7.04991620636974e-16
vertex 127.22879273199 -134.824355879045 7.04991620636974e-16
endloop
endfacet
facet normal -5.3495189100561e-18 -4.56336930134269e-17 -1.0
outer loop
vertex 127.22879273199 -134.824355879045 7.04991620636974e-16
vertex 127.22879273199 -54.0870975788415 7.04991620636974e-16
vertex 127.483062528147 -53.755726728943 7.04991620636974e-16
endloop
endfacet
facet normal -5.3495189100561e-18 -4.56336930134269e-17 -1.0
outer loop
vertex 127.22879273199 -134.824355879045 7.04991620636974e-16
vertex 127.483062528147 -53.755726728943 7.04991620636974e-16
vertex 127.483062528147 -135.155726728943 7.04991620636974e-16
endloop
endfacet
facet normal -5.3495189100561e-18 -4.56336930134269e-17 -1.0
outer loop
vertex 127.483062528147 -135.155726728943 7.04991620636974e-16
vertex 127.483062528147 -53.755726728943 7.04991620636974e-16
vertex 127.642903204154 -53.3698372011071 7.04991620636974e-16
endloop
endfacet
facet normal -5.3495189100561e-18 -4.56336930134269e-17 -1.0
outer loop
vertex 127.483062528147 -135.155726728943 7.04991620636974e-16
vertex 127.642903204154 -53.3698372011071 7.04991620636974e-16
vertex 127.642903204154 -135.541616256779 7.04991620636974e-16
endloop
endfacet
facet normal -5.3495189100561e-18 -4.56336930134269e-17 -1.0
outer loop
vertex 127.642903204154 -135.541616256779 7.04991620636974e-16
vertex 127.642903204154 -53.3698372011071 7.04991620636974e-16
vertex 127.697421882092 -52.955726728943 7.04991620636974e-16
endloop
endfacet
facet normal -5.3495189100561e-18 -4.56336930134269e-17 -1.0
outer loop
vertex 127.642903204154 -135.541616256779 7.04991620636974e-16
vertex 127.697421882092 -52.955726728943 7.04991620636974e-16
vertex 127.697421882092 -135.955726728943 7.04991620636974e-16
endloop
endfacet
facet normal -5.3495189100561e-18 -4.56336930134269e-17 -1.0
outer loop
vertex 53.1474218820919 -51.455726728943 -1.69197988952874e-15
vertex 63.5092291763586 -88.6838324496474 2.11497486191092e-15
vertex 63.3474218820919 -94.455726728943 2.11497486191092e-15
endloop
endfacet
facet normal -5.3495189100561e-18 -4.56336930134269e-17 -1.0
outer loop
vertex 63.5092291763586 -88.6838324496474 2.11497486191092e-15
vertex 53.1474218820919 -51.455726728943 -1.69197988952874e-15
vertex 63.9941428103479 -82.9300681218864 2.11497486191092e-15
endloop
endfacet
facet normal -5.3495189100561e-18 -4.56336930134269e-17 -1.0
outer loop
vertex 63.9941428103479 -82.9300681218864 2.11497486191092e-15
vertex 53.1474218820919 -51.455726728943 -1.69197988952874e-15
vertex 64.8006396340751 -77.2125067496612 2.11497486191092e-15
endloop
endfacet
facet normal -5.3495189100561e-18 -4.56336930134269e-17 -1.0
outer loop
vertex 64.8006396340751 -77.2125067496612 2.11497486191092e-15
vertex 53.1474218820919 -51.455726728943 -1.69197988952874e-15
vertex 65.9261863807099 -71.5491076207825 2.11497486191092e-15
endloop
endfacet
facet normal -5.3495189100561e-18 -4.56336930134269e-17 -1.0
outer loop
vertex 65.9261863807099 -71.5491076207825 2.11497486191092e-15
vertex 53.1474218820919 -51.455726728943 -1.69197988952874e-15
vertex 67.3672476237562 -65.9576598954046 2.11497486191092e-15
endloop
endfacet
facet normal -5.3495189100561e-18 -4.56336930134269e-17 -1.0
outer loop
vertex 67.3672476237562 -65.9576598954046 2.11497486191092e-15
vertex 53.1474218820919 -51.455726728943 -1.69197988952874e-15
vertex 69.1192968820919 -60.4557267289431 2.11497486191092e-15
endloop
endfacet
facet normal -5.3495189100561e-18 -4.56336930134269e-17 -1.0
outer loop
vertex 69.1192968820919 -60.4557267289431 2.11497486191092e-15
vertex 53.1474218820919 -51.455726728943 -1.69197988952874e-15
vertex 73.5474218820919 -51.455726728943 -3.94795307556706e-15
endloop
endfacet
facet normal -5.3495189100561e-18 -4.56336930134269e-17 -1.0
outer loop
vertex 69.1192968820919 -60.4557267289431 2.11497486191092e-15
vertex 73.5474218820919 -51.455726728943 -3.94795307556706e-15
vertex 70.8713461404276 -65.9576598954046 2.11497486191092e-15
endloop
endfacet
facet normal -5.3495189100561e-18 -4.56336930134269e-17 -1.0
outer loop
vertex 70.8713461404276 -65.9576598954046 2.11497486191092e-15
vertex 73.5474218820919 -51.455726728943 -3.94795307556706e-15
vertex 72.3124073834739 -71.5491076207825 2.11497486191092e-15
endloop
endfacet
facet normal -5.3495189100561e-18 -4.56336930134269e-17 -1.0
outer loop
vertex 72.3124073834739 -71.5491076207825 2.11497486191092e-15
vertex 73.5474218820919 -51.455726728943 -3.94795307556706e-15
vertex 73.4379541301087 -77.2125067496612 2.11497486191092e-15
endloop
endfacet
facet normal -5.3495189100561e-18 -4.56336930134269e-17 -1.0
outer loop
vertex 73.4379541301087 -77.2125067496612 2.11497486191092e-15
vertex 73.5474218820919 -51.455726728943 -3.94795307556706e-15
vertex 74.244450953836 -82.9300681218864 2.11497486191092e-15
endloop
endfacet
facet normal -5.3495189100561e-18 -4.56336930134269e-17 -1.0
outer loop
vertex -15.4025781179081 -138.455726728943 0.0
vertex 2.30910091824418 -106.028857978367 -1.05748743095546e-15
vertex 5.71074960519049 -138.455726728943 0.0
endloop
endfacet
facet normal -5.3495189100561e-18 -4.56336930134269e-17 -1.0
outer loop
vertex 2.30910091824418 -106.028857978367 -1.05748743095546e-15
vertex -15.4025781179081 -138.455726728943 0.0
vertex 1.766143516396 -100.253610010642 -1.05748743095546e-15
endloop
endfacet
facet normal -5.3495189100561e-18 -4.56336930134269e-17 -1.0
outer loop
vertex 1.766143516396 -100.253610010642 -1.05748743095546e-15
vertex -15.4025781179081 -138.455726728943 0.0
vertex 1.58492188209189 -94.455726728943 -1.05748743095546e-15
endloop
endfacet
facet normal -5.3495189100561e-18 -4.56336930134269e-17 -1.0
outer loop
vertex 5.71074960519049 -138.455726728943 0.0
vertex 2.30910091824418 -106.028857978367 -1.05748743095546e-15
vertex 3.21167434657449 -111.758923687887 -1.05748743095546e-15
endloop
endfacet
facet normal -5.3495189100561e-18 -4.56336930134269e-17 -1.0
outer loop
vertex 5.71074960519049 -138.455726728943 0.0
vertex 3.21167434657449 -111.758923687887 -1.05748743095546e-15
vertex 4.4703400959342 -117.421436589446 -1.05748743095546e-15
endloop
endfacet
facet normal -5.3495189100561e-18 -4.56336930134269e-17 -1.0
outer loop
vertex 5.71074960519049 -138.455726728943 0.0
vertex 4.4703400959342 -117.421436589446 -1.05748743095546e-15
vertex 5.71074960519049 -135.455726728943 0.0
endloop
endfacet
facet normal -0.968356596522774 -0.249570635233455 3.16804076221784e-18
outer loop
vertex 47.7838461404276 -65.9576598954046 2.0
vertex 49.2249073834739 -71.5491076207824 2.46747067222941e-15
vertex 49.2249073834739 -71.5491076207824 2.0
endloop
endfacet
facet normal -0.968356596522774 -0.249570635233455 3.16804076221784e-18
outer loop
vertex 49.2249073834739 -71.5491076207824 2.46747067222941e-15
vertex 47.7838461404276 -65.9576598954046 2.0
vertex 47.7838461404276 -65.9576598954046 2.46747067222941e-15
endloop
endfacet
facet normal -0.923879532511298 -0.382683432365064 0.0
outer loop
vertex 127.483062528147 -135.155726728943 2.0
vertex 127.642903204154 -135.541616256779 7.04991620636974e-16
vertex 127.642903204154 -135.541616256779 2.0
endloop
endfacet
facet normal -0.923879532511298 -0.382683432365064 0.0
outer loop
vertex 127.642903204154 -135.541616256779 7.04991620636974e-16
vertex 127.483062528147 -135.155726728943 2.0
vertex 127.483062528147 -135.155726728943 7.04991620636974e-16
endloop
endfacet
facet normal 0.952853990065758 0.303429190447729 -3.85171934545088e-18
outer loop
vertex 44.2797476237562 -122.953793562482 2.46747067222941e-15
vertex 46.0317968820919 -128.455726728943 2.0
vertex 46.0317968820919 -128.455726728943 2.46747067222941e-15
endloop
endfacet
facet normal 0.952853990065758 0.303429190447729 -3.85171934545088e-18
outer loop
vertex 46.0317968820919 -128.455726728943 2.0
vertex 44.2797476237562 -122.953793562482 2.46747067222941e-15
vertex 44.2797476237562 -122.953793562482 2.0
endloop
endfacet
facet normal -0.0 0.991483569146223 0.130231839859027
outer loop
vertex -15.4025781179081 -136.05572665843 49.0004750184223
vertex -13.4025781179081 -136.001330926709 48.5863483786482
vertex -15.4025781179081 -136.001330926709 48.5863483786482
endloop
endfacet
facet normal -0.0 0.991483569146223 0.130231839859027
outer loop
vertex -13.4025781179081 -136.001330926709 48.5863483786482
vertex -15.4025781179081 -136.05572665843 49.0004750184223
vertex -13.4025781179081 -136.05572665843 49.0004750184223
endloop
endfacet
facet normal 0.793353340291218 0.608761429008744 -0.0
outer loop
vertex 124.711781236037 -53.755726728943 7.04991620636974e-16
vertex 124.966051032193 -54.0870975788415 2.0
vertex 124.966051032193 -54.0870975788415 7.04991620636974e-16
endloop
endfacet
facet normal 0.793353340291218 0.608761429008744 -0.0
outer loop
vertex 124.966051032193 -54.0870975788415 2.0
vertex 124.711781236037 -53.755726728943 7.04991620636974e-16
vertex 124.711781236037 -53.755726728943 2.0
endloop
endfacet
facet normal 5.26381267332034e-17 -0.793353340291236 -0.60876142900872
outer loop
vertex -13.4025781179081 -116.817451198466 14.4254833995939
vertex -15.4025781179081 -115.800372013839 13.1
vertex -13.4025781179081 -115.800372013839 13.1
endloop
endfacet
facet normal 5.26381267332034e-17 -0.793353340291236 -0.60876142900872
outer loop
vertex -15.4025781179081 -115.800372013839 13.1
vertex -13.4025781179081 -116.817451198466 14.4254833995939
vertex -15.4025781179081 -116.817451198466 14.4254833995939
endloop
endfacet
facet normal -0.608761429008744 -0.793353340291218 0.0
outer loop
vertex 127.22879273199 -134.824355879045 2.0
vertex 126.897421882092 -134.570086082888 7.04991620636974e-16
vertex 127.22879273199 -134.824355879045 7.04991620636974e-16
endloop
endfacet
facet normal -0.608761429008744 -0.793353340291218 0.0
outer loop
vertex 126.897421882092 -134.570086082888 7.04991620636974e-16
vertex 127.22879273199 -134.824355879045 2.0
vertex 126.897421882092 -134.570086082888 2.0
endloop
endfacet
facet normal -0.995618013882828 0.0935134772747377 2.27367130151731e-17
outer loop
vertex 99.1413797613599 -100.253357670742 2.0
vertex 98.5989588625217 -106.028397095308 0.0
vertex 98.5989588625217 -106.028397095308 2.0
endloop
endfacet
facet normal -0.995618013882828 0.0935134772747377 2.27367130151731e-17
outer loop
vertex 98.5989588625217 -106.028397095308 0.0
vertex 99.1413797613599 -100.253357670742 2.0
vertex 99.1413797613599 -100.253357670742 0.0
endloop
endfacet
facet normal 0.980817522499569 0.194928159991846 -4.12185526566422e-18
outer loop
vertex 64.8006396340751 -111.698946708225 4.93494134445882e-15
vertex 65.9261863807099 -117.362345837104 2.0
vertex 65.9261863807099 -117.362345837104 4.93494134445882e-15
endloop
endfacet
facet normal 0.980817522499569 0.194928159991846 -4.12185526566422e-18
outer loop
vertex 65.9261863807099 -117.362345837104 2.0
vertex 64.8006396340751 -111.698946708225 4.93494134445882e-15
vertex 64.8006396340751 -111.698946708225 2.0
endloop
endfacet
facet normal 0.0 -0.382957702873599 -0.923765878245011
outer loop
vertex -13.4025781179081 -133.655315386179 50.3854030757777
vertex -15.4025781179081 -134.041157442467 50.5453583101374
vertex -15.4025781179081 -133.655315386179 50.3854030757777
endloop
endfacet
facet normal 0.0 -0.382957702873599 -0.923765878245011
outer loop
vertex -15.4025781179081 -134.041157442467 50.5453583101374
vertex -13.4025781179081 -133.655315386179 50.3854030757777
vertex -13.4025781179081 -134.041157442467 50.5453583101374
endloop
endfacet
facet normal 1.58981038681323e-29 -0.991444861373811 -0.130526192220049
outer loop
vertex -13.4025781179081 -115.16100930981 11.5564418886561
vertex -15.4025781179081 -114.94293459806 9.89999999999999
vertex -13.4025781179081 -114.94293459806 9.89999999999999
endloop
endfacet
facet normal 1.58981038681323e-29 -0.991444861373811 -0.130526192220049
outer loop
vertex -15.4025781179081 -114.94293459806 9.89999999999999
vertex -13.4025781179081 -115.16100930981 11.5564418886561
vertex -15.4025781179081 -115.16100930981 11.5564418886561
endloop
endfacet
facet normal 3.79955450370405e-17 0.382683432365086 -0.923879532511288
outer loop
vertex -13.4025781179081 -122.999376486716 16.08192528825
vertex -15.4025781179081 -124.54293459806 15.4425625842204
vertex -15.4025781179081 -122.999376486716 16.08192528825
endloop
endfacet
facet normal 3.79955450370405e-17 0.382683432365086 -0.923879532511288
outer loop
vertex -15.4025781179081 -124.54293459806 15.4425625842204
vertex -13.4025781179081 -122.999376486716 16.08192528825
vertex -13.4025781179081 -124.54293459806 15.4425625842204
endloop
endfacet
facet normal 0.0 -0.130820533076297 -0.991406066213857
outer loop
vertex -13.4025781179081 -134.041157442467 50.5453583101374
vertex -15.4025781179081 -134.455251710521 50.5999999294867
vertex -15.4025781179081 -134.041157442467 50.5453583101374
endloop
endfacet
facet normal 0.0 -0.130820533076297 -0.991406066213857
outer loop
vertex -15.4025781179081 -134.455251710521 50.5999999294867
vertex -13.4025781179081 -134.041157442467 50.5453583101374
vertex -13.4025781179081 -134.455251710521 50.5999999294867
endloop
endfacet
facet normal -1.14842406061383e-15 0.793172572269041 -0.608996938087633
outer loop
vertex -15.4025781179081 -135.586761640234 50.1317066887856
vertex -13.4025781179081 -135.841129804721 49.8004113427643
vertex -15.4025781179081 -135.841129804721 49.8004113427643
endloop
endfacet
facet normal -1.14842406061383e-15 0.793172572269041 -0.608996938087633
outer loop
vertex -13.4025781179081 -135.841129804721 49.8004113427643
vertex -15.4025781179081 -135.586761640234 50.1317066887856
vertex -13.4025781179081 -135.687885875993 50.0
endloop
endfacet
facet normal -1.14842406061383e-15 0.793172572269041 -0.608996938087633
outer loop
vertex -13.4025781179081 -135.687885875993 50.0
vertex -15.4025781179081 -135.586761640234 50.1317066887856
vertex -13.4025781179081 -135.586761640234 50.1317066887856
endloop
endfacet
facet normal 0.0 -0.991483569146223 -0.130231839859027
outer loop
vertex -13.4025781179081 -132.910122531177 49.4136516213518
vertex -15.4025781179081 -132.855726799456 48.9995249815777
vertex -13.4025781179081 -132.855726799456 48.9995249815777
endloop
endfacet
facet normal 0.0 -0.991483569146223 -0.130231839859027
outer loop
vertex -15.4025781179081 -132.855726799456 48.9995249815777
vertex -13.4025781179081 -132.910122531177 49.4136516213518
vertex -15.4025781179081 -132.910122531177 49.4136516213518
endloop
endfacet
