solid Y-axes large gear
facet normal 0.995925671713736 -0.0871322059893918 -0.0232386553175113
outer loop
vertex 31.7690436441328 0.0174888242734194 -5.0
vertex 31.6966649048599 -2.14333241257974 0.0
vertex 31.5873071105149 -3.39329772165737 -9.29143605042762e-17
endloop
endfacet
facet normal -0.705533253642523 -0.640950249474277 0.302333600023975
outer loop
vertex -31.7046919005572 3.66515712731553 -6.17823912042977e-17
vertex -31.8805594018607 1.50026581031643 -5.0
vertex -31.7774893613966 1.38681029475757 -5.0
endloop
endfacet
facet normal 0.880606720556854 0.270344608098041 -0.389160116895885
outer loop
vertex -0.753226761097867 33.7398050440066 -5.0
vertex 1.79527967046836 32.6359128353188 0.0
vertex -0.428618794280461 32.682443629859 -5.0
endloop
endfacet
facet normal 0.633808218223919 -0.712720982523724 -0.300526111315206
outer loop
vertex 31.7449315494178 -1.99784729899384 0.0
vertex 31.8073033043124 0.165919904761735 -5.0
vertex 31.8594742465534 -1.89598681703496 0.0
endloop
endfacet
facet normal -0.752316745510969 -0.595295209499074 0.282211140763857
outer loop
vertex -31.7046919005572 3.66515712731553 -6.17823912042977e-17
vertex -31.7774893613966 1.38681029475757 -5.0
vertex -31.6095772514356 3.54495400433422 -7.48566978527789e-17
endloop
endfacet
facet normal -0.258814108169341 0.965907401403604 -0.00617651408533258
outer loop
vertex -8.82682422171341 30.5181849735656 0.0
vertex -7.61483847603914 30.842935575357 -9.29143605042762e-17
vertex -9.69499586154416 30.2535864843564 -5.0
endloop
endfacet
facet normal 0.88915166087769 -0.215831899040439 -0.403516933120586
outer loop
vertex 10.775284136402 30.8580473696818 -5.0
vertex 12.8491506440859 30.053704653758 0.0
vertex 12.7004969100825 29.4413034513759 0.0
endloop
endfacet
facet normal 0.268872597431509 -0.875811868183806 -0.400825520518374
outer loop
vertex 33.7129040004765 -1.54334014911131 0.0
vertex 32.682443629859 0.428618794280464 -5.0
vertex 33.7398050440066 0.753226761097869 -5.0
endloop
endfacet
facet normal -0.47274663187976 0.876008409073863 0.0954981113856339
outer loop
vertex -7.47994502310147 30.9157321659814 -7.48566978527789e-17
vertex -9.56536606550115 30.3353893157856 -5.0
vertex -7.61483847603914 30.842935575357 -9.29143605042762e-17
endloop
endfacet
facet normal 0.309663582716704 0.862766984606864 -0.399676864243397
outer loop
vertex -27.3658897558465 17.8727142191828 0.0
vertex -27.9249986367843 15.7571387572302 -5.0
vertex -28.5181358383511 15.9700270505432 -5.0
endloop
endfacet
facet normal 0.901325410996375 0.185770465813686 -0.391282299016428
outer loop
vertex -0.316416863674419 32.0623275987161 -5.0
vertex 1.86504440058465 32.0096013730702 0.0
vertex 1.89598681703497 31.8594742465534 0.0
endloop
endfacet
facet normal 0.904828122731719 0.163716880613504 -0.393043065472445
outer loop
vertex -0.428618794280461 32.682443629859 -5.0
vertex 1.86504440058465 32.0096013730702 0.0
vertex -0.316416863674419 32.0623275987161 -5.0
endloop
endfacet
facet normal 0.684410967872264 -0.671488548280798 -0.284050623276728
outer loop
vertex 31.9146526822123 0.275335161085975 -5.0
vertex 31.8594742465534 -1.89598681703496 0.0
vertex 31.8073033043124 0.165919904761735 -5.0
endloop
endfacet
facet normal 0.917750727824577 -0.0966073860941416 -0.385228003303909
outer loop
vertex 16.3831989063524 31.1694023376827 -5.0
vertex 18.1930237760491 28.424561225203 0.0
vertex 16.2175890120822 29.5961416673929 -5.0
endloop
endfacet
facet normal -0.898115459842854 -0.429265339286843 0.0954981113855656
outer loop
vertex -25.6022199004628 -18.8748088487186 -10.0
vertex -24.2591566878872 -20.5724424825993 -5.0
vertex -24.3252577472413 -20.4341448426908 -5.0
endloop
endfacet
facet normal -0.922601319317924 -0.366141578326887 0.121437845061261
outer loop
vertex -25.658761534018 -18.7323355848166 -10.0
vertex -25.6022199004628 -18.8748088487186 -10.0
vertex -24.3252577472413 -20.4341448426908 -5.0
endloop
endfacet
facet normal -0.778228303658559 -0.62795107935131 -0.00617651408532745
outer loop
vertex -25.658761534018 -18.7323355848166 -10.0
vertex -24.3252577472413 -20.4341448426908 -5.0
vertex -25.1131880975509 -19.457652055138 -5.0
endloop
endfacet
facet normal 0.897969260799118 -0.156868214334043 -0.411149084872549
outer loop
vertex 16.3831989063524 31.1694023376827 -5.0
vertex 18.4652559457641 29.9829146573657 0.0
vertex 18.1930237760491 28.424561225203 0.0
endloop
endfacet
facet normal -0.404670483293881 -0.829361914619415 0.385228003303908
outer loop
vertex 22.2645338102743 -25.3620253365609 -5.0
vertex 20.4879698329889 -26.8176226963491 -10.0
vertex 23.6862733329439 -26.0557345720768 -5.0
endloop
endfacet
facet normal -0.547504492624627 -0.730969956658689 0.407334939599152
outer loop
vertex 22.2645338102743 -25.3620253365609 -5.0
vertex 19.6026963859461 -26.1545432017105 -10.0
vertex 20.4879698329889 -26.8176226963491 -10.0
endloop
endfacet
facet normal -0.932701586977539 0.359899589536602 0.0232386553175109
outer loop
vertex -28.5217832291412 13.9921521343813 -9.29143605042762e-17
vertex -29.4074150265235 12.019832834927 -5.0
vertex -29.8591174120016 10.8492187413698 -5.0
endloop
endfacet
facet normal -0.707071116526624 0.578038651956381 0.40733493959915
outer loop
vertex 13.4456649867213 30.9540932354036 -5.0
vertex 12.7456057499771 30.0977635341212 -5.0
vertex 15.5198802244274 29.9679013743143 -8.736019467427e-18
endloop
endfacet
facet normal -5.2478831195325e-18 0.999975931214802 -0.00693808266666602
outer loop
vertex 0.709824382352615 35.8290804921661 0.0
vertex -1.72874469693585 35.7943892438566 -5.0
vertex -0.70982438235261 35.8290804921661 0.0
endloop
endfacet
facet normal -0.91413172890988 0.0392079951692242 0.403516933120586
outer loop
vertex -1.79527967046836 32.6359128353188 -4.53134547888396e-17
vertex -4.01086340095937 32.4382306926344 -5.0
vertex -4.03786781926178 31.8086245246974 -5.0
endloop
endfacet
facet normal -0.483273164718426 0.875447827649821 0.00617651408532804
outer loop
vertex -13.9921521343813 28.5217832291412 0.0
vertex -14.8011872507673 28.1104481623739 -5.0
vertex -15.8996675881695 27.5040544376189 -5.0
endloop
endfacet
facet normal -0.637154574119155 -0.71648397895218 0.284050623276715
outer loop
vertex -31.8594742465534 -1.89598681703495 -6.17823912042977e-17
vertex -31.6567404932961 -4.05852764155665 -5.0
vertex -31.7449315494178 -1.99784729899383 -7.48566978527789e-17
endloop
endfacet
facet normal -0.907845825427946 0.29053459613204 0.302333600023954
outer loop
vertex -12.6782267691618 29.2896471686991 -6.17823912042977e-17
vertex -14.641011396767 28.3595072340284 -5.0
vertex -14.6877317352085 28.213518202838 -5.0
endloop
endfacet
facet normal -0.256973010665736 0.923731625097626 -0.284050623276709
outer loop
vertex -26.6431206402139 17.5717098720694 0.0
vertex -27.6288926397921 15.7599607996391 -5.0
vertex -27.776567556296 15.7188790970506 -5.0
endloop
endfacet
facet normal -0.413473326569995 0.865075171087027 -0.284050623276721
outer loop
vertex -29.289647168699 12.6782267691618 0.0
vertex -29.9458361517688 10.7228247247979 -5.0
vertex -30.0841337916773 10.6567236654438 -5.0
endloop
endfacet
facet normal -0.608761429008723 -0.793353340291234 -0.0
outer loop
vertex 25.5287356746383 0.750677147348374 -2.8199664825479e-15
vertex 25.1973648247398 1.004946943505 -14.0
vertex 25.5287356746383 0.750677147348374 -14.0
endloop
endfacet
facet normal -0.608761429008723 -0.793353340291234 -0.0
outer loop
vertex 25.1973648247398 1.004946943505 -14.0
vertex 25.5287356746383 0.750677147348374 -2.8199664825479e-15
vertex 25.1973648247398 1.004946943505 -2.8199664825479e-15
endloop
endfacet
facet normal -0.793353340291235 -0.608761429008721 -0.0
outer loop
vertex 25.5287356746383 0.750677147348374 -2.8199664825479e-15
vertex 25.7830054707949 0.419306297449898 -14.0
vertex 25.7830054707949 0.419306297449898 -2.8199664825479e-15
endloop
endfacet
facet normal -0.793353340291235 -0.608761429008721 -0.0
outer loop
vertex 25.7830054707949 0.419306297449898 -14.0
vertex 25.5287356746383 0.750677147348374 -2.8199664825479e-15
vertex 25.5287356746383 0.750677147348374 -14.0
endloop
endfacet
facet normal -0.923879532511288 -0.382683432365087 -0.0
outer loop
vertex 25.7830054707949 0.419306297449898 -2.8199664825479e-15
vertex 25.9428461468023 0.0334167696139308 -14.0
vertex 25.9428461468023 0.0334167696139308 -2.8199664825479e-15
endloop
endfacet
facet normal -0.923879532511288 -0.382683432365087 -0.0
outer loop
vertex 25.9428461468023 0.0334167696139308 -14.0
vertex 25.7830054707949 0.419306297449898 -2.8199664825479e-15
vertex 25.7830054707949 0.419306297449898 -14.0
endloop
endfacet
facet normal -0.823938908429107 0.408217863230743 0.393043065472447
outer loop
vertex 9.4751285269137 31.2817482741645 -4.53134547888396e-17
vertex 7.08483572546021 31.2713618734819 -5.0
vertex 9.19535998874754 30.7170689577693 -5.71946904668901e-17
endloop
endfacet
facet normal 0.914173174297351 0.113321713774051 -0.389160116895884
outer loop
vertex 5.11707210662379 33.3580180468927 -5.0
vertex 7.43517212865234 31.8283529436733 0.0
vertex 5.25313966633306 32.2603527466102 -5.0
endloop
endfacet
facet normal -0.627455486696517 -0.674428658667483 0.389160116895883
outer loop
vertex 16.7124165793158 -28.0895170440706 -5.0
vertex 14.763198616136 -29.1611694263149 -10.0
vertex 17.5222160319243 -28.8429149062951 -5.0
endloop
endfacet
facet normal -0.699560021562995 -0.592346334857699 0.399676864243395
outer loop
vertex 16.3051888414859 -27.6085817731099 -5.0
vertex 14.763198616136 -29.1611694263149 -10.0
vertex 16.7124165793158 -28.0895170440706 -5.0
endloop
endfacet
facet normal -0.919763813430735 0.0508815381148756 0.389160116895883
outer loop
vertex -7.37407768792274 32.9327310318122 -8.736019467427e-18
vertex -9.58276902005314 31.2489419596573 -5.0
vertex -7.43517212865233 31.8283529436733 -4.53134547888396e-17
endloop
endfacet
facet normal 0.552202896420481 -0.731034105419171 -0.400825520518373
outer loop
vertex 32.2076205335108 10.080226908685 0.0
vertex 30.5648548467781 11.580823972633 -5.0
vertex 31.4474271018207 12.2474945861134 -5.0
endloop
endfacet
facet normal -0.846892757388088 0.36239075719613 0.389160116895882
outer loop
vertex 4.33429099916308 33.4687274406389 -8.736019467427e-18
vertex 1.68291027297776 32.6419002005525 -5.0
vertex 3.89916145204745 32.4518470300319 -4.53134547888396e-17
endloop
endfacet
facet normal -0.671873935998497 0.630190302641566 0.389160116895885
outer loop
vertex 12.7456057499771 30.0977635341212 -5.0
vertex 14.7631986161361 29.1611694263149 -4.53134547888396e-17
vertex 15.5198802244274 29.9679013743143 -8.736019467427e-18
endloop
endfacet
facet normal -0.911873424895458 0.124036363401419 0.391282299016426
outer loop
vertex -1.86504440058464 32.0096013730702 -5.71946904668901e-17
vertex -4.03786781926178 31.8086245246974 -5.0
vertex -4.05852764155666 31.6567404932961 -5.0
endloop
endfacet
facet normal 0.28070745344197 0.877138534158785 0.389655382967953
outer loop
vertex 31.7046919005572 -3.66515712731553 -6.17823912042977e-17
vertex 32.026548433051 -1.54698614875784 -5.0
vertex 31.8805594018607 -1.50026581031643 -5.0
endloop
endfacet
facet normal 0.663924347908109 0.640939814432897 -0.385228003303909
outer loop
vertex -13.3462301920881 32.5855641067213 -5.0
vertex -10.080226908685 32.2076205335108 0.0
vertex -12.2474945861134 31.4474271018207 -5.0
endloop
endfacet
facet normal -0.390187979205071 -0.825749848073322 0.407296610949256
outer loop
vertex 24.3324851709073 -26.3088773035924 -5.0
vertex 21.8592341680648 -27.6064255215911 -10.0
vertex 22.4867319831345 -27.9029343311161 -10.0
endloop
endfacet
facet normal -0.336042240157434 -0.857834125220064 0.38883958959692
outer loop
vertex 23.6862733329439 -26.0557345720768 -5.0
vertex 21.8592341680648 -27.6064255215911 -10.0
vertex 24.3324851709073 -26.3088773035924 -5.0
endloop
endfacet
facet normal -0.454531478726124 -0.790162998915736 0.411149084872548
outer loop
vertex 23.6862733329439 -26.0557345720768 -5.0
vertex 20.4879698329889 -26.8176226963491 -10.0
vertex 21.8592341680648 -27.6064255215911 -10.0
endloop
endfacet
facet normal -0.221377544503022 0.888500114685735 -0.401944683996752
outer loop
vertex -34.4902131382956 7.0969039847241 0.0
vertex -33.3580180468927 5.11707210662378 -5.0
vertex -34.8930414091111 4.73460766225746 -5.0
endloop
endfacet
facet normal 0.30301815826953 0.866914041794226 0.395777765796591
outer loop
vertex 32.4518470300319 -3.89916145204745 -4.53134547888396e-17
vertex 33.6860212622951 -2.04786876469264 -5.0
vertex 32.6419002005525 -1.68291027297776 -5.0
endloop
endfacet
facet normal 0.289998046504827 0.874110871427347 -0.38965538296796
outer loop
vertex -26.6431206402139 17.5717098720694 0.0
vertex -27.776567556296 15.7188790970506 -5.0
vertex -26.7886057537997 17.6199765166274 0.0
endloop
endfacet
facet normal 0.563158134112206 0.820812418707852 -0.0954981113856404
outer loop
vertex 12.734768402717 29.147173904797 0.0
vertex 10.8492187413698 29.8591174120016 -5.0
vertex 10.7228247247979 29.9458361517688 -5.0
endloop
endfacet
facet normal -0.882307713070508 0.258940626670116 0.393043065472445
outer loop
vertex 3.89916145204745 32.4518470300319 -4.53134547888396e-17
vertex 1.54698614875785 32.026548433051 -5.0
vertex 3.72169876087076 31.8471651644592 -5.71946904668901e-17
endloop
endfacet
facet normal 0.87414463932729 -0.264479482223324 -0.407334939599152
outer loop
vertex 16.2175890120822 29.5961416673929 -5.0
vertex 18.1930237760491 28.424561225203 0.0
vertex 17.8727142191828 27.3658897558465 0.0
endloop
endfacet
facet normal 0.752316745510941 0.595295209499103 0.282211140763871
outer loop
vertex 31.7774893613966 -1.38681029475756 -5.0
vertex 31.6095772514356 -3.54495400433422 -7.48566978527789e-17
vertex 31.7046919005572 -3.66515712731553 -6.17823912042977e-17
endloop
endfacet
facet normal 0.865565118337145 0.413707502889151 -0.282211140763841
outer loop
vertex 10.6567236654438 30.0841337916773 -5.0
vertex 12.734768402717 29.147173904797 0.0
vertex 10.7228247247979 29.9458361517688 -5.0
endloop
endfacet
facet normal -0.858361520528276 0.340647509732046 0.383633645799925
outer loop
vertex 1.50026581031643 31.8805594018607 -5.0
vertex 3.66515712731553 31.7046919005572 -6.17823912042977e-17
vertex 3.72169876087076 31.8471651644592 -5.71946904668901e-17
endloop
endfacet
facet normal 0.615925390931081 0.778388567871631 -0.121437845061356
outer loop
vertex 12.8549715256983 29.0520592556754 0.0
vertex 10.8492187413698 29.8591174120016 -5.0
vertex 12.734768402717 29.147173904797 0.0
endloop
endfacet
facet normal 0.919962938730769 -0.0471444034794134 -0.389160116895884
outer loop
vertex 10.8318913277491 31.9626645513955 -5.0
vertex 12.8491506440859 30.053704653758 0.0
vertex 10.775284136402 30.8580473696818 -5.0
endloop
endfacet
facet normal -0.587464261687305 0.702371847561489 0.401944683996753
outer loop
vertex 16.7333377998975 30.9828380650962 6.56863060415491e-17
vertex 14.5872813187714 32.0492132855156 -5.0
vertex 15.5198802244274 29.9679013743143 -8.736019467427e-18
endloop
endfacet
facet normal -0.90854641178796 0.161687362207769 0.385228003303909
outer loop
vertex -7.0969039847241 34.4902131382956 6.56863060415491e-17
vertex -9.59693065368207 32.3549179722283 -5.0
vertex -7.37407768792274 32.9327310318122 -8.736019467427e-18
endloop
endfacet
facet normal -0.361206034756362 0.882731135099084 0.300526111315255
outer loop
vertex 14.1422792608981 28.4908408126909 -7.48566978527789e-17
vertex 12.3135822070986 29.4448052889843 -5.0
vertex 12.1717168663284 29.3867552042286 -5.0
endloop
endfacet
facet normal -0.778191337334068 0.615769325822999 -0.123476232019384
outer loop
vertex -29.0520592556754 12.8549715256983 0.0
vertex -29.9458361517688 10.7228247247979 -5.0
vertex -29.147173904797 12.734768402717 0.0
endloop
endfacet
facet normal -0.772057302056748 0.491020984302921 0.403516933120589
outer loop
vertex 12.7456057499771 30.0977635341212 -5.0
vertex 12.4074161537444 29.5660108074596 -5.0
vertex 14.7631986161361 29.1611694263149 -4.53134547888396e-17
endloop
endfacet
facet normal -0.735685093399295 0.538260042505977 0.41114908487255
outer loop
vertex 8.80038025540769 34.0953685396372 -5.0
vertex 7.86627324166786 32.8186462281524 -5.0
vertex 11.0990074301577 33.4178527520658 6.56863060415491e-17
endloop
endfacet
facet normal -0.0752240557270378 0.913393603292894 -0.400066828047015
outer loop
vertex -32.7338648576125 12.9782487253486 0.0
vertex -33.5407817133498 10.721791387211 -5.0
vertex -33.4255483110446 12.9212839793083 0.0
endloop
endfacet
facet normal -0.796704476019697 0.446475335121589 0.407334939599152
outer loop
vertex 7.86627324166786 32.8186462281524 -5.0
vertex 7.32554956986414 31.8537620884753 -5.0
vertex 10.080226908685 32.2076205335108 -8.736019467427e-18
endloop
endfacet
facet normal -0.455355009171928 0.843781404771476 0.284050623276746
outer loop
vertex 9.11493712701153 30.5865785345108 -6.17823912042977e-17
vertex 7.01347444471419 31.1357036453412 -5.0
vertex 8.98004367407386 30.5137819438864 -7.48566978527789e-17
endloop
endfacet
facet normal -0.906252001322305 0.0983043239526281 0.411149084872547
outer loop
vertex -7.0969039847241 34.4902131382956 6.56863060415491e-17
vertex -9.42633140567253 33.9276454344224 -5.0
vertex -9.59693065368207 32.3549179722283 -5.0
endloop
endfacet
facet normal 0.550542409104022 0.735025860687226 -0.395777765796593
outer loop
vertex -19.6026963859461 26.1545432017105 0.0
vertex -21.3362108651271 24.7606934799605 -5.0
vertex -20.4879698329889 26.8176226963491 0.0
endloop
endfacet
facet normal 0.2417115210387 0.884037371208684 -0.400066828047013
outer loop
vertex -26.3209487673417 23.3912057081379 0.0
vertex -27.8509564444639 21.546811217023 -5.0
vertex -26.9904016950568 23.5742460305177 0.0
endloop
endfacet
facet normal -0.896955048036122 0.209823843306951 0.389160116895883
outer loop
vertex -1.54334014911131 33.7129040004765 -8.736019467427e-18
vertex -4.01086340095937 32.4382306926344 -5.0
vertex -1.79527967046836 32.6359128353188 -4.53134547888396e-17
endloop
endfacet
facet normal 0.38308650118327 -0.832581086566084 -0.400066828047015
outer loop
vertex 35.1985937456615 -0.999923407730485 0.0
vertex 35.1850936983875 1.39643472068672 -5.0
vertex 35.8290804921661 -0.709824382352612 0.0
endloop
endfacet
facet normal -0.992618105488219 0.0773182016514035 -0.0934408494737325
outer loop
vertex -31.5873071105149 -3.39329772165736 0.0
vertex -31.2833635840606 -5.53385966476036 -5.0
vertex -31.2952672073971 -5.68667946388157 -5.0
endloop
endfacet
facet normal -0.61768181214217 0.78060828183574 0.0954981113856191
outer loop
vertex -12.734768402717 29.147173904797 -7.48566978527789e-17
vertex -14.6877317352085 28.213518202838 -5.0
vertex -12.8549715256983 29.0520592556754 -9.29143605042762e-17
endloop
endfacet
facet normal -0.820973394783379 0.563268579549286 -0.0934408494737966
outer loop
vertex -29.0520592556754 12.8549715256983 0.0
vertex -29.8591174120016 10.8492187413698 -5.0
vertex -29.9458361517688 10.7228247247979 -5.0
endloop
endfacet
facet normal -0.583864570329277 -0.754179169648682 0.300526111315195
outer loop
vertex -31.7449315494178 -1.99784729899383 -7.48566978527789e-17
vertex -31.6567404932961 -4.05852764155665 -5.0
vertex -31.5355349748207 -4.15236158820238 -5.0
endloop
endfacet
facet normal -0.918431871961395 -0.375814471104791 0.123476232019424
outer loop
vertex -31.7449315494178 -1.99784729899383 -7.48566978527789e-17
vertex -31.5355349748207 -4.15236158820238 -5.0
vertex -31.4774848900651 -4.2942269289726 -5.0
endloop
endfacet
facet normal 0.793353340291236 0.60876142900872 0.0
outer loop
vertex 23.0117241786847 -1.1806937025501 -14.0
vertex 23.2659939748414 -1.51206455244858 -2.8199664825479e-15
vertex 23.2659939748414 -1.51206455244858 -14.0
endloop
endfacet
facet normal 0.793353340291236 0.60876142900872 0.0
outer loop
vertex 23.2659939748414 -1.51206455244858 -2.8199664825479e-15
vertex 23.0117241786847 -1.1806937025501 -14.0
vertex 23.0117241786847 -1.1806937025501 -2.8199664825479e-15
endloop
endfacet
facet normal 0.92069649805121 -0.0717159974238704 -0.383633645799918
outer loop
vertex 10.6686272887804 30.2369535907985 -5.0
vertex 12.6782267691618 29.289647168699 0.0
vertex 10.6567236654438 30.0841337916773 -5.0
endloop
endfacet
facet normal -0.342011911316303 0.939670003526068 -0.00693808266666561
outer loop
vertex -11.5872505110069 33.9110967850211 0.0
vertex -13.866890774372 33.044457928971 -5.0
vertex -12.9212839793082 33.4255483110446 0.0
endloop
endfacet
facet normal -0.862130373160825 0.30134609115655 0.407334939599153
outer loop
vertex 2.04786876469264 33.6860212622951 -5.0
vertex 1.68291027297776 32.6419002005525 -5.0
vertex 4.33429099916308 33.4687274406389 -8.736019467427e-18
endloop
endfacet
facet normal -0.793353340291235 0.608761429008721 -0.0
outer loop
vertex 25.7830054707949 -1.1806937025501 -2.8199664825479e-15
vertex 25.5287356746383 -1.51206455244858 -14.0
vertex 25.5287356746383 -1.51206455244858 -2.8199664825479e-15
endloop
endfacet
facet normal -0.793353340291235 0.608761429008721 -0.0
outer loop
vertex 25.5287356746383 -1.51206455244858 -14.0
vertex 25.7830054707949 -1.1806937025501 -2.8199664825479e-15
vertex 25.7830054707949 -1.1806937025501 -14.0
endloop
endfacet
facet normal -0.60876142900872 0.793353340291236 -0.0
outer loop
vertex 25.1973648247398 -1.7663343486052 -2.8199664825479e-15
vertex 25.5287356746383 -1.51206455244858 -14.0
vertex 25.1973648247398 -1.7663343486052 -14.0
endloop
endfacet
facet normal -0.60876142900872 0.793353340291236 -0.0
outer loop
vertex 25.5287356746383 -1.51206455244858 -14.0
vertex 25.1973648247398 -1.7663343486052 -2.8199664825479e-15
vertex 25.5287356746383 -1.51206455244858 -2.8199664825479e-15
endloop
endfacet
facet normal 0.471402343938273 0.873517418210056 -0.121437845061329
outer loop
vertex 7.61483847603915 30.842935575357 0.0
vertex 5.49941340528931 31.2894373889898 -5.0
vertex 7.47994502310148 30.9157321659814 0.0
endloop
endfacet
