solid Y-axes Support cap
facet normal 0.866025403784439 -0.5 3.80924097101217e-33
outer loop
vertex -3.75 6.49519052838329 3.52495810318487e-16
vertex -7.5 9.18485099360515e-16 3.0
vertex -7.5 9.18485099360515e-16 3.52495810318487e-16
endloop
endfacet
facet normal 0.866025403784439 -0.5 3.80924097101217e-33
outer loop
vertex -7.5 9.18485099360515e-16 3.0
vertex -3.75 6.49519052838329 3.52495810318487e-16
vertex -3.75 6.49519052838329 3.0
endloop
endfacet
facet normal 0.0 0.0 -1.0
outer loop
vertex -1.0 4.89858719658941e-16 -2.7
vertex -9.65925826289068 -2.5881904510252 -2.7
vertex -10.0 1.22464679914735e-15 -2.7
endloop
endfacet
facet normal 0.0 0.0 -1.0
outer loop
vertex -9.65925826289068 -2.5881904510252 -2.7
vertex -1.0 4.89858719658941e-16 -2.7
vertex -8.66025403784439 -5.0 -2.7
endloop
endfacet
facet normal 0.0 0.0 -1.0
outer loop
vertex -8.66025403784439 -5.0 -2.7
vertex -1.0 4.89858719658941e-16 -2.7
vertex -7.07106781186548 -7.07106781186547 -2.7
endloop
endfacet
facet normal 0.0 0.0 -1.0
outer loop
vertex -7.07106781186548 -7.07106781186547 -2.7
vertex -1.0 4.89858719658941e-16 -2.7
vertex -5.0 -8.66025403784438 -2.7
endloop
endfacet
facet normal 0.0 0.0 -1.0
outer loop
vertex -5.0 -8.66025403784438 -2.7
vertex -1.0 4.89858719658941e-16 -2.7
vertex -2.58819045102521 -9.65925826289068 -2.7
endloop
endfacet
facet normal 0.0 0.0 -1.0
outer loop
vertex -2.58819045102521 -9.65925826289068 -2.7
vertex -1.0 4.89858719658941e-16 -2.7
vertex -1.83697019872103e-15 -10.0 -2.7
endloop
endfacet
facet normal 0.0 0.0 -1.0
outer loop
vertex -1.83697019872103e-15 -10.0 -2.7
vertex -1.0 4.89858719658941e-16 -2.7
vertex -0.965925826289069 -0.25881904510252 -2.7
endloop
endfacet
facet normal 0.0 0.0 -1.0
outer loop
vertex -1.83697019872103e-15 -10.0 -2.7
vertex -0.965925826289069 -0.25881904510252 -2.7
vertex -0.86602540378444 -0.499999999999999 -2.7
endloop
endfacet
facet normal 0.0 0.0 -1.0
outer loop
vertex -1.83697019872103e-15 -10.0 -2.7
vertex -0.86602540378444 -0.499999999999999 -2.7
vertex -0.707106781186549 -0.707106781186547 -2.7
endloop
endfacet
facet normal 0.0 0.0 -1.0
outer loop
vertex -1.83697019872103e-15 -10.0 -2.7
vertex -0.707106781186549 -0.707106781186547 -2.7
vertex -0.500000000000001 -0.866025403784438 -2.7
endloop
endfacet
facet normal 0.0 0.0 -1.0
outer loop
vertex -1.83697019872103e-15 -10.0 -2.7
vertex -0.500000000000001 -0.866025403784438 -2.7
vertex -0.258819045102523 -0.965925826289067 -2.7
endloop
endfacet
facet normal 0.0 0.0 -1.0
outer loop
vertex -1.83697019872103e-15 -10.0 -2.7
vertex -0.258819045102523 -0.965925826289067 -2.7
vertex -1.01115332042381e-15 -0.999999999999999 -2.7
endloop
endfacet
facet normal 7.51991062012773e-16 1.0 -7.43678988177824e-32
outer loop
vertex -3.75 -6.49519052838329 3.0
vertex 3.74999999999999 -6.49519052838329 3.52495810318487e-16
vertex -3.75 -6.49519052838329 3.52495810318487e-16
endloop
endfacet
facet normal 7.51991062012773e-16 1.0 -7.43678988177824e-32
outer loop
vertex 3.74999999999999 -6.49519052838329 3.52495810318487e-16
vertex -3.75 -6.49519052838329 3.0
vertex 3.74999999999999 -6.49519052838329 3.0
endloop
endfacet
facet normal -0.99144486137381 0.130526192220052 0.0
outer loop
vertex -9.65925826289068 2.58819045102521 3.0
vertex -10.0 1.22464679914735e-15 -2.7
vertex -10.0 1.22464679914735e-15 3.0
endloop
endfacet
facet normal -0.99144486137381 0.130526192220052 0.0
outer loop
vertex -10.0 1.22464679914735e-15 -2.7
vertex -9.65925826289068 2.58819045102521 3.0
vertex -9.65925826289068 2.58819045102521 -2.7
endloop
endfacet
facet normal -0.608761429008721 -0.793353340291235 -0.0
outer loop
vertex -5.0 -8.66025403784438 3.0
vertex -7.07106781186548 -7.07106781186547 -2.7
vertex -5.0 -8.66025403784438 -2.7
endloop
endfacet
facet normal -0.608761429008721 -0.793353340291235 -0.0
outer loop
vertex -7.07106781186548 -7.07106781186547 -2.7
vertex -5.0 -8.66025403784438 3.0
vertex -7.07106781186548 -7.07106781186547 3.0
endloop
endfacet
facet normal 0.130526192220052 0.99144486137381 0.0
outer loop
vertex -0.258819045102523 -0.965925826289067 1.05748743095546e-15
vertex -1.01115332042381e-15 -0.999999999999999 -2.7
vertex -0.258819045102523 -0.965925826289067 -2.7
endloop
endfacet
facet normal 0.130526192220052 0.99144486137381 0.0
outer loop
vertex -1.01115332042381e-15 -0.999999999999999 -2.7
vertex -0.258819045102523 -0.965925826289067 1.05748743095546e-15
vertex -1.01115332042381e-15 -0.999999999999999 1.05748743095546e-15
endloop
endfacet
facet normal 0.60876142900872 0.793353340291236 0.0
outer loop
vertex -0.707106781186549 -0.707106781186547 1.05748743095546e-15
vertex -0.500000000000001 -0.866025403784438 -2.7
vertex -0.707106781186549 -0.707106781186547 -2.7
endloop
endfacet
facet normal 0.60876142900872 0.793353340291236 0.0
outer loop
vertex -0.500000000000001 -0.866025403784438 -2.7
vertex -0.707106781186549 -0.707106781186547 1.05748743095546e-15
vertex -0.500000000000001 -0.866025403784438 1.05748743095546e-15
endloop
endfacet
facet normal -0.38268343236509 -0.923879532511287 -0.0
outer loop
vertex 0.499999999999999 0.866025403784439 1.05748743095546e-15
vertex 0.25881904510252 0.965925826289068 -2.7
vertex 0.499999999999999 0.866025403784439 -2.7
endloop
endfacet
facet normal -0.38268343236509 -0.923879532511287 -0.0
outer loop
vertex 0.25881904510252 0.965925826289068 -2.7
vertex 0.499999999999999 0.866025403784439 1.05748743095546e-15
vertex 0.25881904510252 0.965925826289068 1.05748743095546e-15
endloop
endfacet
facet normal 0.0 0.0 -1.0
outer loop
vertex 6.12323399573677e-16 10.0 -2.7
vertex 0.25881904510252 0.965925826289068 -2.7
vertex -8.88688640509077e-16 1.0 -2.7
endloop
endfacet
facet normal 0.0 0.0 -1.0
outer loop
vertex 0.25881904510252 0.965925826289068 -2.7
vertex 6.12323399573677e-16 10.0 -2.7
vertex 2.58819045102521 9.65925826289068 -2.7
endloop
endfacet
facet normal 0.0 0.0 -1.0
outer loop
vertex 0.25881904510252 0.965925826289068 -2.7
vertex 2.58819045102521 9.65925826289068 -2.7
vertex 0.499999999999999 0.866025403784439 -2.7
endloop
endfacet
facet normal 0.0 0.0 -1.0
outer loop
vertex 0.499999999999999 0.866025403784439 -2.7
vertex 2.58819045102521 9.65925826289068 -2.7
vertex 0.707106781186547 0.707106781186548 -2.7
endloop
endfacet
facet normal 0.0 0.0 -1.0
outer loop
vertex 0.707106781186547 0.707106781186548 -2.7
vertex 2.58819045102521 9.65925826289068 -2.7
vertex 0.866025403784438 0.5 -2.7
endloop
endfacet
facet normal 0.0 0.0 -1.0
outer loop
vertex 0.866025403784438 0.5 -2.7
vertex 2.58819045102521 9.65925826289068 -2.7
vertex 0.965925826289067 0.258819045102521 -2.7
endloop
endfacet
facet normal 0.0 0.0 -1.0
outer loop
vertex 0.965925826289067 0.258819045102521 -2.7
vertex 2.58819045102521 9.65925826289068 -2.7
vertex 0.999999999999999 2.44929359829471e-16 -2.7
endloop
endfacet
facet normal 0.0 0.0 -1.0
outer loop
vertex 0.999999999999999 2.44929359829471e-16 -2.7
vertex 2.58819045102521 9.65925826289068 -2.7
vertex 10.0 1.01887702959511e-32 -2.7
endloop
endfacet
facet normal 0.0 0.0 -1.0
outer loop
vertex 10.0 1.01887702959511e-32 -2.7
vertex 2.58819045102521 9.65925826289068 -2.7
vertex 5.0 8.66025403784439 -2.7
endloop
endfacet
facet normal 0.0 0.0 -1.0
outer loop
vertex 10.0 1.01887702959511e-32 -2.7
vertex 5.0 8.66025403784439 -2.7
vertex 7.07106781186548 7.07106781186547 -2.7
endloop
endfacet
facet normal 0.0 0.0 -1.0
outer loop
vertex 10.0 1.01887702959511e-32 -2.7
vertex 7.07106781186548 7.07106781186547 -2.7
vertex 8.66025403784439 5.0 -2.7
endloop
endfacet
facet normal 0.0 0.0 -1.0
outer loop
vertex 10.0 1.01887702959511e-32 -2.7
vertex 8.66025403784439 5.0 -2.7
vertex 9.65925826289068 2.58819045102521 -2.7
endloop
endfacet
facet normal 0.99144486137381 -0.130526192220052 0.0
outer loop
vertex 10.0 1.01887702959511e-32 -2.7
vertex 9.65925826289068 -2.58819045102522 3.0
vertex 9.65925826289068 -2.58819045102522 -2.7
endloop
endfacet
facet normal 0.99144486137381 -0.130526192220052 0.0
outer loop
vertex 9.65925826289068 -2.58819045102522 3.0
vertex 10.0 1.01887702959511e-32 -2.7
vertex 10.0 0.0 3.0
endloop
endfacet
facet normal 0.130526192220052 0.99144486137381 0.0
outer loop
vertex 6.12323399573677e-16 10.0 3.0
vertex 2.58819045102521 9.65925826289068 -2.7
vertex 6.12323399573677e-16 10.0 -2.7
endloop
endfacet
facet normal 0.130526192220052 0.99144486137381 0.0
outer loop
vertex 2.58819045102521 9.65925826289068 -2.7
vertex 6.12323399573677e-16 10.0 3.0
vertex 2.58819045102521 9.65925826289068 3.0
endloop
endfacet
facet normal 0.0 0.0 -1.0
outer loop
vertex -9.65925826289068 2.58819045102521 -2.7
vertex -1.0 4.89858719658941e-16 -2.7
vertex -10.0 1.22464679914735e-15 -2.7
endloop
endfacet
facet normal 0.0 0.0 -1.0
outer loop
vertex -1.0 4.89858719658941e-16 -2.7
vertex -9.65925826289068 2.58819045102521 -2.7
vertex -8.66025403784439 5.0 -2.7
endloop
endfacet
facet normal 0.0 0.0 -1.0
outer loop
vertex -1.0 4.89858719658941e-16 -2.7
vertex -8.66025403784439 5.0 -2.7
vertex -7.07106781186547 7.07106781186548 -2.7
endloop
endfacet
facet normal 0.0 0.0 -1.0
outer loop
vertex -1.0 4.89858719658941e-16 -2.7
vertex -7.07106781186547 7.07106781186548 -2.7
vertex -5.0 8.66025403784439 -2.7
endloop
endfacet
facet normal 0.0 0.0 -1.0
outer loop
vertex -1.0 4.89858719658941e-16 -2.7
vertex -5.0 8.66025403784439 -2.7
vertex -2.58819045102521 9.65925826289068 -2.7
endloop
endfacet
facet normal 0.0 0.0 -1.0
outer loop
vertex -1.0 4.89858719658941e-16 -2.7
vertex -2.58819045102521 9.65925826289068 -2.7
vertex 6.12323399573677e-16 10.0 -2.7
endloop
endfacet
facet normal 0.0 0.0 -1.0
outer loop
vertex -1.0 4.89858719658941e-16 -2.7
vertex 6.12323399573677e-16 10.0 -2.7
vertex -0.965925826289069 0.258819045102522 -2.7
endloop
endfacet
facet normal 0.0 0.0 -1.0
outer loop
vertex -0.965925826289069 0.258819045102522 -2.7
vertex 6.12323399573677e-16 10.0 -2.7
vertex -0.866025403784439 0.500000000000001 -2.7
endloop
endfacet
facet normal 0.0 0.0 -1.0
outer loop
vertex -0.866025403784439 0.500000000000001 -2.7
vertex 6.12323399573677e-16 10.0 -2.7
vertex -0.707106781186548 0.707106781186548 -2.7
endloop
endfacet
facet normal 0.0 0.0 -1.0
outer loop
vertex -0.707106781186548 0.707106781186548 -2.7
vertex 6.12323399573677e-16 10.0 -2.7
vertex -0.500000000000001 0.866025403784439 -2.7
endloop
endfacet
facet normal 0.0 0.0 -1.0
outer loop
vertex -0.500000000000001 0.866025403784439 -2.7
vertex 6.12323399573677e-16 10.0 -2.7
vertex -0.258819045102521 0.965925826289069 -2.7
endloop
endfacet
facet normal 0.0 0.0 -1.0
outer loop
vertex -0.258819045102521 0.965925826289069 -2.7
vertex 6.12323399573677e-16 10.0 -2.7
vertex -8.88688640509077e-16 1.0 -2.7
endloop
endfacet
facet normal 0.923879532511287 -0.382683432365091 0.0
outer loop
vertex 9.65925826289068 -2.58819045102522 -2.7
vertex 8.66025403784438 -5.0 3.0
vertex 8.66025403784438 -5.0 -2.7
endloop
endfacet
facet normal 0.923879532511287 -0.382683432365091 0.0
outer loop
vertex 8.66025403784438 -5.0 3.0
vertex 9.65925826289068 -2.58819045102522 -2.7
vertex 9.65925826289068 -2.58819045102522 3.0
endloop
endfacet
facet normal -0.382683432365089 0.923879532511287 0.0
outer loop
vertex -5.0 8.66025403784439 3.0
vertex -2.58819045102521 9.65925826289068 -2.7
vertex -5.0 8.66025403784439 -2.7
endloop
endfacet
facet normal -0.382683432365089 0.923879532511287 0.0
outer loop
vertex -2.58819045102521 9.65925826289068 -2.7
vertex -5.0 8.66025403784439 3.0
vertex -2.58819045102521 9.65925826289068 3.0
endloop
endfacet
facet normal -0.923879532511287 -0.382683432365089 -0.0
outer loop
vertex -9.65925826289068 -2.5881904510252 3.0
vertex -8.66025403784439 -5.0 -2.7
vertex -8.66025403784439 -5.0 3.0
endloop
endfacet
facet normal -0.923879532511287 -0.382683432365089 -0.0
outer loop
vertex -8.66025403784439 -5.0 -2.7
vertex -9.65925826289068 -2.5881904510252 3.0
vertex -9.65925826289068 -2.5881904510252 -2.7
endloop
endfacet
facet normal -0.866025403784438 0.5 5.71386145651824e-33
outer loop
vertex 7.5 0.0 3.0
vertex 3.74999999999999 -6.49519052838329 3.52495810318487e-16
vertex 3.74999999999999 -6.49519052838329 3.0
endloop
endfacet
facet normal -0.866025403784438 0.5 5.71386145651824e-33
outer loop
vertex 3.74999999999999 -6.49519052838329 3.52495810318487e-16
vertex 7.5 0.0 3.0
vertex 7.5 0.0 3.52495810318487e-16
endloop
endfacet
facet normal 0.991444861373811 0.130526192220051 0.0
outer loop
vertex -1.0 4.89858719658941e-16 -2.7
vertex -0.965925826289069 -0.25881904510252 1.05748743095546e-15
vertex -0.965925826289069 -0.25881904510252 -2.7
endloop
endfacet
facet normal 0.991444861373811 0.130526192220051 0.0
outer loop
vertex -0.965925826289069 -0.25881904510252 1.05748743095546e-15
vertex -1.0 4.89858719658941e-16 -2.7
vertex -1.0 4.89858719658941e-16 1.05748743095546e-15
endloop
endfacet
facet normal 0.793353340291235 -0.608761429008721 -0.0
outer loop
vertex -0.707106781186548 0.707106781186548 -2.7
vertex -0.866025403784439 0.500000000000001 1.05748743095546e-15
vertex -0.866025403784439 0.500000000000001 -2.7
endloop
endfacet
facet normal 0.793353340291235 -0.608761429008721 -0.0
outer loop
vertex -0.866025403784439 0.500000000000001 1.05748743095546e-15
vertex -0.707106781186548 0.707106781186548 -2.7
vertex -0.707106781186548 0.707106781186548 1.05748743095546e-15
endloop
endfacet
facet normal -0.608761429008721 0.793353340291235 0.0
outer loop
vertex -7.07106781186547 7.07106781186548 3.0
vertex -5.0 8.66025403784439 -2.7
vertex -7.07106781186547 7.07106781186548 -2.7
endloop
endfacet
facet normal -0.608761429008721 0.793353340291235 0.0
outer loop
vertex -5.0 8.66025403784439 -2.7
vertex -7.07106781186547 7.07106781186548 3.0
vertex -5.0 8.66025403784439 3.0
endloop
endfacet
facet normal 0.60876142900872 -0.793353340291236 0.0
outer loop
vertex 7.07106781186547 -7.07106781186548 3.0
vertex 4.99999999999999 -8.66025403784439 -2.7
vertex 7.07106781186547 -7.07106781186548 -2.7
endloop
endfacet
facet normal 0.60876142900872 -0.793353340291236 0.0
outer loop
vertex 4.99999999999999 -8.66025403784439 -2.7
vertex 7.07106781186547 -7.07106781186548 3.0
vertex 4.99999999999999 -8.66025403784439 3.0
endloop
endfacet
facet normal 0.923879532511287 -0.382683432365091 -0.0
outer loop
vertex -0.866025403784439 0.500000000000001 -2.7
vertex -0.965925826289069 0.258819045102522 1.05748743095546e-15
vertex -0.965925826289069 0.258819045102522 -2.7
endloop
endfacet
facet normal 0.923879532511287 -0.382683432365091 -0.0
outer loop
vertex -0.965925826289069 0.258819045102522 1.05748743095546e-15
vertex -0.866025403784439 0.500000000000001 -2.7
vertex -0.866025403784439 0.500000000000001 1.05748743095546e-15
endloop
endfacet
facet normal -0.130526192220052 0.99144486137381 -0.0
outer loop
vertex -1.01115332042381e-15 -0.999999999999999 1.05748743095546e-15
vertex 0.25881904510252 -0.965925826289068 -2.7
vertex -1.01115332042381e-15 -0.999999999999999 -2.7
endloop
endfacet
facet normal -0.130526192220052 0.99144486137381 -0.0
outer loop
vertex 0.25881904510252 -0.965925826289068 -2.7
vertex -1.01115332042381e-15 -0.999999999999999 1.05748743095546e-15
vertex 0.25881904510252 -0.965925826289068 1.05748743095546e-15
endloop
endfacet
facet normal -1.87997765503193e-16 -1.0 -1.28187994387248e-48
outer loop
vertex 3.75 6.49519052838329 3.0
vertex -3.75 6.49519052838329 3.52495810318487e-16
vertex 3.75 6.49519052838329 3.52495810318487e-16
endloop
endfacet
facet normal -1.87997765503193e-16 -1.0 -1.28187994387248e-48
outer loop
vertex -3.75 6.49519052838329 3.52495810318487e-16
vertex 3.75 6.49519052838329 3.0
vertex -3.75 6.49519052838329 3.0
endloop
endfacet
facet normal -0.923879532511287 0.38268343236509 0.0
outer loop
vertex -8.66025403784439 5.0 3.0
vertex -9.65925826289068 2.58819045102521 -2.7
vertex -9.65925826289068 2.58819045102521 3.0
endloop
endfacet
facet normal -0.923879532511287 0.38268343236509 0.0
outer loop
vertex -9.65925826289068 2.58819045102521 -2.7
vertex -8.66025403784439 5.0 3.0
vertex -8.66025403784439 5.0 -2.7
endloop
endfacet
facet normal 0.99144486137381 -0.130526192220052 -0.0
outer loop
vertex -0.965925826289069 0.258819045102522 -2.7
vertex -1.0 4.89858719658941e-16 1.05748743095546e-15
vertex -1.0 4.89858719658941e-16 -2.7
endloop
endfacet
facet normal 0.99144486137381 -0.130526192220052 -0.0
outer loop
vertex -1.0 4.89858719658941e-16 1.05748743095546e-15
vertex -0.965925826289069 0.258819045102522 -2.7
vertex -0.965925826289069 0.258819045102522 1.05748743095546e-15
endloop
endfacet
facet normal -0.130526192220052 -0.99144486137381 -0.0
outer loop
vertex -1.83697019872103e-15 -10.0 3.0
vertex -2.58819045102521 -9.65925826289068 -2.7
vertex -1.83697019872103e-15 -10.0 -2.7
endloop
endfacet
facet normal -0.130526192220052 -0.99144486137381 -0.0
outer loop
vertex -2.58819045102521 -9.65925826289068 -2.7
vertex -1.83697019872103e-15 -10.0 3.0
vertex -2.58819045102521 -9.65925826289068 3.0
endloop
endfacet
facet normal 0.608761429008721 -0.793353340291235 -0.0
outer loop
vertex -0.500000000000001 0.866025403784439 1.05748743095546e-15
vertex -0.707106781186548 0.707106781186548 -2.7
vertex -0.500000000000001 0.866025403784439 -2.7
endloop
endfacet
facet normal 0.608761429008721 -0.793353340291235 -0.0
outer loop
vertex -0.707106781186548 0.707106781186548 -2.7
vertex -0.500000000000001 0.866025403784439 1.05748743095546e-15
vertex -0.707106781186548 0.707106781186548 1.05748743095546e-15
endloop
endfacet
facet normal 0.130526192220051 -0.991444861373811 -0.0
outer loop
vertex -8.88688640509077e-16 1.0 1.05748743095546e-15
vertex -0.258819045102521 0.965925826289069 -2.7
vertex -8.88688640509077e-16 1.0 -2.7
endloop
endfacet
facet normal 0.130526192220051 -0.991444861373811 -0.0
outer loop
vertex -0.258819045102521 0.965925826289069 -2.7
vertex -8.88688640509077e-16 1.0 1.05748743095546e-15
vertex -0.258819045102521 0.965925826289069 1.05748743095546e-15
endloop
endfacet
facet normal -0.923879532511287 -0.382683432365089 -0.0
outer loop
vertex 0.866025403784438 0.5 1.05748743095546e-15
vertex 0.965925826289067 0.258819045102521 -2.7
vertex 0.965925826289067 0.258819045102521 1.05748743095546e-15
endloop
endfacet
facet normal -0.923879532511287 -0.382683432365089 -0.0
outer loop
vertex 0.965925826289067 0.258819045102521 -2.7
vertex 0.866025403784438 0.5 1.05748743095546e-15
vertex 0.866025403784438 0.5 -2.7
endloop
endfacet
facet normal -0.793353340291235 -0.60876142900872 -0.0
outer loop
vertex 0.707106781186547 0.707106781186548 1.05748743095546e-15
vertex 0.866025403784438 0.5 -2.7
vertex 0.866025403784438 0.5 1.05748743095546e-15
endloop
endfacet
facet normal -0.793353340291235 -0.60876142900872 -0.0
outer loop
vertex 0.866025403784438 0.5 -2.7
vertex 0.707106781186547 0.707106781186548 1.05748743095546e-15
vertex 0.707106781186547 0.707106781186548 -2.7
endloop
endfacet
facet normal 0.382683432365089 -0.923879532511287 -0.0
outer loop
vertex -0.258819045102521 0.965925826289069 1.05748743095546e-15
vertex -0.500000000000001 0.866025403784439 -2.7
vertex -0.258819045102521 0.965925826289069 -2.7
endloop
endfacet
facet normal 0.382683432365089 -0.923879532511287 -0.0
outer loop
vertex -0.500000000000001 0.866025403784439 -2.7
vertex -0.258819045102521 0.965925826289069 1.05748743095546e-15
vertex -0.500000000000001 0.866025403784439 1.05748743095546e-15
endloop
endfacet
facet normal -0.608761429008721 -0.793353340291235 -0.0
outer loop
vertex 0.707106781186547 0.707106781186548 1.05748743095546e-15
vertex 0.499999999999999 0.866025403784439 -2.7
vertex 0.707106781186547 0.707106781186548 -2.7
endloop
endfacet
facet normal -0.608761429008721 -0.793353340291235 -0.0
outer loop
vertex 0.499999999999999 0.866025403784439 -2.7
vertex 0.707106781186547 0.707106781186548 1.05748743095546e-15
vertex 0.499999999999999 0.866025403784439 1.05748743095546e-15
endloop
endfacet
facet normal -0.99144486137381 -0.130526192220052 -0.0
outer loop
vertex 0.965925826289067 0.258819045102521 1.05748743095546e-15
vertex 0.999999999999999 2.44929359829471e-16 -2.7
vertex 0.999999999999999 2.44929359829471e-16 1.05748743095546e-15
endloop
endfacet
facet normal -0.99144486137381 -0.130526192220052 -0.0
outer loop
vertex 0.999999999999999 2.44929359829471e-16 -2.7
vertex 0.965925826289067 0.258819045102521 1.05748743095546e-15
vertex 0.965925826289067 0.258819045102521 -2.7
endloop
endfacet
facet normal 0.38268343236509 0.923879532511287 0.0
outer loop
vertex 2.58819045102521 9.65925826289068 3.0
vertex 5.0 8.66025403784439 -2.7
vertex 2.58819045102521 9.65925826289068 -2.7
endloop
endfacet
facet normal 0.38268343236509 0.923879532511287 0.0
outer loop
vertex 5.0 8.66025403784439 -2.7
vertex 2.58819045102521 9.65925826289068 3.0
vertex 5.0 8.66025403784439 3.0
endloop
endfacet
facet normal 0.866025403784439 0.5 4.76155121376521e-33
outer loop
vertex -7.5 9.18485099360515e-16 3.52495810318487e-16
vertex -3.75 -6.49519052838329 3.0
vertex -3.75 -6.49519052838329 3.52495810318487e-16
endloop
endfacet
facet normal 0.866025403784439 0.5 4.76155121376521e-33
outer loop
vertex -3.75 -6.49519052838329 3.0
vertex -7.5 9.18485099360515e-16 3.52495810318487e-16
vertex -7.5 9.18485099360515e-16 3.0
endloop
endfacet
facet normal -0.382683432365091 -0.923879532511286 -0.0
outer loop
vertex -2.58819045102521 -9.65925826289068 3.0
vertex -5.0 -8.66025403784438 -2.7
vertex -2.58819045102521 -9.65925826289068 -2.7
endloop
endfacet
facet normal -0.382683432365091 -0.923879532511286 -0.0
outer loop
vertex -5.0 -8.66025403784438 -2.7
vertex -2.58819045102521 -9.65925826289068 3.0
vertex -5.0 -8.66025403784438 3.0
endloop
endfacet
facet normal 0.382683432365089 -0.923879532511287 0.0
outer loop
vertex 4.99999999999999 -8.66025403784439 3.0
vertex 2.5881904510252 -9.65925826289068 -2.7
vertex 4.99999999999999 -8.66025403784439 -2.7
endloop
endfacet
facet normal 0.382683432365089 -0.923879532511287 0.0
outer loop
vertex 2.5881904510252 -9.65925826289068 -2.7
vertex 4.99999999999999 -8.66025403784439 3.0
vertex 2.5881904510252 -9.65925826289068 3.0
endloop
endfacet
facet normal -0.923879532511287 0.38268343236509 -0.0
outer loop
vertex 0.965925826289067 -0.258819045102521 1.05748743095546e-15
vertex 0.866025403784437 -0.5 -2.7
vertex 0.866025403784437 -0.5 1.05748743095546e-15
endloop
endfacet
facet normal -0.923879532511287 0.38268343236509 -0.0
outer loop
vertex 0.866025403784437 -0.5 -2.7
vertex 0.965925826289067 -0.258819045102521 1.05748743095546e-15
vertex 0.965925826289067 -0.258819045102521 -2.7
endloop
endfacet
facet normal 0.608761429008721 0.793353340291235 0.0
outer loop
vertex 5.0 8.66025403784439 3.0
vertex 7.07106781186548 7.07106781186547 -2.7
vertex 5.0 8.66025403784439 -2.7
endloop
endfacet
facet normal 0.608761429008721 0.793353340291235 0.0
outer loop
vertex 7.07106781186548 7.07106781186547 -2.7
vertex 5.0 8.66025403784439 3.0
vertex 7.07106781186548 7.07106781186547 3.0
endloop
endfacet
facet normal -0.793353340291235 0.608761429008721 0.0
outer loop
vertex -7.07106781186547 7.07106781186548 3.0
vertex -8.66025403784439 5.0 -2.7
vertex -8.66025403784439 5.0 3.0
endloop
endfacet
facet normal -0.793353340291235 0.608761429008721 0.0
outer loop
vertex -8.66025403784439 5.0 -2.7
vertex -7.07106781186547 7.07106781186548 3.0
vertex -7.07106781186547 7.07106781186548 -2.7
endloop
endfacet
facet normal -0.130526192220052 -0.99144486137381 -0.0
outer loop
vertex 0.25881904510252 0.965925826289068 1.05748743095546e-15
vertex -8.88688640509077e-16 1.0 -2.7
vertex 0.25881904510252 0.965925826289068 -2.7
endloop
endfacet
facet normal -0.130526192220052 -0.99144486137381 -0.0
outer loop
vertex -8.88688640509077e-16 1.0 -2.7
vertex 0.25881904510252 0.965925826289068 1.05748743095546e-15
vertex -8.88688640509077e-16 1.0 1.05748743095546e-15
endloop
endfacet
facet normal 0.382683432365091 0.923879532511287 0.0
outer loop
vertex -0.500000000000001 -0.866025403784438 1.05748743095546e-15
vertex -0.258819045102523 -0.965925826289067 -2.7
vertex -0.500000000000001 -0.866025403784438 -2.7
endloop
endfacet
facet normal 0.382683432365091 0.923879532511287 0.0
outer loop
vertex -0.258819045102523 -0.965925826289067 -2.7
vertex -0.500000000000001 -0.866025403784438 1.05748743095546e-15
vertex -0.258819045102523 -0.965925826289067 1.05748743095546e-15
endloop
endfacet
facet normal 0.130526192220051 -0.99144486137381 0.0
outer loop
vertex 2.5881904510252 -9.65925826289068 3.0
vertex -1.83697019872103e-15 -10.0 -2.7
vertex 2.5881904510252 -9.65925826289068 -2.7
endloop
endfacet
facet normal 0.130526192220051 -0.99144486137381 0.0
outer loop
vertex -1.83697019872103e-15 -10.0 -2.7
vertex 2.5881904510252 -9.65925826289068 3.0
vertex -1.83697019872103e-15 -10.0 3.0
endloop
endfacet
facet normal -0.866025403784439 -0.5 -2.69231468478129e-17
outer loop
vertex 3.75 6.49519052838329 3.0
vertex 7.5 0.0 3.52495810318487e-16
vertex 7.5 0.0 3.0
endloop
endfacet
facet normal -0.866025403784439 -0.5 -2.69231468478129e-17
outer loop
vertex 7.5 0.0 3.52495810318487e-16
vertex 3.75 6.49519052838329 3.0
vertex 3.75 6.49519052838329 3.52495810318487e-16
endloop
endfacet
facet normal 0.793353340291235 -0.60876142900872 0.0
outer loop
vertex 8.66025403784438 -5.0 -2.7
vertex 7.07106781186547 -7.07106781186548 3.0
vertex 7.07106781186547 -7.07106781186548 -2.7
endloop
endfacet
facet normal 0.793353340291235 -0.60876142900872 0.0
outer loop
vertex 7.07106781186547 -7.07106781186548 3.0
vertex 8.66025403784438 -5.0 -2.7
vertex 8.66025403784438 -5.0 3.0
endloop
endfacet
facet normal -0.99144486137381 0.130526192220052 -0.0
outer loop
vertex 0.999999999999999 2.44929359829471e-16 1.05748743095546e-15
vertex 0.965925826289067 -0.258819045102521 -2.7
vertex 0.965925826289067 -0.258819045102521 1.05748743095546e-15
endloop
endfacet
facet normal -0.99144486137381 0.130526192220052 -0.0
outer loop
vertex 0.965925826289067 -0.258819045102521 -2.7
vertex 0.999999999999999 2.44929359829471e-16 1.05748743095546e-15
vertex 0.999999999999999 2.44929359829471e-16 -2.7
endloop
endfacet
facet normal -0.38268343236509 0.923879532511287 -0.0
outer loop
vertex 0.25881904510252 -0.965925826289068 1.05748743095546e-15
vertex 0.499999999999999 -0.866025403784438 -2.7
vertex 0.25881904510252 -0.965925826289068 -2.7
endloop
endfacet
facet normal -0.38268343236509 0.923879532511287 -0.0
outer loop
vertex 0.499999999999999 -0.866025403784438 -2.7
vertex 0.25881904510252 -0.965925826289068 1.05748743095546e-15
vertex 0.499999999999999 -0.866025403784438 1.05748743095546e-15
endloop
endfacet
facet normal -0.60876142900872 0.793353340291236 -0.0
outer loop
vertex 0.499999999999999 -0.866025403784438 1.05748743095546e-15
vertex 0.707106781186546 -0.707106781186547 -2.7
vertex 0.499999999999999 -0.866025403784438 -2.7
endloop
endfacet
facet normal -0.60876142900872 0.793353340291236 -0.0
outer loop
vertex 0.707106781186546 -0.707106781186547 -2.7
vertex 0.499999999999999 -0.866025403784438 1.05748743095546e-15
vertex 0.707106781186546 -0.707106781186547 1.05748743095546e-15
endloop
endfacet
facet normal -0.0 -0.0 1.0
outer loop
vertex -3.75 -6.49519052838329 3.52495810318487e-16
vertex -3.75 6.49519052838329 3.52495810318487e-16
vertex -7.5 9.18485099360515e-16 3.52495810318487e-16
endloop
endfacet
facet normal -0.0 -0.0 1.0
outer loop
vertex -3.75 6.49519052838329 3.52495810318487e-16
vertex -3.75 -6.49519052838329 3.52495810318487e-16
vertex -0.965925826289069 -0.25881904510252 1.05748743095546e-15
endloop
endfacet
facet normal -0.0 -0.0 1.0
outer loop
vertex -0.965925826289069 -0.25881904510252 1.05748743095546e-15
vertex -3.75 -6.49519052838329 3.52495810318487e-16
vertex -0.86602540378444 -0.499999999999999 1.05748743095546e-15
endloop
endfacet
facet normal -0.0 -0.0 1.0
outer loop
vertex -0.86602540378444 -0.499999999999999 1.05748743095546e-15
vertex -3.75 -6.49519052838329 3.52495810318487e-16
vertex -0.707106781186549 -0.707106781186547 1.05748743095546e-15
endloop
endfacet
facet normal -0.0 -0.0 1.0
outer loop
vertex -0.707106781186549 -0.707106781186547 1.05748743095546e-15
vertex -3.75 -6.49519052838329 3.52495810318487e-16
vertex 3.74999999999999 -6.49519052838329 3.52495810318487e-16
endloop
endfacet
facet normal -0.0 -0.0 1.0
outer loop
vertex -3.75 6.49519052838329 3.52495810318487e-16
vertex -0.965925826289069 -0.25881904510252 1.05748743095546e-15
vertex -1.0 4.89858719658941e-16 1.05748743095546e-15
endloop
endfacet
facet normal -0.0 -0.0 1.0
outer loop
vertex -0.707106781186549 -0.707106781186547 1.05748743095546e-15
vertex 3.74999999999999 -6.49519052838329 3.52495810318487e-16
vertex -0.500000000000001 -0.866025403784438 1.05748743095546e-15
endloop
endfacet
facet normal -0.0 -0.0 1.0
outer loop
vertex -0.500000000000001 -0.866025403784438 1.05748743095546e-15
vertex 3.74999999999999 -6.49519052838329 3.52495810318487e-16
vertex -0.258819045102523 -0.965925826289067 1.05748743095546e-15
endloop
endfacet
facet normal -0.0 -0.0 1.0
outer loop
vertex -0.258819045102523 -0.965925826289067 1.05748743095546e-15
vertex 3.74999999999999 -6.49519052838329 3.52495810318487e-16
vertex -1.01115332042381e-15 -0.999999999999999 1.05748743095546e-15
endloop
endfacet
facet normal -0.0 -0.0 1.0
outer loop
vertex -1.01115332042381e-15 -0.999999999999999 1.05748743095546e-15
vertex 3.74999999999999 -6.49519052838329 3.52495810318487e-16
vertex 0.25881904510252 -0.965925826289068 1.05748743095546e-15
endloop
endfacet
facet normal -0.0 -0.0 1.0
outer loop
vertex 0.25881904510252 -0.965925826289068 1.05748743095546e-15
vertex 3.74999999999999 -6.49519052838329 3.52495810318487e-16
vertex 0.499999999999999 -0.866025403784438 1.05748743095546e-15
endloop
endfacet
facet normal -0.0 -0.0 1.0
outer loop
vertex 0.499999999999999 -0.866025403784438 1.05748743095546e-15
vertex 3.74999999999999 -6.49519052838329 3.52495810318487e-16
vertex 0.707106781186546 -0.707106781186547 1.05748743095546e-15
endloop
endfacet
facet normal -0.0 -0.0 1.0
outer loop
vertex 0.707106781186546 -0.707106781186547 1.05748743095546e-15
vertex 3.74999999999999 -6.49519052838329 3.52495810318487e-16
vertex 0.866025403784437 -0.5 1.05748743095546e-15
endloop
endfacet
facet normal -0.0 -0.0 1.0
outer loop
vertex 0.866025403784437 -0.5 1.05748743095546e-15
vertex 3.74999999999999 -6.49519052838329 3.52495810318487e-16
vertex 0.965925826289067 -0.258819045102521 1.05748743095546e-15
endloop
endfacet
facet normal -0.0 -0.0 1.0
outer loop
vertex 0.965925826289067 -0.258819045102521 1.05748743095546e-15
vertex 3.74999999999999 -6.49519052838329 3.52495810318487e-16
vertex 0.999999999999999 2.44929359829471e-16 1.05748743095546e-15
endloop
endfacet
facet normal -0.0 -0.0 1.0
outer loop
vertex -3.75 6.49519052838329 3.52495810318487e-16
vertex -0.707106781186548 0.707106781186548 1.05748743095546e-15
vertex 3.75 6.49519052838329 3.52495810318487e-16
endloop
endfacet
facet normal -0.0 -0.0 1.0
outer loop
vertex -0.707106781186548 0.707106781186548 1.05748743095546e-15
vertex -3.75 6.49519052838329 3.52495810318487e-16
vertex -0.866025403784439 0.500000000000001 1.05748743095546e-15
endloop
endfacet
facet normal -0.0 -0.0 1.0
outer loop
vertex -0.866025403784439 0.500000000000001 1.05748743095546e-15
vertex -3.75 6.49519052838329 3.52495810318487e-16
vertex -0.965925826289069 0.258819045102522 1.05748743095546e-15
endloop
endfacet
facet normal -0.0 -0.0 1.0
outer loop
vertex -0.965925826289069 0.258819045102522 1.05748743095546e-15
vertex -3.75 6.49519052838329 3.52495810318487e-16
vertex -1.0 4.89858719658941e-16 1.05748743095546e-15
endloop
endfacet
facet normal -0.0 -0.0 1.0
outer loop
vertex 3.75 6.49519052838329 3.52495810318487e-16
vertex -0.707106781186548 0.707106781186548 1.05748743095546e-15
vertex -0.500000000000001 0.866025403784439 1.05748743095546e-15
endloop
endfacet
facet normal -0.0 -0.0 1.0
outer loop
vertex 3.75 6.49519052838329 3.52495810318487e-16
vertex -0.500000000000001 0.866025403784439 1.05748743095546e-15
vertex -0.258819045102521 0.965925826289069 1.05748743095546e-15
endloop
endfacet
facet normal -0.0 -0.0 1.0
outer loop
vertex 3.75 6.49519052838329 3.52495810318487e-16
vertex -0.258819045102521 0.965925826289069 1.05748743095546e-15
vertex -8.88688640509077e-16 1.0 1.05748743095546e-15
endloop
endfacet
facet normal -0.0 -0.0 1.0
outer loop
vertex 3.75 6.49519052838329 3.52495810318487e-16
vertex -8.88688640509077e-16 1.0 1.05748743095546e-15
vertex 0.25881904510252 0.965925826289068 1.05748743095546e-15
endloop
endfacet
facet normal -0.0 -0.0 1.0
outer loop
vertex 3.75 6.49519052838329 3.52495810318487e-16
vertex 0.25881904510252 0.965925826289068 1.05748743095546e-15
vertex 0.499999999999999 0.866025403784439 1.05748743095546e-15
endloop
endfacet
facet normal -0.0 -0.0 1.0
outer loop
vertex 3.75 6.49519052838329 3.52495810318487e-16
vertex 0.499999999999999 0.866025403784439 1.05748743095546e-15
vertex 0.707106781186547 0.707106781186548 1.05748743095546e-15
endloop
endfacet
facet normal -0.0 -0.0 1.0
outer loop
vertex 3.75 6.49519052838329 3.52495810318487e-16
vertex 0.707106781186547 0.707106781186548 1.05748743095546e-15
vertex 0.866025403784438 0.5 1.05748743095546e-15
endloop
endfacet
facet normal -0.0 -0.0 1.0
outer loop
vertex 3.75 6.49519052838329 3.52495810318487e-16
vertex 0.866025403784438 0.5 1.05748743095546e-15
vertex 0.965925826289067 0.258819045102521 1.05748743095546e-15
endloop
endfacet
facet normal -0.0 -0.0 1.0
outer loop
vertex 3.75 6.49519052838329 3.52495810318487e-16
vertex 0.965925826289067 0.258819045102521 1.05748743095546e-15
vertex 0.999999999999999 2.44929359829471e-16 1.05748743095546e-15
endloop
endfacet
facet normal -0.0 -0.0 1.0
outer loop
vertex 3.75 6.49519052838329 3.52495810318487e-16
vertex 0.999999999999999 2.44929359829471e-16 1.05748743095546e-15
vertex 3.74999999999999 -6.49519052838329 3.52495810318487e-16
endloop
endfacet
facet normal -0.0 -0.0 1.0
outer loop
vertex 3.75 6.49519052838329 3.52495810318487e-16
vertex 3.74999999999999 -6.49519052838329 3.52495810318487e-16
vertex 7.5 0.0 3.52495810318487e-16
endloop
endfacet
facet normal -0.130526192220052 0.99144486137381 0.0
outer loop
vertex -2.58819045102521 9.65925826289068 3.0
vertex 6.12323399573677e-16 10.0 -2.7
vertex -2.58819045102521 9.65925826289068 -2.7
endloop
endfacet
facet normal -0.130526192220052 0.99144486137381 0.0
outer loop
vertex 6.12323399573677e-16 10.0 -2.7
vertex -2.58819045102521 9.65925826289068 3.0
vertex 6.12323399573677e-16 10.0 3.0
endloop
endfacet
facet normal 0.793353340291236 0.60876142900872 0.0
outer loop
vertex -0.86602540378444 -0.499999999999999 -2.7
vertex -0.707106781186549 -0.707106781186547 1.05748743095546e-15
vertex -0.707106781186549 -0.707106781186547 -2.7
endloop
endfacet
facet normal 0.793353340291236 0.60876142900872 0.0
outer loop
vertex -0.707106781186549 -0.707106781186547 1.05748743095546e-15
vertex -0.86602540378444 -0.499999999999999 -2.7
vertex -0.86602540378444 -0.499999999999999 1.05748743095546e-15
endloop
endfacet
facet normal 0.793353340291235 0.608761429008721 0.0
outer loop
vertex 7.07106781186548 7.07106781186547 -2.7
vertex 8.66025403784439 5.0 3.0
vertex 8.66025403784439 5.0 -2.7
endloop
endfacet
facet normal 0.793353340291235 0.608761429008721 0.0
outer loop
vertex 8.66025403784439 5.0 3.0
vertex 7.07106781186548 7.07106781186547 -2.7
vertex 7.07106781186548 7.07106781186547 3.0
endloop
endfacet
facet normal 0.923879532511287 0.382683432365089 0.0
outer loop
vertex -0.965925826289069 -0.25881904510252 -2.7
vertex -0.86602540378444 -0.499999999999999 1.05748743095546e-15
vertex -0.86602540378444 -0.499999999999999 -2.7
endloop
endfacet
facet normal 0.923879532511287 0.382683432365089 0.0
outer loop
vertex -0.86602540378444 -0.499999999999999 1.05748743095546e-15
vertex -0.965925826289069 -0.25881904510252 -2.7
vertex -0.965925826289069 -0.25881904510252 1.05748743095546e-15
endloop
endfacet
facet normal 0.0 0.0 -1.0
outer loop
vertex -1.01115332042381e-15 -0.999999999999999 -2.7
vertex 2.5881904510252 -9.65925826289068 -2.7
vertex -1.83697019872103e-15 -10.0 -2.7
endloop
endfacet
facet normal 0.0 0.0 -1.0
outer loop
vertex 2.5881904510252 -9.65925826289068 -2.7
vertex -1.01115332042381e-15 -0.999999999999999 -2.7
vertex 0.25881904510252 -0.965925826289068 -2.7
endloop
endfacet
facet normal 0.0 0.0 -1.0
outer loop
vertex 2.5881904510252 -9.65925826289068 -2.7
vertex 0.25881904510252 -0.965925826289068 -2.7
vertex 0.499999999999999 -0.866025403784438 -2.7
endloop
endfacet
facet normal 0.0 0.0 -1.0
outer loop
vertex 2.5881904510252 -9.65925826289068 -2.7
vertex 0.499999999999999 -0.866025403784438 -2.7
vertex 0.707106781186546 -0.707106781186547 -2.7
endloop
endfacet
facet normal 0.0 0.0 -1.0
outer loop
vertex 2.5881904510252 -9.65925826289068 -2.7
vertex 0.707106781186546 -0.707106781186547 -2.7
vertex 0.866025403784437 -0.5 -2.7
endloop
endfacet
facet normal 0.0 0.0 -1.0
outer loop
vertex 2.5881904510252 -9.65925826289068 -2.7
vertex 0.866025403784437 -0.5 -2.7
vertex 0.965925826289067 -0.258819045102521 -2.7
endloop
endfacet
facet normal 0.0 0.0 -1.0
outer loop
vertex 2.5881904510252 -9.65925826289068 -2.7
vertex 0.965925826289067 -0.258819045102521 -2.7
vertex 0.999999999999999 2.44929359829471e-16 -2.7
endloop
endfacet
facet normal 0.0 0.0 -1.0
outer loop
vertex 2.5881904510252 -9.65925826289068 -2.7
vertex 0.999999999999999 2.44929359829471e-16 -2.7
vertex 10.0 1.01887702959511e-32 -2.7
endloop
endfacet
facet normal 0.0 0.0 -1.0
outer loop
vertex 2.5881904510252 -9.65925826289068 -2.7
vertex 10.0 1.01887702959511e-32 -2.7
vertex 4.99999999999999 -8.66025403784439 -2.7
endloop
endfacet
facet normal 0.0 0.0 -1.0
outer loop
vertex 4.99999999999999 -8.66025403784439 -2.7
vertex 10.0 1.01887702959511e-32 -2.7
vertex 7.07106781186547 -7.07106781186548 -2.7
endloop
endfacet
facet normal 0.0 0.0 -1.0
outer loop
vertex 7.07106781186547 -7.07106781186548 -2.7
vertex 10.0 1.01887702959511e-32 -2.7
vertex 8.66025403784438 -5.0 -2.7
endloop
endfacet
facet normal 0.0 0.0 -1.0
outer loop
vertex 8.66025403784438 -5.0 -2.7
vertex 10.0 1.01887702959511e-32 -2.7
vertex 9.65925826289068 -2.58819045102522 -2.7
endloop
endfacet
