solid Z-axes base
facet normal -0.923879532511286 0.382683432365092 -5.69085032799957e-31
outer loop
vertex 18.0880559572851 -23.8287685334396 67.0576468398897
vertex 17.9032401756515 -24.2749533 61.5576468398897
vertex 17.9032401756515 -24.2749533 67.0576468398897
endloop
endfacet
facet normal -0.923879532511286 0.382683432365092 -5.69085032799957e-31
outer loop
vertex 17.9032401756515 -24.2749533 61.5576468398897
vertex 18.0880559572851 -23.8287685334396 67.0576468398897
vertex 18.0880559572851 -23.8287685334396 61.5576468398897
endloop
endfacet
facet normal -1.0 -1.58945535037764e-17 -1.42348674966451e-16
outer loop
vertex 8.49894237865004 -59.9537212275373 67.0576468398896
vertex 8.49894237865004 -69.4068180593197 55.0206468249762
vertex 8.49894237865004 -71.6918483631931 56.3720083047854
endloop
endfacet
facet normal -1.0 -1.58945535037764e-17 -1.42348674966451e-16
outer loop
vertex 8.49894237865004 -69.4068180593197 55.0206468249762
vertex 8.49894237865004 -59.9537212275373 67.0576468398896
vertex 8.49894237865004 -68.2938961653789 54.8741278780192
endloop
endfacet
facet normal -1.0 -1.58945535037764e-17 -1.42348674966451e-16
outer loop
vertex 8.49894237865004 -68.2938961653789 54.8741278780192
vertex 8.49894237865004 -59.9537212275373 67.0576468398896
vertex 8.49894237865004 -67.2568180593197 54.4445560612493
endloop
endfacet
facet normal -1.0 -1.58945535037764e-17 -1.42348674966451e-16
outer loop
vertex 8.49894237865004 -67.2568180593197 54.4445560612493
vertex 8.49894237865004 -59.9537212275373 67.0576468398896
vertex 8.49894237865004 -62.0498909000002 61.5576468398902
endloop
endfacet
facet normal -1.0 -1.58945535037764e-17 -1.42348674966451e-16
outer loop
vertex 8.49894237865004 -67.2568180593197 54.4445560612493
vertex 8.49894237865004 -62.0498909000002 61.5576468398902
vertex 8.49894237865004 -62.0498909000002 54.4445560612493
endloop
endfacet
facet normal -1.0 -1.58945535037764e-17 -1.42348674966451e-16
outer loop
vertex 8.49894237865004 -62.0498909000002 61.5576468398902
vertex 8.49894237865004 -59.9537212275373 67.0576468398896
vertex 8.49894237865004 -52.9771315881776 61.5576468398899
endloop
endfacet
facet normal -1.0 -1.58945535037764e-17 -1.42348674966451e-16
outer loop
vertex 8.49894237865004 -52.9771315881776 61.5576468398899
vertex 8.49894237865004 -59.9537212275373 67.0576468398896
vertex 8.49894237865004 -52.9771315881777 67.0576468398896
endloop
endfacet
facet normal -3.10027588658943e-07 -0.608761429008694 -0.793353340291195
outer loop
vertex 36.0010931786506 -66.3662649813354 53.7611999029601
vertex 8.49894237865004 -67.2568180593197 54.4445560612493
vertex 8.49894237865004 -66.3662589002175 53.7612059840783
endloop
endfacet
facet normal -3.10027588658943e-07 -0.608761429008694 -0.793353340291195
outer loop
vertex 8.49894237865004 -67.2568180593197 54.4445560612493
vertex 36.0010931786506 -66.3662649813354 53.7611999029601
vertex 36.0010931786505 -67.2568223593194 54.4445486134309
endloop
endfacet
facet normal 0.38834561463954 -0.921513799999891 9.55299810562934e-15
outer loop
vertex -4.83812984500414 -23.9276529757169 67.0663058195771
vertex -7.36960342503428 -24.9944700579795 61.5626393361011
vertex -4.83812984500417 -23.927652975717 61.5663058195771
endloop
endfacet
facet normal -3.10027585434159e-07 -0.92387953251125 -0.382683432365053
outer loop
vertex 36.0010931786506 -65.6829162708647 52.8706425249763
vertex 8.49894237865004 -65.2533370062767 51.833568718917
vertex 36.0010931786506 -65.2533453132384 51.8335664930733
endloop
endfacet
facet normal -3.10027585434159e-07 -0.92387953251125 -0.382683432365053
outer loop
vertex 8.49894237865004 -65.2533370062767 51.833568718917
vertex 36.0010931786506 -65.6829162708647 52.8706425249763
vertex 8.49894237865004 -65.6829088230466 52.8706468249762
endloop
endfacet
facet normal -0.38282345135907 -0.923821522313444 -1.27760398417617e-15
outer loop
vertex 8.78094187266101 -24.9761058477727 67.0576468398897
vertex 4.89817231238913 -23.367120553543 61.5576468398896
vertex 8.780941872661 -24.9761058477727 61.5576468398896
endloop
endfacet
facet normal -0.38282345135907 -0.923821522313444 -1.27760398417617e-15
outer loop
vertex 4.89817231238913 -23.367120553543 61.5576468398896
vertex 8.78094187266101 -24.9761058477727 67.0576468398897
vertex 4.89817231238914 -23.367120553543 67.0576468398897
endloop
endfacet
facet normal 0.613615461598826 -0.789602551141788 0.00196888731000033
outer loop
vertex -7.36269448729227 -24.9753805611167 67.0650793925512
vertex -10.6447702933895 -27.5396782218783 61.5576468398893
vertex -7.36960342503428 -24.9944700579795 61.5626393361011
endloop
endfacet
facet normal -3.10027589172097e-07 -0.793353340291209 0.608761429008675
outer loop
vertex 36.0010931786506 -66.3662649813354 47.6800937469924
vertex 8.49894237865004 -65.6829088230466 48.5706468249762
vertex 8.49894237865004 -66.3662589002175 47.680087665874
endloop
endfacet
facet normal -3.10027589172097e-07 -0.793353340291209 0.608761429008675
outer loop
vertex 8.49894237865004 -65.6829088230466 48.5706468249762
vertex 36.0010931786506 -66.3662649813354 47.6800937469924
vertex 36.0010931786506 -65.6829162708647 48.5706511249763
endloop
endfacet
facet normal -3.10027597866304e-07 -0.38268343236508 0.923879532511239
outer loop
vertex 36.0010931786505 -68.2938983912223 46.5671740788954
vertex 8.49894237865004 -67.2568180593197 46.9967375887031
vertex 8.49894237865004 -68.2938961653789 46.5671657719332
endloop
endfacet
facet normal -3.10027597866304e-07 -0.38268343236508 0.923879532511239
outer loop
vertex 8.49894237865004 -67.2568180593197 46.9967375887031
vertex 36.0010931786505 -68.2938983912223 46.5671740788954
vertex 36.0010931786505 -67.2568223593194 46.9967450365217
endloop
endfacet
facet normal -1.55013710985921e-07 -0.991445357090318 -0.130522426824006
outer loop
vertex 36.0010931786505 -65.1068266593194 50.7206468249763
vertex 8.49894237865004 -65.2533370062767 51.833568718917
vertex 8.49894237865004 -65.1068266593196 50.7206468249761
endloop
endfacet
facet normal -1.55013710985921e-07 -0.991445357090318 -0.130522426824006
outer loop
vertex 8.49894237865004 -65.2533370062767 51.833568718917
vertex 36.0010931786505 -65.1068266593194 50.7206468249763
vertex 36.0010931786506 -65.2533453132384 51.8335664930733
endloop
endfacet
facet normal -3.10027609112568e-07 0.923879532511234 0.38268343236509
outer loop
vertex 8.49894237865004 -73.5602991123627 49.6077249310353
vertex 36.0010931786505 -73.1307198477741 48.5706511249763
vertex 8.49894237865004 -73.1307272955928 48.5706468249762
endloop
endfacet
facet normal -3.10027609112568e-07 0.923879532511234 0.38268343236509
outer loop
vertex 36.0010931786505 -73.1307198477741 48.5706511249763
vertex 8.49894237865004 -73.5602991123627 49.6077249310353
vertex 36.0010931786505 -73.5602908054004 49.6077271568792
endloop
endfacet
facet normal -0.0118898106225503 0.0146896008582515 0.999821408067453
outer loop
vertex 0.696791578649504 -17.9461229724621 67.0576468398892
vertex -10.708658505538 -27.5464583245873 67.0630642602589
vertex -7.36269448729227 -24.9753805611167 67.0650793925512
endloop
endfacet
facet normal -3.10027604527827e-07 0.130526192220047 0.991444861373763
outer loop
vertex 36.0010931786505 -70.5197377274164 46.5671740788954
vertex 8.49894237865004 -69.4068180593197 46.4206468249762
vertex 8.49894237865004 -70.5197399532605 46.5671657719332
endloop
endfacet
facet normal -3.10027604527827e-07 0.130526192220047 0.991444861373763
outer loop
vertex 8.49894237865004 -69.4068180593197 46.4206468249762
vertex 36.0010931786505 -70.5197377274164 46.5671740788954
vertex 36.0010931786505 -69.4068180593195 46.4206554249763
endloop
endfacet
facet normal 0.00207794963080276 1.04308799820732e-13 0.999997841060336
outer loop
vertex 0.342103370979584 -22.8556842928181 67.0583827088163
vertex 0.696791578649504 -17.9461229724621 67.0576468398892
vertex -3.47027814470184 -23.3613131159039 67.0663058195771
endloop
endfacet
facet normal 0.00207794963080276 1.04308799820732e-13 0.999997841060336
outer loop
vertex 0.696791578649504 -17.9461229724621 67.0576468398892
vertex 0.342103370979584 -22.8556842928181 67.0583827088163
vertex 0.696791578649554 -22.8133504748861 67.0576468398897
endloop
endfacet
facet normal -1.55013731179054e-07 0.991445357090311 -0.130522426824062
outer loop
vertex 8.49894237865004 -73.5602991123627 51.833568718917
vertex 36.0010931786506 -73.7068094593195 50.7206468249763
vertex 8.49894237865004 -73.7068094593198 50.7206468249762
endloop
endfacet
facet normal -1.55013731179054e-07 0.991445357090311 -0.130522426824062
outer loop
vertex 36.0010931786506 -73.7068094593195 50.7206468249763
vertex 8.49894237865004 -73.5602991123627 51.833568718917
vertex 36.0010931786505 -73.5602908054004 51.8335664930733
endloop
endfacet
facet normal 6.69592592009017e-15 -0.923879532511271 -0.382683432365129
outer loop
vertex 0.696791578648804 -4.76912435222506 52.8706425249756
vertex -34.6075100213512 -4.3395533945991 51.8335664930729
vertex 0.696791578648804 -4.3395533945987 51.8335664930726
endloop
endfacet
facet normal 6.69592592009017e-15 -0.923879532511271 -0.382683432365129
outer loop
vertex -34.6075100213512 -4.3395533945991 51.8335664930729
vertex 0.696791578648804 -4.76912435222506 52.8706425249756
vertex -34.6075100213512 -4.7691243522254 52.8706425249759
endloop
endfacet
facet normal -3.10027585964019e-07 -0.793353340291196 -0.608761429008693
outer loop
vertex 36.0010931786506 -66.3662649813354 53.7611999029601
vertex 8.49894237865004 -65.6829088230466 52.8706468249762
vertex 36.0010931786506 -65.6829162708647 52.8706425249763
endloop
endfacet
facet normal -3.10027585964019e-07 -0.793353340291196 -0.608761429008693
outer loop
vertex 8.49894237865004 -65.6829088230466 52.8706468249762
vertex 36.0010931786506 -66.3662649813354 53.7611999029601
vertex 8.49894237865004 -66.3662589002175 53.7612059840783
endloop
endfacet
facet normal -0.00148837670034704 0.00277792010383431 0.999995033935016
outer loop
vertex -4.83812984500414 -23.9276529757169 67.0663058195771
vertex 0.696791578649504 -17.9461229724621 67.0576468398892
vertex -7.36269448729227 -24.9753805611167 67.0650793925512
endloop
endfacet
facet normal -0.00148837670034704 0.00277792010383431 0.999995033935016
outer loop
vertex 0.696791578649504 -17.9461229724621 67.0576468398892
vertex -4.83812984500414 -23.9276529757169 67.0663058195771
vertex -3.47027814470184 -23.3613131159039 67.0663058195771
endloop
endfacet
facet normal 0.79350969713658 -0.608545750308928 0.00379872757072645
outer loop
vertex -10.7179392234723 -27.5958050997673 61.5576468398892
vertex -13.2751675777615 -30.8959280321374 67.0610646690953
vertex -13.2770343832307 -30.9298364581264 61.5576468398892
endloop
endfacet
facet normal 0.79350969713658 -0.608545750308928 0.00379872757072645
outer loop
vertex -13.2751675777615 -30.8959280321374 67.0610646690953
vertex -10.7179392234723 -27.5958050997673 61.5576468398892
vertex -10.708658505538 -27.5464583245873 67.0630642602589
endloop
endfacet
facet normal -4.03557371245782e-13 0.673176703242224 0.739481660497359
outer loop
vertex 0.696791578649504 -17.9461229724621 67.0576468398892
vertex 36.00109317865 3.1004232668182e-13 50.7206468249763
vertex 0.696791578649191 2.60322027010798e-13 50.7206468249756
endloop
endfacet
facet normal -4.03557371245782e-13 0.673176703242224 0.739481660497359
outer loop
vertex 36.00109317865 3.1004232668182e-13 50.7206468249763
vertex 0.696791578649504 -17.9461229724621 67.0576468398892
vertex 29.0010931786503 -17.9461229724402 67.0576468398896
endloop
endfacet
facet normal -4.03557371245782e-13 0.673176703242224 0.739481660497359
outer loop
vertex 36.00109317865 3.1004232668182e-13 50.7206468249763
vertex 29.0010931786503 -17.9461229724402 67.0576468398896
vertex 36.0010931786502 -17.9461229724485 67.0576468399023
endloop
endfacet
facet normal 0.609288719235306 -0.792925092381287 0.00608723949968961
outer loop
vertex -10.6447702933895 -27.5396782218783 61.5576468398893
vertex -10.708658505538 -27.5464583245873 67.0630642602589
vertex -10.7179392234723 -27.5958050997673 61.5576468398892
endloop
endfacet
facet normal 0.609288719235306 -0.792925092381287 0.00608723949968961
outer loop
vertex -10.708658505538 -27.5464583245873 67.0630642602589
vertex -10.6447702933895 -27.5396782218783 61.5576468398893
vertex -7.36269448729227 -24.9753805611167 67.0650793925512
endloop
endfacet
facet normal -0.793353340291238 0.608761429008717 0.0
outer loop
vertex 17.9032401756515 -24.2749533 67.0576468398897
vertex 17.6092407238454 -24.6581008451951 61.5576468398897
vertex 17.6092407238454 -24.6581008451951 67.0576468398897
endloop
endfacet
facet normal -0.793353340291238 0.608761429008717 0.0
outer loop
vertex 17.6092407238454 -24.6581008451951 61.5576468398897
vertex 17.9032401756515 -24.2749533 67.0576468398897
vertex 17.9032401756515 -24.2749533 61.5576468398897
endloop
endfacet
facet normal -1.15268702936264e-14 1.0 -5.35680241435427e-16
outer loop
vertex 22.3010931786501 -22.5811818374995 13.8707429999996
vertex 36.0010931786501 -22.5811818374993 50.7206468249763
vertex 36.0010931786502 -22.5811818374994 13.8707429999996
endloop
endfacet
facet normal -1.15268702936264e-14 1.0 -5.35680241435427e-16
outer loop
vertex 36.0010931786501 -22.5811818374993 50.7206468249763
vertex 22.3010931786501 -22.5811818374995 13.8707429999996
vertex 22.3010931786501 -22.5811818374995 50.7206468249763
endloop
endfacet
facet normal 1.0 0.0 0.0
outer loop
vertex 18.5010931786499 -18.9499620999998 13.8707429999996
vertex 18.5010931786499 -18.9762242498594 13.8707429999996
vertex 18.5010931786499 -18.9499620999998 13.7707429999996
endloop
endfacet
facet normal 0.99144486137381 0.130526192220052 -0.0
outer loop
vertex 14.4510931786503 -54.5498909 61.5576468398897
vertex 14.5141304000155 -55.0287061334397 67.0576468398896
vertex 14.5141304000155 -55.0287061334397 61.5576468398897
endloop
endfacet
facet normal 0.99144486137381 0.130526192220052 -0.0
outer loop
vertex 14.5141304000155 -55.0287061334397 67.0576468398896
vertex 14.4510931786503 -54.5498909 61.5576468398897
vertex 14.4510931786503 -54.5498909 67.0576468398896
endloop
endfacet
facet normal 0.38268343236509 -0.923879532511287 -9.7148891856458e-31
outer loop
vertex 15.8222779452106 -21.5629905213652 67.0576468398897
vertex 15.3760931786503 -21.7478063029988 61.5576468398897
vertex 15.8222779452106 -21.5629905213652 61.5576468398897
endloop
endfacet
facet normal 0.38268343236509 -0.923879532511287 -9.7148891856458e-31
outer loop
vertex 15.3760931786503 -21.7478063029988 61.5576468398897
vertex 15.8222779452106 -21.5629905213652 67.0576468398897
vertex 15.3760931786503 -21.7478063029988 67.0576468398897
endloop
endfacet
facet normal -0.608761429008724 0.793353340291233 1.47436858702571e-30
outer loop
vertex 17.2260931786503 -24.9521002970012 67.0576468398897
vertex 17.6092407238454 -24.6581008451951 61.5576468398897
vertex 17.2260931786503 -24.9521002970012 61.5576468398897
endloop
endfacet
facet normal -0.608761429008724 0.793353340291233 1.47436858702571e-30
outer loop
vertex 17.6092407238454 -24.6581008451951 61.5576468398897
vertex 17.2260931786503 -24.9521002970012 67.0576468398897
vertex 17.6092407238454 -24.6581008451951 67.0576468398897
endloop
endfacet
facet normal -2.98463605817118e-15 8.45989944764369e-16 -1.0
outer loop
vertex 36.0010931786499 3.15572662056295e-13 13.8707429999996
vertex 22.3010931786501 -4.99999999999983 13.8707429999996
vertex 22.3010931786501 1.49554089564468e-13 13.8707429999996
endloop
endfacet
facet normal -2.98463605817118e-15 8.45989944764369e-16 -1.0
outer loop
vertex 22.3010931786501 -4.99999999999983 13.8707429999996
vertex 36.0010931786499 3.15572662056295e-13 13.8707429999996
vertex 36.0010931786499 -4.99999999999968 13.8707429999996
endloop
endfacet
facet normal -0.991464632565791 -0.130375927115331 2.77488159048724e-15
outer loop
vertex 16.2808659336154 -34.7532650250178 67.0576468398896
vertex 16.8288285746328 -38.920334748369 61.5576468398896
vertex 16.8288285746328 -38.920334748369 67.0576468398896
endloop
endfacet
facet normal -0.991464632565791 -0.130375927115331 2.77488159048724e-15
outer loop
vertex 16.8288285746328 -38.920334748369 61.5576468398896
vertex 16.2808659336154 -34.7532650250178 67.0576468398896
vertex 16.2808659336154 -34.7532650250178 61.5576468398896
endloop
endfacet
facet normal -0.991425067407845 0.13067645432652 3.33710102391507e-15
outer loop
vertex 16.8288285746328 -38.920334748369 67.0576468398896
vertex 16.2796028347597 -43.0872381816012 61.5576468398896
vertex 16.2796028347597 -43.0872381816012 67.0576468398896
endloop
endfacet
facet normal -0.991425067407845 0.13067645432652 3.33710102391507e-15
outer loop
vertex 16.2796028347597 -43.0872381816012 61.5576468398896
vertex 16.8288285746328 -38.920334748369 67.0576468398896
vertex 16.8249287638138 -38.9499221000003 61.5576468398898
endloop
endfacet
facet normal -0.991425067407845 0.13067645432652 3.33710102391507e-15
outer loop
vertex 16.8249287638138 -38.9499221000003 61.5576468398898
vertex 16.8288285746328 -38.920334748369 67.0576468398896
vertex 16.8288285746328 -38.920334748369 61.5576468398896
endloop
endfacet
facet normal 0.99144486137381 0.130526192220052 -0.0
outer loop
vertex 14.4510931786503 -23.3499533 61.5576468398897
vertex 14.5141304000155 -23.8287685334396 67.0576468398897
vertex 14.5141304000155 -23.8287685334396 61.5576468398897
endloop
endfacet
facet normal 0.99144486137381 0.130526192220052 -0.0
outer loop
vertex 14.5141304000155 -23.8287685334396 67.0576468398897
vertex 14.4510931786503 -23.3499533 61.5576468398897
vertex 14.4510931786503 -23.3499533 67.0576468398897
endloop
endfacet
facet normal 1.26395545935447e-15 -0.991444861373804 -0.130526192220104
outer loop
vertex 36.00109317865 -4.19303474067958 50.7206468249763
vertex 0.696791578648804 -4.3395533945987 51.8335664930726
vertex 0.696791578649593 -4.19303474067954 50.7206468249763
endloop
endfacet
facet normal 1.26395545935447e-15 -0.991444861373804 -0.130526192220104
outer loop
vertex 0.696791578648804 -4.3395533945987 51.8335664930726
vertex 36.00109317865 -4.19303474067958 50.7206468249763
vertex 36.0010931786499 -4.33955339459867 51.8335664930733
endloop
endfacet
facet normal -0.608761429008735 0.793353340291224 1.45440680069907e-16
outer loop
vertex 17.2260931786503 -56.1520378970012 67.0576468398896
vertex 17.5213743068576 -55.9254607182869 61.5576468398899
vertex 17.2260931786503 -56.1520378970012 61.5576468398897
endloop
endfacet
facet normal -0.608761429008735 0.793353340291224 1.45440680069907e-16
outer loop
vertex 17.5213743068576 -55.9254607182869 61.5576468398899
vertex 17.6092407238454 -55.8580384451951 67.0576468398896
vertex 17.6092407238454 -55.8580384451951 61.5576468398897
endloop
endfacet
facet normal -0.608761429008735 0.793353340291224 1.45440680069907e-16
outer loop
vertex 17.6092407238454 -55.8580384451951 67.0576468398896
vertex 17.5213743068576 -55.9254607182869 61.5576468398899
vertex 17.2260931786503 -56.1520378970012 67.0576468398896
endloop
endfacet
facet normal 0.130526192220052 0.99144486137381 -0.0
outer loop
vertex 15.8222779452106 -56.3368536786348 67.0576468398896
vertex 16.3010931786503 -56.3998909 61.5576468398897
vertex 15.8222779452106 -56.3368536786348 61.5576468398897
endloop
endfacet
facet normal 0.130526192220052 0.99144486137381 -0.0
outer loop
vertex 16.3010931786503 -56.3998909 61.5576468398897
vertex 15.8222779452106 -56.3368536786348 67.0576468398896
vertex 16.3010931786503 -56.3998909 67.0576468398896
endloop
endfacet
facet normal 6.5023504471983e-16 0.923879532511286 0.382683432365092
outer loop
vertex 0.696791578649229 -12.2169279291344 48.5706511249772
vertex 36.00109317865 -12.6464988867603 49.6077271568792
vertex 36.00109317865 -12.2169279291341 48.5706511249763
endloop
endfacet
facet normal 6.5023504471983e-16 0.923879532511286 0.382683432365092
outer loop
vertex 36.00109317865 -12.6464988867603 49.6077271568792
vertex 0.696791578649229 -12.2169279291344 48.5706511249772
vertex 0.696791578649229 -12.6464988867607 49.6077271568801
endloop
endfacet
facet normal -0.382543404580682 0.923937521487152 3.38244860874764e-15
outer loop
vertex 8.49894237865004 -52.9771315881776 61.5576468398899
vertex 8.77671546151715 -52.8621235293537 67.0576468398896
vertex 8.77671546151714 -52.8621235293537 61.5576468398896
endloop
endfacet
facet normal -0.382543404580682 0.923937521487152 3.38244860874764e-15
outer loop
vertex 8.77671546151715 -52.8621235293537 67.0576468398896
vertex 8.49894237865004 -52.9771315881776 61.5576468398899
vertex 8.49894237865004 -52.9771315881777 67.0576468398896
endloop
endfacet
facet normal -3.1002759333354e-07 -0.608761429008658 0.793353340291222
outer loop
vertex 36.0010931786505 -67.2568223593194 46.9967450365217
vertex 8.49894237865004 -66.3662589002175 47.680087665874
vertex 8.49894237865004 -67.2568180593197 46.9967375887031
endloop
endfacet
facet normal -3.1002759333354e-07 -0.608761429008658 0.793353340291222
outer loop
vertex 8.49894237865004 -66.3662589002175 47.680087665874
vertex 36.0010931786505 -67.2568223593194 46.9967450365217
vertex 36.0010931786506 -66.3662649813354 47.6800937469924
endloop
endfacet
facet normal -1.55013731674046e-07 0.991445357090312 0.130522426824049
outer loop
vertex 8.49894237865004 -73.7068094593198 50.7206468249762
vertex 36.0010931786505 -73.5602908054004 49.6077271568792
vertex 8.49894237865004 -73.5602991123627 49.6077249310353
endloop
endfacet
facet normal -1.55013731674046e-07 0.991445357090312 0.130522426824049
outer loop
vertex 36.0010931786505 -73.5602908054004 49.6077271568792
vertex 8.49894237865004 -73.7068094593198 50.7206468249762
vertex 36.0010931786506 -73.7068094593195 50.7206468249763
endloop
endfacet
facet normal -3.10027607047415e-07 0.382683432365056 0.923879532511249
outer loop
vertex 36.0010931786506 -71.5568137593195 46.9967450365217
vertex 8.49894237865004 -70.5197399532605 46.5671657719332
vertex 8.49894237865004 -71.5568180593197 46.9967375887031
endloop
endfacet
facet normal -3.10027607047415e-07 0.382683432365056 0.923879532511249
outer loop
vertex 8.49894237865004 -70.5197399532605 46.5671657719332
vertex 36.0010931786506 -71.5568137593195 46.9967450365217
vertex 36.0010931786505 -70.5197377274164 46.5671740788954
endloop
endfacet
facet normal 0.383311173608717 -0.923615249724645 0.00272298784250074
outer loop
vertex -4.83812984500414 -23.9276529757169 67.0663058195771
vertex -7.36269448729227 -24.9753805611167 67.0650793925512
vertex -7.36960342503428 -24.9944700579795 61.5626393361011
endloop
endfacet
facet normal 0.923980215420259 -0.382436385265565 0.00172416267773619
outer loop
vertex -13.2770343832307 -30.9298364581264 61.5576468398892
vertex -14.8873183520475 -34.795528858458 67.0592168878936
vertex -14.8860196774604 -34.8126060183983 61.5576468398892
endloop
endfacet
facet normal 0.923980215420259 -0.382436385265565 0.00172416267773619
outer loop
vertex -14.8873183520475 -34.795528858458 67.0592168878936
vertex -13.2770343832307 -30.9298364581264 61.5576468398892
vertex -13.2751675777615 -30.8959280321374 67.0610646690953
endloop
endfacet
facet normal -1.0 3.79469076593387e-16 1.70481120903466e-16
outer loop
vertex 8.49894237865004 -77.8998441999996 50.7206468249764
vertex 8.49894237865004 -69.4068180593197 43.9225893476743
vertex 8.49894237865004 -77.8998441999996 43.9225893476743
endloop
endfacet
facet normal -1.0 3.79469076593387e-16 1.70481120903466e-16
outer loop
vertex 8.49894237865004 -69.4068180593197 43.9225893476743
vertex 8.49894237865004 -77.8998441999996 50.7206468249764
vertex 8.49894237865004 -72.4473772184218 47.680087665874
endloop
endfacet
facet normal -1.0 3.79469076593387e-16 1.70481120903466e-16
outer loop
vertex 8.49894237865004 -72.4473772184218 47.680087665874
vertex 8.49894237865004 -77.8998441999996 50.7206468249764
vertex 8.49894237865004 -73.1307272955928 48.5706468249762
endloop
endfacet
facet normal -1.0 3.79469076593387e-16 1.70481120903466e-16
outer loop
vertex 8.49894237865004 -73.1307272955928 48.5706468249762
vertex 8.49894237865004 -77.8998441999996 50.7206468249764
vertex 8.49894237865004 -73.5602991123627 49.6077249310353
endloop
endfacet
facet normal -1.0 3.79469076593387e-16 1.70481120903466e-16
outer loop
vertex 8.49894237865004 -73.5602991123627 49.6077249310353
vertex 8.49894237865004 -77.8998441999996 50.7206468249764
vertex 8.49894237865004 -73.7068094593198 50.7206468249762
endloop
endfacet
facet normal -1.0 3.79469076593387e-16 1.70481120903466e-16
outer loop
vertex 8.49894237865004 -69.4068180593197 43.9225893476743
vertex 8.49894237865004 -72.4473772184218 47.680087665874
vertex 8.49894237865004 -71.5568180593197 46.9967375887031
endloop
endfacet
facet normal -1.0 3.79469076593387e-16 1.70481120903466e-16
outer loop
vertex 8.49894237865004 -69.4068180593197 43.9225893476743
vertex 8.49894237865004 -71.5568180593197 46.9967375887031
vertex 8.49894237865004 -70.5197399532605 46.5671657719332
endloop
endfacet
facet normal -1.0 3.79469076593387e-16 1.70481120903466e-16
outer loop
vertex 8.49894237865004 -69.4068180593197 43.9225893476743
vertex 8.49894237865004 -70.5197399532605 46.5671657719332
vertex 8.49894237865004 -69.4068180593197 46.4206468249762
endloop
endfacet
facet normal 5.2313955709079e-15 -0.673176703241974 0.739481660497586
outer loop
vertex 36.0010931786506 -77.8998441999993 50.7206468249763
vertex 8.49894237865004 -71.6918483631931 56.3720083047854
vertex 8.49894237865004 -77.8998441999996 50.7206468249764
endloop
endfacet
facet normal 5.2313955709079e-15 -0.673176703241974 0.739481660497586
outer loop
vertex 8.49894237865004 -71.6918483631931 56.3720083047854
vertex 36.0010931786506 -77.8998441999993 50.7206468249763
vertex 8.49894237865004 -59.9537212275373 67.0576468398896
endloop
endfacet
facet normal 5.2313955709079e-15 -0.673176703241974 0.739481660497586
outer loop
vertex 8.49894237865004 -59.9537212275373 67.0576468398896
vertex 36.0010931786506 -77.8998441999993 50.7206468249763
vertex 16.3010931786503 -59.9537212275373 67.0576468398896
endloop
endfacet
facet normal 5.2313955709079e-15 -0.673176703241974 0.739481660497586
outer loop
vertex 16.3010931786503 -59.9537212275373 67.0576468398896
vertex 36.0010931786506 -77.8998441999993 50.7206468249763
vertex 29.0010931786503 -59.9537212275373 67.0576468398896
endloop
endfacet
facet normal 5.2313955709079e-15 -0.673176703241974 0.739481660497586
outer loop
vertex 29.0010931786503 -59.9537212275373 67.0576468398896
vertex 36.0010931786506 -77.8998441999993 50.7206468249763
vertex 36.0010931786505 -59.9537212275373 67.0576468398895
endloop
endfacet
facet normal 1.0 8.09817890187056e-15 -1.08719320810982e-15
outer loop
vertex 36.0010931786505 -77.8998441999993 13.8707429999996
vertex 36.0010931786506 -77.8998441999993 50.7206468249763
vertex 36.0010931786506 -77.8998441999995 43.9225893476743
endloop
endfacet
facet normal 1.0 8.09817890187056e-15 -1.08719320810982e-15
outer loop
vertex 36.0010931786506 -77.8998441999993 50.7206468249763
vertex 36.0010931786505 -77.8998441999993 13.8707429999996
vertex 36.0010931786505 -72.8998441999994 13.8707429999996
endloop
endfacet
facet normal 1.0 8.09817890187056e-15 -1.08719320810982e-15
outer loop
vertex 36.0010931786506 -77.8998441999993 50.7206468249763
vertex 36.0010931786505 -72.8998441999994 13.8707429999996
vertex 36.0010931786506 -73.7068094593195 50.7206468249763
endloop
endfacet
facet normal 1.0 8.09817890187056e-15 -1.08719320810982e-15
outer loop
vertex 36.0010931786506 -73.7068094593195 50.7206468249763
vertex 36.0010931786505 -72.8998441999994 13.8707429999996
vertex 36.0010931786505 -73.5602908054004 49.6077271568792
endloop
endfacet
facet normal 1.0 8.09817890187056e-15 -1.08719320810982e-15
outer loop
vertex 36.0010931786505 -73.5602908054004 49.6077271568792
vertex 36.0010931786505 -72.8998441999994 13.8707429999996
vertex 36.0010931786505 -73.1307198477741 48.5706511249763
endloop
endfacet
facet normal 1.0 8.09817890187056e-15 -1.08719320810982e-15
outer loop
vertex 36.0010931786505 -73.1307198477741 48.5706511249763
vertex 36.0010931786505 -72.8998441999994 13.8707429999996
vertex 36.0010931786505 -72.4473711373033 47.6800937469924
endloop
endfacet
facet normal 1.0 8.09817890187056e-15 -1.08719320810982e-15
outer loop
vertex 36.0010931786505 -72.4473711373033 47.6800937469924
vertex 36.0010931786505 -72.8998441999994 13.8707429999996
vertex 36.0010931786506 -71.5568137593195 46.9967450365217
endloop
endfacet
facet normal 1.0 8.09817890187056e-15 -1.08719320810982e-15
outer loop
vertex 36.0010931786506 -71.5568137593195 46.9967450365217
vertex 36.0010931786505 -72.8998441999994 13.8707429999996
vertex 36.0010931786503 -62.0498908999997 41.4245318703723
endloop
endfacet
facet normal 1.0 8.09817890187056e-15 -1.08719320810982e-15
outer loop
vertex 36.0010931786506 -71.5568137593195 46.9967450365217
vertex 36.0010931786503 -62.0498908999997 41.4245318703723
vertex 36.0010931786505 -70.5197377274164 46.5671740788954
endloop
endfacet
facet normal 1.0 8.09817890187056e-15 -1.08719320810982e-15
outer loop
vertex 36.0010931786505 -70.5197377274164 46.5671740788954
vertex 36.0010931786503 -62.0498908999997 41.4245318703723
vertex 36.0010931786505 -69.4068180593195 46.4206554249763
endloop
endfacet
facet normal 1.0 8.09817890187056e-15 -1.08719320810982e-15
outer loop
vertex 36.0010931786505 -69.4068180593195 46.4206554249763
vertex 36.0010931786503 -62.0498908999997 41.4245318703723
vertex 36.0010931786505 -68.2938983912223 46.5671740788954
endloop
endfacet
facet normal 1.0 8.09817890187056e-15 -1.08719320810982e-15
outer loop
vertex 36.0010931786505 -68.2938983912223 46.5671740788954
vertex 36.0010931786503 -62.0498908999997 41.4245318703723
vertex 36.0010931786505 -67.2568223593194 46.9967450365217
endloop
endfacet
facet normal 1.0 8.09817890187056e-15 -1.08719320810982e-15
outer loop
vertex 36.0010931786505 -67.2568223593194 46.9967450365217
vertex 36.0010931786503 -62.0498908999997 41.4245318703723
vertex 36.0010931786506 -66.3662649813354 47.6800937469924
endloop
endfacet
facet normal 1.0 8.09817890187056e-15 -1.08719320810982e-15
outer loop
vertex 36.0010931786506 -66.3662649813354 47.6800937469924
vertex 36.0010931786503 -62.0498908999997 41.4245318703723
vertex 36.0010931786506 -65.6829162708647 48.5706511249763
endloop
endfacet
facet normal 1.0 8.09817890187056e-15 -1.08719320810982e-15
outer loop
vertex 36.0010931786506 -65.6829162708647 48.5706511249763
vertex 36.0010931786503 -62.0498908999997 41.4245318703723
vertex 36.0010931786506 -65.2533453132384 49.6077271568792
endloop
endfacet
facet normal 1.0 8.09817890187056e-15 -1.08719320810982e-15
outer loop
vertex 36.0010931786506 -65.2533453132384 49.6077271568792
vertex 36.0010931786503 -62.0498908999997 41.4245318703723
vertex 36.0010931786505 -65.1068266593194 50.7206468249763
endloop
endfacet
facet normal 1.0 8.09817890187056e-15 -1.08719320810982e-15
outer loop
vertex 36.0010931786505 -65.1068266593194 50.7206468249763
vertex 36.0010931786503 -62.0498908999997 41.4245318703723
vertex 36.0010931786504 -62.0498908999999 50.7206468249761
endloop
endfacet
facet normal 1.0 8.09817890187056e-15 -1.08719320810982e-15
outer loop
vertex 36.0010931786506 -77.8998441999993 50.7206468249763
vertex 36.0010931786505 -72.4473711373033 53.7611999029601
vertex 36.0010931786505 -59.9537212275373 67.0576468398895
endloop
endfacet
facet normal 1.0 8.09817890187056e-15 -1.08719320810982e-15
outer loop
vertex 36.0010931786505 -72.4473711373033 53.7611999029601
vertex 36.0010931786506 -77.8998441999993 50.7206468249763
vertex 36.0010931786505 -73.1307198477741 52.8706425249763
endloop
endfacet
facet normal 1.0 8.09817890187056e-15 -1.08719320810982e-15
outer loop
vertex 36.0010931786505 -73.1307198477741 52.8706425249763
vertex 36.0010931786506 -77.8998441999993 50.7206468249763
vertex 36.0010931786505 -73.5602908054004 51.8335664930733
endloop
endfacet
facet normal 1.0 8.09817890187056e-15 -1.08719320810982e-15
outer loop
vertex 36.0010931786505 -73.5602908054004 51.8335664930733
vertex 36.0010931786506 -77.8998441999993 50.7206468249763
vertex 36.0010931786506 -73.7068094593195 50.7206468249763
endloop
endfacet
facet normal 1.0 8.09817890187056e-15 -1.08719320810982e-15
outer loop
vertex 36.0010931786505 -59.9537212275373 67.0576468398895
vertex 36.0010931786505 -72.4473711373033 53.7611999029601
vertex 36.0010931786506 -71.5568137593195 54.4445486134309
endloop
endfacet
facet normal 1.0 8.09817890187056e-15 -1.08719320810982e-15
outer loop
vertex 36.0010931786505 -59.9537212275373 67.0576468398895
vertex 36.0010931786506 -71.5568137593195 54.4445486134309
vertex 36.0010931786505 -70.5197377274164 54.8741195710572
endloop
endfacet
facet normal 1.0 8.09817890187056e-15 -1.08719320810982e-15
outer loop
vertex 36.0010931786505 -59.9537212275373 67.0576468398895
vertex 36.0010931786505 -70.5197377274164 54.8741195710572
vertex 36.0010931786505 -69.4068180593195 55.0206382249763
endloop
endfacet
facet normal 1.0 8.09817890187056e-15 -1.08719320810982e-15
outer loop
vertex 36.0010931786505 -59.9537212275373 67.0576468398895
vertex 36.0010931786505 -69.4068180593195 55.0206382249763
vertex 36.0010931786505 -68.2938983912223 54.8741195710572
endloop
endfacet
facet normal 1.0 8.09817890187056e-15 -1.08719320810982e-15
outer loop
vertex 36.0010931786505 -59.9537212275373 67.0576468398895
vertex 36.0010931786505 -68.2938983912223 54.8741195710572
vertex 36.0010931786505 -67.2568223593194 54.4445486134309
endloop
endfacet
facet normal 1.0 8.09817890187056e-15 -1.08719320810982e-15
outer loop
vertex 36.0010931786505 -59.9537212275373 67.0576468398895
vertex 36.0010931786505 -67.2568223593194 54.4445486134309
vertex 36.0010931786506 -66.3662649813354 53.7611999029601
endloop
endfacet
facet normal 1.0 8.09817890187056e-15 -1.08719320810982e-15
outer loop
vertex 36.0010931786505 -59.9537212275373 67.0576468398895
vertex 36.0010931786506 -66.3662649813354 53.7611999029601
vertex 36.0010931786506 -65.6829162708647 52.8706425249763
endloop
endfacet
facet normal 1.0 8.09817890187056e-15 -1.08719320810982e-15
outer loop
vertex 36.0010931786505 -59.9537212275373 67.0576468398895
vertex 36.0010931786506 -65.6829162708647 52.8706425249763
vertex 36.0010931786506 -65.2533453132384 51.8335664930733
endloop
endfacet
facet normal 1.0 8.09817890187056e-15 -1.08719320810982e-15
outer loop
vertex 36.0010931786505 -59.9537212275373 67.0576468398895
vertex 36.0010931786506 -65.2533453132384 51.8335664930733
vertex 36.0010931786505 -65.1068266593194 50.7206468249763
endloop
endfacet
facet normal 1.0 8.09817890187056e-15 -1.08719320810982e-15
outer loop
vertex 36.0010931786505 -59.9537212275373 67.0576468398895
vertex 36.0010931786505 -65.1068266593194 50.7206468249763
vertex 36.0010931786504 -62.0498908999999 50.7206468249761
endloop
endfacet
facet normal 1.0 8.09817890187056e-15 -1.08719320810982e-15
outer loop
vertex 36.0010931786505 -59.9537212275373 67.0576468398895
vertex 36.0010931786504 -62.0498908999999 50.7206468249761
vertex 36.0010931786503 -54.3499220999997 56.7206468249763
endloop
endfacet
facet normal 1.0 8.09817890187056e-15 -1.08719320810982e-15
outer loop
vertex 36.0010931786503 -54.3499220999997 56.7206468249763
vertex 36.0010931786504 -62.0498908999999 50.7206468249761
vertex 36.0010931786503 -38.9499221000003 50.7206468249763
endloop
endfacet
facet normal 1.0 8.09817890187056e-15 -1.08719320810982e-15
outer loop
vertex 36.0010931786503 -54.3499220999997 56.7206468249763
vertex 36.0010931786503 -38.9499221000003 50.7206468249763
vertex 36.0010931786503 -47.7499220999997 56.7206468249763
endloop
endfacet
facet normal 1.0 8.09817890187056e-15 -1.08719320810982e-15
outer loop
vertex 36.0010931786503 -47.7499220999997 56.7206468249763
vertex 36.0010931786503 -38.9499221000003 50.7206468249763
vertex 36.0010931786503 -47.7499220999997 60.7206468249763
endloop
endfacet
facet normal 1.0 8.09817890187056e-15 -1.08719320810982e-15
outer loop
vertex 36.0010931786499 -4.99999999999968 13.8707429999996
vertex 36.0010931786503 -15.8499532999997 50.7206468249756
vertex 36.00109317865 -15.8499533000021 41.4245318703718
endloop
endfacet
facet normal 1.0 8.09817890187056e-15 -1.08719320810982e-15
outer loop
vertex 36.0010931786503 -15.8499532999997 50.7206468249756
vertex 36.0010931786499 -4.99999999999968 13.8707429999996
vertex 36.00109317865 -12.6464988867603 49.6077271568792
endloop
endfacet
facet normal 1.0 8.09817890187056e-15 -1.08719320810982e-15
outer loop
vertex 36.0010931786503 -15.8499532999997 50.7206468249756
vertex 36.00109317865 -12.6464988867603 49.6077271568792
vertex 36.0010931786499 -12.7930175406795 50.7206468249763
endloop
endfacet
facet normal 1.0 8.09817890187056e-15 -1.08719320810982e-15
outer loop
vertex 36.00109317865 -12.6464988867603 49.6077271568792
vertex 36.0010931786499 -4.99999999999968 13.8707429999996
vertex 36.00109317865 -12.2169279291341 48.5706511249763
endloop
endfacet
facet normal 1.0 8.09817890187056e-15 -1.08719320810982e-15
outer loop
vertex 36.00109317865 -12.2169279291341 48.5706511249763
vertex 36.0010931786499 -4.99999999999968 13.8707429999996
vertex 36.00109317865 -11.5335792186632 47.6800937469924
endloop
endfacet
facet normal 1.0 8.09817890187056e-15 -1.08719320810982e-15
outer loop
vertex 36.00109317865 -11.5335792186632 47.6800937469924
vertex 36.0010931786499 -4.99999999999968 13.8707429999996
vertex 36.0010931786499 -10.6430218406794 46.9967450365217
endloop
endfacet
facet normal 1.0 8.09817890187056e-15 -1.08719320810982e-15
outer loop
vertex 36.0010931786499 -10.6430218406794 46.9967450365217
vertex 36.0010931786499 -4.99999999999968 13.8707429999996
vertex 36.0010931786499 -9.60594580877663 46.5671740788954
endloop
endfacet
facet normal 1.0 8.09817890187056e-15 -1.08719320810982e-15
outer loop
vertex 36.0010931786499 -9.60594580877663 46.5671740788954
vertex 36.0010931786499 -4.99999999999968 13.8707429999996
vertex 36.0010931786499 -8.49302614067939 46.4206554249763
endloop
endfacet
facet normal 1.0 8.09817890187056e-15 -1.08719320810982e-15
outer loop
vertex 36.0010931786499 -8.49302614067939 46.4206554249763
vertex 36.0010931786499 -4.99999999999968 13.8707429999996
vertex 36.0010931786499 -7.38010647258247 46.5671740788954
endloop
endfacet
facet normal 1.0 8.09817890187056e-15 -1.08719320810982e-15
outer loop
vertex 36.0010931786499 -7.38010647258247 46.5671740788954
vertex 36.0010931786499 -4.99999999999968 13.8707429999996
vertex 36.00109317865 -6.34303044067945 46.9967450365217
endloop
endfacet
facet normal 1.0 8.09817890187056e-15 -1.08719320810982e-15
outer loop
vertex 36.00109317865 -6.34303044067945 46.9967450365217
vertex 36.0010931786499 -4.99999999999968 13.8707429999996
vertex 36.0010931786499 -5.45247306269557 47.6800937469924
endloop
endfacet
facet normal 1.0 8.09817890187056e-15 -1.08719320810982e-15
outer loop
vertex 36.0010931786499 -5.45247306269557 47.6800937469924
vertex 36.0010931786499 -4.99999999999968 13.8707429999996
vertex 36.0010931786499 -4.76912435222492 48.5706511249763
endloop
endfacet
facet normal 1.0 8.09817890187056e-15 -1.08719320810982e-15
outer loop
vertex 36.0010931786499 -4.76912435222492 48.5706511249763
vertex 36.0010931786499 -4.99999999999968 13.8707429999996
vertex 36.0010931786499 3.15572662056295e-13 13.8707429999996
endloop
endfacet
facet normal 1.0 8.09817890187056e-15 -1.08719320810982e-15
outer loop
vertex 36.0010931786499 -4.76912435222492 48.5706511249763
vertex 36.0010931786499 3.15572662056295e-13 13.8707429999996
vertex 36.0010931786499 -4.33955339459867 49.6077271568792
endloop
endfacet
facet normal 1.0 8.09817890187056e-15 -1.08719320810982e-15
outer loop
vertex 36.0010931786499 -4.33955339459867 49.6077271568792
vertex 36.0010931786499 3.15572662056295e-13 13.8707429999996
vertex 36.00109317865 -4.19303474067958 50.7206468249763
endloop
endfacet
facet normal 1.0 8.09817890187056e-15 -1.08719320810982e-15
outer loop
vertex 36.00109317865 -4.19303474067958 50.7206468249763
vertex 36.0010931786499 3.15572662056295e-13 13.8707429999996
vertex 36.00109317865 3.1004232668182e-13 50.7206468249763
endloop
endfacet
facet normal 1.0 8.09817890187056e-15 -1.08719320810982e-15
outer loop
vertex 36.0010931786503 -49.4499220999997 60.7206468249763
vertex 36.0010931786503 -38.9499220999997 67.0576468398896
vertex 36.0010931786504 -49.4499220999997 67.0576468398896
endloop
endfacet
facet normal 1.0 8.09817890187056e-15 -1.08719320810982e-15
outer loop
vertex 36.0010931786503 -38.9499220999997 67.0576468398896
vertex 36.0010931786503 -49.4499220999997 60.7206468249763
vertex 36.0010931786503 -47.7499220999997 60.7206468249763
endloop
endfacet
facet normal 1.0 8.09817890187056e-15 -1.08719320810982e-15
outer loop
vertex 36.0010931786503 -38.9499220999997 67.0576468398896
vertex 36.0010931786503 -47.7499220999997 60.7206468249763
vertex 36.0010931786503 -38.9499221000003 50.7206468249763
endloop
endfacet
facet normal 1.0 8.09817890187056e-15 -1.08719320810982e-15
outer loop
vertex 36.0010931786503 -38.9499220999997 67.0576468398896
vertex 36.0010931786503 -38.9499221000003 50.7206468249763
vertex 36.0010931786501 -22.5811818374993 50.7206468249763
endloop
endfacet
facet normal 1.0 8.09817890187056e-15 -1.08719320810982e-15
outer loop
vertex 36.0010931786503 -38.9499220999997 67.0576468398896
vertex 36.0010931786501 -22.5811818374993 50.7206468249763
vertex 36.0010931786502 -17.9461229724485 67.0576468399023
endloop
endfacet
facet normal 1.0 8.09817890187056e-15 -1.08719320810982e-15
outer loop
vertex 36.0010931786502 -17.9461229724485 67.0576468399023
vertex 36.0010931786501 -22.5811818374993 50.7206468249763
vertex 36.0010931786504 -16.9124415749994 50.7206468249763
endloop
endfacet
facet normal 1.0 8.09817890187056e-15 -1.08719320810982e-15
outer loop
vertex 36.0010931786502 -17.9461229724485 67.0576468399023
vertex 36.0010931786504 -16.9124415749994 50.7206468249763
vertex 36.0010931786499 -10.6430218406794 54.4445486134309
endloop
endfacet
facet normal 1.0 8.09817890187056e-15 -1.08719320810982e-15
outer loop
vertex 36.0010931786502 -17.9461229724485 67.0576468399023
vertex 36.0010931786499 -10.6430218406794 54.4445486134309
vertex 36.0010931786499 -9.60594580877663 54.8741195710572
endloop
endfacet
facet normal 1.0 8.09817890187056e-15 -1.08719320810982e-15
outer loop
vertex 36.0010931786502 -17.9461229724485 67.0576468399023
vertex 36.0010931786499 -9.60594580877663 54.8741195710572
vertex 36.0010931786499 -8.49302614067939 55.0206382249763
endloop
endfacet
facet normal 1.0 8.09817890187056e-15 -1.08719320810982e-15
outer loop
vertex 36.0010931786502 -17.9461229724485 67.0576468399023
vertex 36.0010931786499 -8.49302614067939 55.0206382249763
vertex 36.0010931786499 -7.38010647258247 54.8741195710572
endloop
endfacet
facet normal 1.0 8.09817890187056e-15 -1.08719320810982e-15
outer loop
vertex 36.0010931786502 -17.9461229724485 67.0576468399023
vertex 36.0010931786499 -7.38010647258247 54.8741195710572
vertex 36.00109317865 -6.34303044067945 54.4445486134309
endloop
endfacet
facet normal 1.0 8.09817890187056e-15 -1.08719320810982e-15
outer loop
vertex 36.0010931786502 -17.9461229724485 67.0576468399023
vertex 36.00109317865 -6.34303044067945 54.4445486134309
vertex 36.00109317865 3.1004232668182e-13 50.7206468249763
endloop
endfacet
facet normal 1.0 8.09817890187056e-15 -1.08719320810982e-15
outer loop
vertex 36.0010931786499 -10.6430218406794 54.4445486134309
vertex 36.0010931786504 -16.9124415749994 50.7206468249763
vertex 36.0010931786503 -15.8499532999997 50.7206468249756
endloop
endfacet
facet normal 1.0 8.09817890187056e-15 -1.08719320810982e-15
outer loop
vertex 36.0010931786499 -10.6430218406794 54.4445486134309
vertex 36.0010931786503 -15.8499532999997 50.7206468249756
vertex 36.00109317865 -11.5335792186632 53.7611999029601
endloop
endfacet
facet normal 1.0 8.09817890187056e-15 -1.08719320810982e-15
outer loop
vertex 36.00109317865 -11.5335792186632 53.7611999029601
vertex 36.0010931786503 -15.8499532999997 50.7206468249756
vertex 36.00109317865 -12.2169279291341 52.8706425249763
endloop
endfacet
facet normal 1.0 8.09817890187056e-15 -1.08719320810982e-15
outer loop
vertex 36.00109317865 -12.2169279291341 52.8706425249763
vertex 36.0010931786503 -15.8499532999997 50.7206468249756
vertex 36.00109317865 -12.6464988867603 51.8335664930733
endloop
endfacet
facet normal 1.0 8.09817890187056e-15 -1.08719320810982e-15
outer loop
vertex 36.00109317865 -12.6464988867603 51.8335664930733
vertex 36.0010931786503 -15.8499532999997 50.7206468249756
vertex 36.0010931786499 -12.7930175406795 50.7206468249763
endloop
endfacet
facet normal 1.0 8.09817890187056e-15 -1.08719320810982e-15
outer loop
vertex 36.00109317865 3.1004232668182e-13 50.7206468249763
vertex 36.00109317865 -6.34303044067945 54.4445486134309
vertex 36.0010931786499 -5.45247306269557 53.7611999029601
endloop
endfacet
facet normal 1.0 8.09817890187056e-15 -1.08719320810982e-15
outer loop
vertex 36.00109317865 3.1004232668182e-13 50.7206468249763
vertex 36.0010931786499 -5.45247306269557 53.7611999029601
vertex 36.0010931786499 -4.76912435222492 52.8706425249763
endloop
endfacet
facet normal 1.0 8.09817890187056e-15 -1.08719320810982e-15
outer loop
vertex 36.00109317865 3.1004232668182e-13 50.7206468249763
vertex 36.0010931786499 -4.76912435222492 52.8706425249763
vertex 36.0010931786499 -4.33955339459867 51.8335664930733
endloop
endfacet
facet normal 1.0 8.09817890187056e-15 -1.08719320810982e-15
outer loop
vertex 36.00109317865 3.1004232668182e-13 50.7206468249763
vertex 36.0010931786499 -4.33955339459867 51.8335664930733
vertex 36.00109317865 -4.19303474067958 50.7206468249763
endloop
endfacet
facet normal 1.0 8.09817890187056e-15 -1.08719320810982e-15
outer loop
vertex 36.0010931786505 -59.9537212275373 67.0576468398895
vertex 36.0010931786503 -54.3499220999997 60.7206468249763
vertex 36.0010931786504 -52.6499220999997 67.0576468398896
endloop
endfacet
facet normal 1.0 8.09817890187056e-15 -1.08719320810982e-15
outer loop
vertex 36.0010931786503 -54.3499220999997 60.7206468249763
vertex 36.0010931786505 -59.9537212275373 67.0576468398895
vertex 36.0010931786503 -54.3499220999997 56.7206468249763
endloop
endfacet
facet normal 1.0 8.09817890187056e-15 -1.08719320810982e-15
outer loop
vertex 36.0010931786504 -52.6499220999997 67.0576468398896
vertex 36.0010931786503 -54.3499220999997 60.7206468249763
vertex 36.0010931786504 -52.6499220999997 60.7206468249763
endloop
endfacet
