solid Z-endstop holder
facet normal -0.0 -0.0 1.0
outer loop
vertex 14.5033320996791 12.6 15.0
vertex 15.2 15.2 15.0
vertex 13.67695526217 13.67695526217 15.0
endloop
endfacet
facet normal -0.0 -0.0 1.0
outer loop
vertex 15.2 15.2 15.0
vertex 14.5033320996791 12.6 15.0
vertex 15.0228142967032 11.3458590345331 15.0
endloop
endfacet
facet normal -0.0 -0.0 1.0
outer loop
vertex 15.2 15.2 15.0
vertex 15.0228142967032 11.3458590345331 15.0
vertex 15.2 10.0 15.0
endloop
endfacet
facet normal 0.923879532511288 -0.382683432365087 -0.0
outer loop
vertex 30.6143593539449 10.8 2.11497486191092e-15
vertex 30.4545186779375 10.414110472164 4.8
vertex 30.4545186779375 10.414110472164 2.11497486191092e-15
endloop
endfacet
facet normal 0.923879532511288 -0.382683432365087 -0.0
outer loop
vertex 30.4545186779375 10.414110472164 4.8
vertex 30.6143593539449 10.8 2.11497486191092e-15
vertex 30.6143593539449 10.8 4.8
endloop
endfacet
facet normal -0.923879532511288 0.382683432365087 -0.0
outer loop
vertex 33.5454813220625 9.58588952783597 4.8
vertex 33.3856406460551 9.2 2.11497486191092e-15
vertex 33.3856406460551 9.2 4.8
endloop
endfacet
facet normal -0.923879532511288 0.382683432365087 -0.0
outer loop
vertex 33.3856406460551 9.2 2.11497486191092e-15
vertex 33.5454813220625 9.58588952783597 4.8
vertex 33.5454813220625 9.58588952783597 2.11497486191092e-15
endloop
endfacet
facet normal -1.93595935204313e-16 -1.0 -3.76900482118465e-16
outer loop
vertex 7.6 0.0 15.0
vertex 0.0 0.0 0.0
vertex 7.6 0.0 0.0
endloop
endfacet
facet normal -1.93595935204313e-16 -1.0 -3.76900482118465e-16
outer loop
vertex 0.0 0.0 0.0
vertex 7.6 0.0 15.0
vertex 3.0 -4.62359320381631e-16 15.0
endloop
endfacet
facet normal -1.93595935204313e-16 -1.0 -3.76900482118465e-16
outer loop
vertex 0.0 0.0 0.0
vertex 3.0 -4.62359320381631e-16 15.0
vertex 9.27525028492286e-15 3.12704146499619e-15 21.0
endloop
endfacet
facet normal -1.93595935204313e-16 -1.0 -3.76900482118465e-16
outer loop
vertex 9.27525028492286e-15 3.12704146499619e-15 21.0
vertex 3.0 -4.62359320381631e-16 15.0
vertex 2.99999999999999 -2.18748013949603e-14 21.0
endloop
endfacet
facet normal -0.382683432365088 -0.923879532511288 -0.0
outer loop
vertex 12.6 14.5033320996791 15.0
vertex 11.3458590345331 15.0228142967032 -1.40998324127395e-15
vertex 12.6 14.5033320996791 -1.40998324127395e-15
endloop
endfacet
facet normal -0.382683432365088 -0.923879532511288 -0.0
outer loop
vertex 11.3458590345331 15.0228142967032 -1.40998324127395e-15
vertex 12.6 14.5033320996791 15.0
vertex 11.3458590345331 15.0228142967032 15.0
endloop
endfacet
facet normal 0.833836534622485 0.552011443295124 0.0
outer loop
vertex 35.9932182423918 13.0660023802903 10.2
vertex 36.3559501723472 12.5180805226102 15.0
vertex 36.3559501723472 12.5180805226102 10.2
endloop
endfacet
facet normal 0.833836534622485 0.552011443295124 0.0
outer loop
vertex 36.3559501723472 12.5180805226102 15.0
vertex 35.9932182423918 13.0660023802903 10.2
vertex 35.9932182423918 13.0660023802903 15.0
endloop
endfacet
facet normal -0.130526192220053 -0.99144486137381 -0.0
outer loop
vertex 32.414110472164 11.5454813220625 15.0
vertex 32.0 11.6 10.2
vertex 32.414110472164 11.5454813220625 10.2
endloop
endfacet
facet normal -0.130526192220053 -0.99144486137381 -0.0
outer loop
vertex 32.0 11.6 10.2
vertex 32.414110472164 11.5454813220625 15.0
vertex 32.0 11.6 15.0
endloop
endfacet
facet normal 3.23146912062512e-15 -0.750332575796568 0.661060531039698
outer loop
vertex 2.99999999999993 1.64378914496667 24.3866722510877
vertex 1.37906246384823e-14 1.22186631445248 23.9077714101781
vertex 2.99999999999993 1.22186631445249 23.907771410178
endloop
endfacet
facet normal 3.23146912062512e-15 -0.750332575796568 0.661060531039698
outer loop
vertex 1.37906246384823e-14 1.22186631445248 23.9077714101781
vertex 2.99999999999993 1.64378914496667 24.3866722510877
vertex 1.45342926473816e-14 1.64378914496667 24.3866722510877
endloop
endfacet
facet normal 0.658274017665898 0.752778398777487 0.0
outer loop
vertex 35.0660023802903 13.9932182423918 4.8
vertex 35.5606601717798 13.5606601717798 0.0
vertex 35.0660023802903 13.9932182423918 0.0
endloop
endfacet
facet normal 0.658274017665898 0.752778398777487 0.0
outer loop
vertex 35.5606601717798 13.5606601717798 0.0
vertex 35.0660023802903 13.9932182423918 4.8
vertex 35.5606601717798 13.5606601717798 4.8
endloop
endfacet
facet normal -2.9814632198734e-15 0.60876142900872 -0.793353340291236
outer loop
vertex 4.2813801785989e-15 14.2 23.9856406460551
vertex 3.00000000000002 13.8686291501015 23.7313708498985
vertex 3.40259439928699e-15 13.8686291501015 23.7313708498985
endloop
endfacet
facet normal -2.9814632198734e-15 0.60876142900872 -0.793353340291236
outer loop
vertex 3.00000000000002 13.8686291501015 23.7313708498985
vertex 4.2813801785989e-15 14.2 23.9856406460551
vertex 3.00000000000002 14.2 23.9856406460551
endloop
endfacet
facet normal 0.99144486137381 -0.130526192220051 -0.0
outer loop
vertex 4.97718570329684 11.3458590345331 -1.40998324127395e-15
vertex 4.8 10.0 15.0
vertex 4.8 10.0 -1.40998324127395e-15
endloop
endfacet
facet normal 0.99144486137381 -0.130526192220051 -0.0
outer loop
vertex 4.8 10.0 15.0
vertex 4.97718570329684 11.3458590345331 -1.40998324127395e-15
vertex 4.97718570329684 11.3458590345331 15.0
endloop
endfacet
facet normal 0.608761429008718 -0.793353340291237 -0.0
outer loop
vertex 31.2 11.3856406460551 15.0
vertex 30.8686291501015 11.1313708498985 10.2
vertex 31.2 11.3856406460551 10.2
endloop
endfacet
facet normal 0.608761429008718 -0.793353340291237 -0.0
outer loop
vertex 30.8686291501015 11.1313708498985 10.2
vertex 31.2 11.3856406460551 15.0
vertex 30.8686291501015 11.1313708498985 15.0
endloop
endfacet
facet normal 1.0 -0.0 -0.0
outer loop
vertex 20.0 5.0 10.2
vertex 20.0 0.0 15.0
vertex 20.0 0.0 10.2
endloop
endfacet
facet normal 1.0 -0.0 -0.0
outer loop
vertex 20.0 0.0 15.0
vertex 20.0 5.0 10.2
vertex 20.0 5.0 15.0
endloop
endfacet
facet normal 3.38517790271435e-15 0.382683432365114 0.923879532511277
outer loop
vertex 3.5201547900137e-15 4.19999999999999 21.2143593539449
vertex 3.00000000000001 4.58588952783596 21.0545186779375
vertex 2.96250523097893e-15 4.58588952783596 21.0545186779375
endloop
endfacet
facet normal 3.38517790271435e-15 0.382683432365114 0.923879532511277
outer loop
vertex 3.00000000000001 4.58588952783596 21.0545186779375
vertex 3.5201547900137e-15 4.19999999999999 21.2143593539449
vertex 3.00000000000001 4.19999999999999 21.2143593539449
endloop
endfacet
facet normal 1.0 -0.0 -0.0
outer loop
vertex 20.0 5.0 4.8
vertex 20.0 0.0 10.2
vertex 20.0 0.0 4.8
endloop
endfacet
facet normal 1.0 -0.0 -0.0
outer loop
vertex 20.0 0.0 10.2
vertex 20.0 5.0 4.8
vertex 20.0 5.0 10.2
endloop
endfacet
facet normal -1.65530211938203e-15 0.923879532511286 -0.382683432365093
outer loop
vertex 9.14152495064844e-15 3.45451867793748 23.014110472164
vertex 3.00000000000001 3.61435935394489 23.4
vertex 3.00000000000001 3.45451867793748 23.014110472164
endloop
endfacet
facet normal -1.65530211938203e-15 0.923879532511286 -0.382683432365093
outer loop
vertex 3.00000000000001 3.61435935394489 23.4
vertex 9.14152495064844e-15 3.45451867793748 23.014110472164
vertex 1.02884174544506e-14 3.61435935394489 23.4
endloop
endfacet
facet normal -0.130526192220052 0.99144486137381 -0.0
outer loop
vertex 10.0 4.8 15.0
vertex 11.3458590345331 4.97718570329684 -2.8199664825479e-15
vertex 10.0 4.8 -2.8199664825479e-15
endloop
endfacet
facet normal -0.130526192220052 0.99144486137381 -0.0
outer loop
vertex 11.3458590345331 4.97718570329684 -2.8199664825479e-15
vertex 10.0 4.8 15.0
vertex 11.3458590345331 4.97718570329684 15.0
endloop
endfacet
facet normal 0.130526192220052 0.99144486137381 0.0
outer loop
vertex 8.6541409654669 4.97718570329684 15.0
vertex 10.0 4.8 -2.8199664825479e-15
vertex 8.6541409654669 4.97718570329684 -2.8199664825479e-15
endloop
endfacet
facet normal 0.130526192220052 0.99144486137381 0.0
outer loop
vertex 10.0 4.8 -2.8199664825479e-15
vertex 8.6541409654669 4.97718570329684 15.0
vertex 10.0 4.8 15.0
endloop
endfacet
facet normal 0.182498912351333 -0.983206055204391 -0.0
outer loop
vertex 33.3023694646535 5.15261810968293 15.0
vertex 32.6562954850649 5.0326963517266 10.2
vertex 33.3023694646535 5.15261810968293 10.2
endloop
endfacet
facet normal 0.182498912351333 -0.983206055204391 -0.0
outer loop
vertex 32.6562954850649 5.0326963517266 10.2
vertex 33.3023694646535 5.15261810968293 15.0
vertex 32.6562954850649 5.0326963517266 15.0
endloop
endfacet
facet normal 3.75854222112875e-15 -0.130526192220042 0.991444861373812
outer loop
vertex 5.91171657752219e-15 5.0 21.0
vertex 3.00000000000001 5.41411047216404 21.0545186779375
vertex 2.81120230992561e-15 5.41411047216403 21.0545186779375
endloop
endfacet
facet normal 3.75854222112875e-15 -0.130526192220042 0.991444861373812
outer loop
vertex 3.00000000000001 5.41411047216404 21.0545186779375
vertex 5.91171657752219e-15 5.0 21.0
vertex 3.00000000000001 5.0 21.0
endloop
endfacet
facet normal 0.60876142900872 -0.793353340291236 -0.0
outer loop
vertex 7.4 14.5033320996791 15.0
vertex 6.32304473782995 13.67695526217 -1.40998324127395e-15
vertex 7.4 14.5033320996791 -1.40998324127395e-15
endloop
endfacet
facet normal 0.60876142900872 -0.793353340291236 -0.0
outer loop
vertex 6.32304473782995 13.67695526217 -1.40998324127395e-15
vertex 7.4 14.5033320996791 15.0
vertex 6.32304473782995 13.67695526217 15.0
endloop
endfacet
facet normal -0.793353340291235 0.608761429008721 -0.0
outer loop
vertex 14.5033320996791 7.4 15.0
vertex 13.67695526217 6.32304473782995 -2.8199664825479e-15
vertex 13.67695526217 6.32304473782995 15.0
endloop
endfacet
facet normal -0.793353340291235 0.608761429008721 -0.0
outer loop
vertex 13.67695526217 6.32304473782995 -2.8199664825479e-15
vertex 14.5033320996791 7.4 15.0
vertex 14.5033320996791 7.4 -2.8199664825479e-15
endloop
endfacet
facet normal 0.991444861373811 0.130526192220049 3.30932540857218e-31
outer loop
vertex 30.4 10.0 10.2
vertex 30.4545186779375 9.58588952783597 15.0
vertex 30.4545186779375 9.58588952783597 10.2
endloop
endfacet
facet normal 0.991444861373811 0.130526192220049 3.30932540857218e-31
outer loop
vertex 30.4545186779375 9.58588952783597 15.0
vertex 30.4 10.0 10.2
vertex 30.4 10.0 15.0
endloop
endfacet
facet normal 1.3055798979945e-18 0.983570569469362 0.180524056218873
outer loop
vertex 1.51941554587427e-14 19.8847802626244 21.6277653243467
vertex 3.00000000000002 20.0 21.0
vertex 1.73218784196929e-14 20.0 21.0
endloop
endfacet
facet normal 1.3055798979945e-18 0.983570569469362 0.180524056218873
outer loop
vertex 3.00000000000002 20.0 21.0
vertex 1.51941554587427e-14 19.8847802626244 21.6277653243467
vertex 3.00000000000002 19.8847802626244 21.6277653243467
endloop
endfacet
facet normal -0.991444861373811 0.130526192220049 3.42195255882076e-31
outer loop
vertex 33.6 10.0 15.0
vertex 33.5454813220625 9.58588952783597 10.2
vertex 33.5454813220625 9.58588952783597 15.0
endloop
endfacet
facet normal -0.991444861373811 0.130526192220049 3.42195255882076e-31
outer loop
vertex 33.5454813220625 9.58588952783597 10.2
vertex 33.6 10.0 15.0
vertex 33.6 10.0 10.2
endloop
endfacet
facet normal 0.311980152444987 0.950088619277382 0.0
outer loop
vertex 33.3023694646535 14.8473818903171 15.0
vertex 33.9266816644912 14.6423767872912 10.2
vertex 33.3023694646535 14.8473818903171 10.2
endloop
endfacet
facet normal 0.311980152444987 0.950088619277382 0.0
outer loop
vertex 33.9266816644912 14.6423767872912 10.2
vertex 33.3023694646535 14.8473818903171 15.0
vertex 33.9266816644912 14.6423767872912 15.0
endloop
endfacet
facet normal -4.65884936497211e-17 -4.94205210669631e-16 -1.0
outer loop
vertex 32.0 15.0 10.2
vertex 20.0 10.0 10.2
vertex 20.0 15.0 10.2
endloop
endfacet
facet normal -4.65884936497211e-17 -4.94205210669631e-16 -1.0
outer loop
vertex 20.0 10.0 10.2
vertex 32.0 15.0 10.2
vertex 30.4545186779375 10.414110472164 10.2
endloop
endfacet
facet normal -4.65884936497211e-17 -4.94205210669631e-16 -1.0
outer loop
vertex 20.0 10.0 10.2
vertex 30.4545186779375 10.414110472164 10.2
vertex 30.4 10.0 10.2
endloop
endfacet
facet normal -4.65884936497211e-17 -4.94205210669631e-16 -1.0
outer loop
vertex 30.4545186779375 10.414110472164 10.2
vertex 32.0 15.0 10.2
vertex 30.6143593539449 10.8 10.2
endloop
endfacet
facet normal -4.65884936497211e-17 -4.94205210669631e-16 -1.0
outer loop
vertex 30.6143593539449 10.8 10.2
vertex 32.0 15.0 10.2
vertex 30.8686291501015 11.1313708498985 10.2
endloop
endfacet
facet normal -4.65884936497211e-17 -4.94205210669631e-16 -1.0
outer loop
vertex 30.8686291501015 11.1313708498985 10.2
vertex 32.0 15.0 10.2
vertex 31.2 11.3856406460551 10.2
endloop
endfacet
facet normal -4.65884936497211e-17 -4.94205210669631e-16 -1.0
outer loop
vertex 31.2 11.3856406460551 10.2
vertex 32.0 15.0 10.2
vertex 31.585889527836 11.5454813220625 10.2
endloop
endfacet
facet normal -4.65884936497211e-17 -4.94205210669631e-16 -1.0
outer loop
vertex 31.585889527836 11.5454813220625 10.2
vertex 32.0 15.0 10.2
vertex 32.0 11.6 10.2
endloop
endfacet
facet normal -4.65884936497211e-17 -4.94205210669631e-16 -1.0
outer loop
vertex 32.0 11.6 10.2
vertex 32.0 15.0 10.2
vertex 32.6562954850649 14.9673036482734 10.2
endloop
endfacet
facet normal -4.65884936497211e-17 -4.94205210669631e-16 -1.0
outer loop
vertex 32.0 11.6 10.2
vertex 32.6562954850649 14.9673036482734 10.2
vertex 32.414110472164 11.5454813220625 10.2
endloop
endfacet
facet normal -4.65884936497211e-17 -4.94205210669631e-16 -1.0
outer loop
vertex 32.414110472164 11.5454813220625 10.2
vertex 32.6562954850649 14.9673036482734 10.2
vertex 32.8 11.3856406460551 10.2
endloop
endfacet
facet normal -4.65884936497211e-17 -4.94205210669631e-16 -1.0
outer loop
vertex 32.8 11.3856406460551 10.2
vertex 32.6562954850649 14.9673036482734 10.2
vertex 33.3023694646535 14.8473818903171 10.2
endloop
endfacet
facet normal -4.65884936497211e-17 -4.94205210669631e-16 -1.0
outer loop
vertex 32.8 11.3856406460551 10.2
vertex 33.3023694646535 14.8473818903171 10.2
vertex 33.1313708498985 11.1313708498985 10.2
endloop
endfacet
facet normal -4.65884936497211e-17 -4.94205210669631e-16 -1.0
outer loop
vertex 33.1313708498985 11.1313708498985 10.2
vertex 33.3023694646535 14.8473818903171 10.2
vertex 33.3856406460551 10.8 10.2
endloop
endfacet
facet normal -4.65884936497211e-17 -4.94205210669631e-16 -1.0
outer loop
vertex 33.3856406460551 10.8 10.2
vertex 33.3023694646535 14.8473818903171 10.2
vertex 33.9266816644912 14.6423767872912 10.2
endloop
endfacet
facet normal -4.65884936497211e-17 -4.94205210669631e-16 -1.0
outer loop
vertex 33.3856406460551 10.8 10.2
vertex 33.9266816644912 14.6423767872912 10.2
vertex 33.5454813220625 10.414110472164 10.2
endloop
endfacet
facet normal -4.65884936497211e-17 -4.94205210669631e-16 -1.0
outer loop
vertex 33.5454813220625 10.414110472164 10.2
vertex 33.9266816644912 14.6423767872912 10.2
vertex 33.6 10.0 10.2
endloop
endfacet
facet normal -4.65884936497211e-17 -4.94205210669631e-16 -1.0
outer loop
vertex 33.6 10.0 10.2
vertex 33.9266816644912 14.6423767872912 10.2
vertex 37.0 10.0 10.2
endloop
endfacet
facet normal -4.65884936497211e-17 -4.94205210669631e-16 -1.0
outer loop
vertex 37.0 10.0 10.2
vertex 33.9266816644912 14.6423767872912 10.2
vertex 34.5180805226102 14.3559501723472 10.2
endloop
endfacet
facet normal -4.65884936497211e-17 -4.94205210669631e-16 -1.0
outer loop
vertex 37.0 10.0 10.2
vertex 34.5180805226102 14.3559501723472 10.2
vertex 35.0660023802903 13.9932182423918 10.2
endloop
endfacet
facet normal -4.65884936497211e-17 -4.94205210669631e-16 -1.0
outer loop
vertex 37.0 10.0 10.2
vertex 35.0660023802903 13.9932182423918 10.2
vertex 35.5606601717798 13.5606601717798 10.2
endloop
endfacet
facet normal -4.65884936497211e-17 -4.94205210669631e-16 -1.0
outer loop
vertex 37.0 10.0 10.2
vertex 35.5606601717798 13.5606601717798 10.2
vertex 35.9932182423918 13.0660023802903 10.2
endloop
endfacet
facet normal -4.65884936497211e-17 -4.94205210669631e-16 -1.0
outer loop
vertex 37.0 10.0 10.2
vertex 35.9932182423918 13.0660023802903 10.2
vertex 36.3559501723472 12.5180805226102 10.2
endloop
endfacet
facet normal -4.65884936497211e-17 -4.94205210669631e-16 -1.0
outer loop
vertex 37.0 10.0 10.2
vertex 36.3559501723472 12.5180805226102 10.2
vertex 36.6423767872912 11.9266816644912 10.2
endloop
endfacet
facet normal -4.65884936497211e-17 -4.94205210669631e-16 -1.0
outer loop
vertex 37.0 10.0 10.2
vertex 36.6423767872912 11.9266816644912 10.2
vertex 36.8473818903171 11.3023694646535 10.2
endloop
endfacet
facet normal -4.65884936497211e-17 -4.94205210669631e-16 -1.0
outer loop
vertex 37.0 10.0 10.2
vertex 36.8473818903171 11.3023694646535 10.2
vertex 36.9673036482734 10.6562954850649 10.2
endloop
endfacet
facet normal 0.923879532511287 -0.382683432365089 -0.0
outer loop
vertex 5.49666790032092 12.6 -1.40998324127395e-15
vertex 4.97718570329684 11.3458590345331 15.0
vertex 4.97718570329684 11.3458590345331 -1.40998324127395e-15
endloop
endfacet
facet normal 0.923879532511287 -0.382683432365089 -0.0
outer loop
vertex 4.97718570329684 11.3458590345331 15.0
vertex 5.49666790032092 12.6 -1.40998324127395e-15
vertex 5.49666790032092 12.6 15.0
endloop
endfacet
facet normal 0.0 -1.0 0.0
outer loop
vertex 32.0 5.0 4.8
vertex 20.0 5.0 0.0
vertex 32.0 5.0 0.0
endloop
endfacet
facet normal 0.0 -1.0 0.0
outer loop
vertex 20.0 5.0 0.0
vertex 32.0 5.0 4.8
vertex 20.0 5.0 4.8
endloop
endfacet
facet normal 1.0 -0.0 -0.0
outer loop
vertex 20.0 15.0 4.8
vertex 20.0 5.0 10.2
vertex 20.0 5.0 4.8
endloop
endfacet
facet normal 1.0 -0.0 -0.0
outer loop
vertex 20.0 5.0 10.2
vertex 20.0 15.0 4.8
vertex 20.0 10.0 10.2
endloop
endfacet
facet normal 1.0 -0.0 -0.0
outer loop
vertex 20.0 10.0 10.2
vertex 20.0 15.0 4.8
vertex 20.0 15.0 10.2
endloop
endfacet
facet normal -3.72756084501226e-15 -0.130526192220062 -0.991444861373809
outer loop
vertex 3.00000000000002 15.414110472164 24.1454813220625
vertex 5.12364056113483e-15 15.0 24.2
vertex 5.02971651119012e-15 15.414110472164 24.1454813220625
endloop
endfacet
facet normal -3.72756084501226e-15 -0.130526192220062 -0.991444861373809
outer loop
vertex 5.12364056113483e-15 15.0 24.2
vertex 3.00000000000002 15.414110472164 24.1454813220625
vertex 3.00000000000002 15.0 24.2
endloop
endfacet
facet normal 0.793353340291235 -0.60876142900872 -0.0
outer loop
vertex 6.32304473782995 13.67695526217 -1.40998324127395e-15
vertex 5.49666790032092 12.6 15.0
vertex 5.49666790032092 12.6 -1.40998324127395e-15
endloop
endfacet
facet normal 0.793353340291235 -0.60876142900872 -0.0
outer loop
vertex 5.49666790032092 12.6 15.0
vertex 6.32304473782995 13.67695526217 -1.40998324127395e-15
vertex 6.32304473782995 13.67695526217 15.0
endloop
endfacet
